/* XPM */
static char *result[] = {
/* columns rows colors chars-per-pixel */
"60 60 4 1 ",
"  c #932054",
". c #FF004D",
"X c black",
"o c white",
/* pixels */
"      ................................................      ",
"      ................................................      ",
"      ................................................      ",
"      ................................................      ",
"      ................................................      ",
"      ................................................      ",
"......        ................................        ......",
"......        ................................        ......",
"......        ................................        ......",
"......        ................................        ......",
"......        ................................        ......",
"......        ................................        ......",
"......        ................................        ......",
"......        ................................        ......",
"..............                                ..............",
"..............                                ..............",
"..............                                ..............",
"..............                                ..............",
"..............                                ..............",
"..............                                ..............",
"..............                                ..............",
"..............                                ..............",
"..............        XXXXXXXXXXXXXXXX        ..............",
"..............        XXXXXXXXXXXXXXXX        ..............",
"..............        XXXXXXXXXXXXXXXX        ..............",
"..............        XXXXXXXXXXXXXXXX        ..............",
"..............        XXXXXXXXXXXXXXXX        ..............",
"..............        XXXXXXXXXXXXXXXX        ..............",
"..............        XXXXXXXXXXXXXXXX        ..............",
"..............        XXXXXXXXXXXXXXXX        ..............",
"..............        XXXXXXXXXXXXXXXX        ..............",
"..............        XXXXXXXXXXXXXXXX        ..............",
"..............        XXXXXXXXXXXXXXXX        ..............",
"..............        XXXXXXXXXXXXXXXX        ..............",
"..............        XXXXXXXXXXXXXXXX        ..............",
"..............        XXXXXXXXXXXXXXXX        ..............",
"..............        XXXXXXXXXXXXXXXX        ..............",
"..............        XXXXXXXXXXXXXXXX        ..............",
"..............                                ..............",
"..............                                ..............",
"..............                                ..............",
"..............                                ..............",
"..............                                ..............",
"..............                                ..............",
"..............                                ..............",
"..............                                ..............",
"......        ................................        ......",
"......        ................................        ......",
"......        ................................        ......",
"......        ................................        ......",
"......        ................................        ......",
"......        ................................        ......",
"......        ................................        ......",
"......        ................................        ......",
"      ................................................      ",
"      ................................................      ",
"      ................................................      ",
"      ................................................      ",
"      ................................................      ",
"      ................................................      "
};
