/* XPM */
static char *result[] = {
/* columns rows colors chars-per-pixel */
"60 60 219 2 ",
"   c #66C83E",
".  c #66C93F",
"X  c #67C940",
"o  c #68C940",
"O  c #68CA40",
"+  c #68CA41",
"@  c #69CA41",
"#  c #6ACA42",
"$  c #6BCB43",
"%  c #6CCB43",
"&  c #6CCA44",
"*  c #6CCB44",
"=  c #6DCB44",
"-  c #6DCB45",
";  c #6ECB45",
":  c #6DCC44",
">  c #6DCC45",
",  c #6ECC45",
"<  c #6ECC46",
"1  c #6FCC46",
"2  c #6ECD46",
"3  c #6FCD46",
"4  c #6FCC47",
"5  c #6FCD47",
"6  c #70CC47",
"7  c #70CD47",
"8  c #71CC48",
"9  c #70CD48",
"0  c #71CD48",
"q  c #71CD49",
"w  c #72CD49",
"e  c #71CE48",
"r  c #71CE49",
"t  c #72CE49",
"y  c #73CE49",
"u  c #72CF49",
"i  c #73CF49",
"p  c #73CE4A",
"a  c #73CF4A",
"s  c #74CF4A",
"d  c #74CF4B",
"f  c #75CF4B",
"g  c #75CF4C",
"h  c #71D447",
"j  c #72D447",
"k  c #71D248",
"l  c #72D248",
"z  c #73D249",
"x  c #73D04A",
"c  c #74D14A",
"v  c #74D04B",
"b  c #74D34A",
"n  c #75D34A",
"m  c #75D34B",
"M  c #72D448",
"N  c #73D448",
"B  c #73D549",
"V  c #74D549",
"C  c #75D44B",
"Z  c #76D44B",
"A  c #75D64A",
"S  c #75D64B",
"D  c #76D64B",
"F  c #75D04C",
"G  c #76D04C",
"H  c #76D04D",
"J  c #77D04D",
"K  c #77D14D",
"L  c #77D14E",
"P  c #77D64C",
"I  c #77D74C",
"U  c #78D14E",
"Y  c #79D14F",
"T  c #79D24F",
"R  c #7AD24F",
"E  c #78D54D",
"W  c #78D74C",
"Q  c #78D74D",
"!  c #7BD84F",
"~  c #7AD250",
"^  c #7BD250",
"/  c #7BD251",
"(  c #7BD351",
")  c #7CD351",
"_  c #7CD352",
"`  c #7DD352",
"'  c #7CD750",
"]  c #7CD751",
"[  c #7DD751",
"{  c #7DD453",
"}  c #7ED453",
"|  c #7FD454",
" . c #80D555",
".. c #81D555",
"X. c #81D556",
"o. c #81D656",
"O. c #82D656",
"+. c #82D657",
"@. c #83D657",
"#. c #83D757",
"$. c #80D954",
"%. c #81DB54",
"&. c #84D758",
"*. c #85D759",
"=. c #85D858",
"-. c #85D859",
";. c #86D859",
":. c #85DB58",
">. c #86D85A",
",. c #87D85A",
"<. c #87D95A",
"1. c #87D85B",
"2. c #87D95B",
"3. c #86DC59",
"4. c #87DD5A",
"5. c #87DF5A",
"6. c #88D95B",
"7. c #88DD5A",
"8. c #88D95C",
"9. c #89D95C",
"0. c #89DA5C",
"q. c #89DA5D",
"w. c #8ADA5D",
"e. c #8BDA5D",
"r. c #8BDB5D",
"t. c #8BDB5E",
"y. c #8CDB5E",
"u. c #8CDB5F",
"i. c #8CDC5F",
"p. c #8DDC5F",
"a. c #8CDF5E",
"s. c #8DDC60",
"d. c #8EDD60",
"f. c #8EDD61",
"g. c #8FDD61",
"h. c #90DD61",
"j. c #90DD62",
"k. c #90DE62",
"l. c #91DE62",
"z. c #91DE63",
"x. c #92DE63",
"c. c #92DF63",
"v. c #92DF64",
"b. c #93DF64",
"n. c #93DF65",
"m. c #90E261",
"M. c #91E462",
"N. c #93E065",
"B. c #94E065",
"V. c #95E066",
"C. c #95E166",
"Z. c #96E166",
"A. c #96E167",
"S. c #97E267",
"D. c #94E464",
"F. c #97E667",
"G. c #97E867",
"H. c #97E268",
"J. c #98E268",
"K. c #98E269",
"L. c #99E369",
"P. c #9AE36A",
"I. c #9AE46A",
"U. c #9BE46B",
"Y. c #9CE46B",
"T. c #9CE56B",
"R. c #9CE56C",
"E. c #9DE56C",
"W. c #9DE66C",
"Q. c #9EE66D",
"!. c #9FE66E",
"~. c #9FE76E",
"^. c #9BE86B",
"/. c #9CE96B",
"(. c #9DEA6C",
"). c #9DEB6C",
"_. c #9EEA6D",
"`. c #9FEA6D",
"'. c #9FEB6E",
"]. c #A0E76E",
"[. c #A0E76F",
"{. c #A1E76F",
"}. c #A1E86F",
"|. c #A0EB6E",
" X c #A1E870",
".X c #A2E870",
"XX c #A2E970",
"oX c #A3E971",
"OX c #A4E971",
"+X c #A4EA72",
"@X c #A5EA72",
"#X c #A5EA73",
"$X c #A6EB73",
"%X c #A3EF70",
"&X c #A6EB74",
"*X c #A7EB74",
"=X c #A7EC74",
"-X c #A7EC75",
";X c #A8EC75",
":X c #A9EC75",
">X c #A9ED75",
",X c #A9ED76",
"<X c #AAED76",
"1X c #ABED77",
"2X c #AAEE77",
"3X c #ABEE77",
"4X c #ABEE78",
"5X c #ACEE78",
"6X c #ACEF78",
"7X c #ADEF79",
"8X c #A7F174",
"9X c #ADF079",
"0X c #ADF578",
"qX c #AEF679",
"wX c #AFF77A",
"eX c #B0F77B",
"rX c #B1F87C",
"tX c #B2F97C",
"yX c #B3F97D",
/* pixels */
"t t t t t t t t t t t t t t t t t t t t t t t 1 0 g.@X;XE. .* r t t t t t t t t t t t t t t t t t t t t t t t t w u Z I ",
"t t t t t t t t t t t t t t t t t t t t t t t 1 0 g.$X,XQ.| # 5 0 t t t t t t t t t t e 7 7 7 e t t t t t t t t w u Z I ",
"t t t t t t t t t t t t t t t t t t t t t t t 1 0 k.*X2X!.} o > 5 t t t t t t t t t t 9 < , < 0 t t t t t t t t w u Z I ",
"t t t t t t t t t t t t t t t t t t t t t t t 7 e &.v.b.k.t.9.w.o.a 7 t t t t t t e 9 ) 9.t.6.^ 7 e t t t t t t w u Z I ",
"t t t t t t t t t t t t t t t t t t t t t t t t t y p < / L.&X#XB.g , t t t t t t 7 < 8..X=X[.;.> 0 t t t t t t w u Z I ",
"t t t t t t t t t t t t t t t t t t t t t t t t t 7 < o U I.<X:XZ.F > t t t t t t 7 < w.@X2XoX,.> 0 e < > > 7 t w u Z I ",
"t t t t t t t t t t t t t t t t t t t t t t t t t t t : ~ L.=X$XB.F , t t t t t t 7 < 0.XX;X}.>.> 9 p f G F s t q u Z I ",
"t t t t t t t t t t t t t t t t t t t t t t t t t t t : ~ L.=X$XB.F , t t t t t t 7 < 0.XX;X}.>.> > / k.H.C.-.e 6 u Z I ",
"t t t t t t t t t t t r e r t t t t t t t t t t t t t : ~ L.-X&XB.F , t t t t t t 7 < 0.oX;X}.>.= $ X.].3X;Xk.0 < u Z I ",
"t t t t t t t t t t 0 > * * 5 t t t t t t t t t t t t * / Y.3X<XA.G > t t t t t t 7 , r.$X5X+X2.* $  .Q.:X#Xg.0 < u Z I ",
"t t t t t t t t t 0 G } O...R t e t t t t t t t t t t < U l.R.Y.p.d 1 t t t t t t 0 5 &.K.E.H.o., $  .E.;X@Xg.0 < u Z I ",
"t t t t t t t t t > } J. X!.t.e 5 t t t t t t t t t t e a U / / L t e t t t t t t t r G ~ ( ~ g 0 *  .E.;X@Xg.0 < u Z I ",
"t t t t t t t t e * X.[.3X;Xl.0 1 t t t t t t t t t t t e < * * 1 t t t t t t t t t t 7 > * > 7 t * ..!.,X&Xh.0 < u Z I ",
"t t t t t t t t r *  .E.;X@Xg.0 1 t t t t t t t t t t t t t t t t t t t t t t t t t t t t t t t r * ..!.,X&Xj.0 < u Z I ",
"t t t t t t t t r *  .E.;X@Xg.0 1 t t t t t t t t t t t t t t t t t t t t t t t t t t t t t t t t 5 R t.x.h.+.r 7 u Z I ",
"t t t t t t t t r *  .E.;X@Xg.0 1 t t t t t t t t t t t t t t t t t t t t t t t t t t t t t t t t t t e 0 0 r t w u Z I ",
"t t t t t t t t e * X.[.3X;Xk.0 1 t t t t t t t t t t t t t t t t t t t 5 > = < e t t t t t t t t t e 5 < 1 9 t w u Z I ",
"t t t t t t t t r > | P.OX{.u.e 5 t t t t t t t t t t t t t t t t t t t F U U J p r t t t t t t t t t t t t t t w u Z I ",
"t t t t t t t t t 9 H ..*.&.( t 0 t t t t t t t t t t t t t t t t t 5 p 0.L.P.l.~ < t t t t t t t t t t t t t t w u Z I ",
"t t t t t t t t t t 0 > * : 5 t t t t t t t t t t t t t t t t t t t , p B.,X4XQ.{ $ 0 r t t t t t t t t t t t t w u Z I ",
"t t t t t t t t t t t e 0 e r t t t t t t t t t t t t t t t t t t t , p B.,X6XQ.~   * 3 t t t t t t t t t t t t w u Z I ",
"t t t t t t t t t t t t t t t t t t t t t t t t t t t t t t t t t t 5 p 0.K.L.b.<.O.&._ t 0 t t t t t t t t t t w u Z I ",
"t t t t t t t t t t t t t t t t t t t t t t t t t t t t t t t t t t t t F U d  .L.oX Xg.p 1 t t t t t t t t t t w u Z I ",
"t t t t t t t t t t e 5 < 3 9 t t t t t t t t t t t t t t t t t t t t t 5 = . ^ E.3X:XN.p < t t t t t t t t t t w u Z I ",
"t t t t t t t t t t t e 0 e r t t t t t t t t t t t t t t t t t t t t t t t * ` U.-X#Xz.p < t t t t t t t t t t w u Z I ",
"t t t t t t t t t 5 R t.x.j.+.r 9 t t t t t t t t t t t t t t t t t t t t t * ` U.-X#Xz.p < t t t t t t t t t t w u Z I ",
"t t t t t t t t r * ..!.,X&Xj.0 1 t t t t t t t t t t t t t t t t t t t t t * ` U.-X$Xz.p < t t t t t t t t t t w u C I ",
": : * 1 t t t t e * O. X7X<Xk.% + > 9 t t t t t t t t t t t t t t t t t t t * } Q.3X,XB.p < t t t t t t t t t t t t l h ",
"~ ^ ^ J t r t t t > } J. XQ.d.~ Y R f e t t t t t t t t t t t t t t t t t t > ) A. X].s.p 1 t t t t t t t t t t 0 a ] %.",
"L.P.U.e.p 5 t t t 0 G }  .| i.L.R.Z.| < e t t t t t t t t t t t t t t t t t 0 f } O...~ t e t t t t t t t t t t ; K D.%X",
"&X;X,XB.p , t t t t 0 > @ @ y.*X5X.X&.* 0 t t t t t t t t t t t t t t t t t t e , * * 3 t t t t t t t t t t t t * T `.rX",
"oX+X$Xx.p < t t t t t t 3 3 y.+X;X~.@.: e t t t t t t t t t t t t t t t t t t t t r r t t t t t t t t t t t t t * T /.qX",
"oX+X#Xz.p < t t t t t t 5 5 y.OX;X~.@.: e t t t t t t t t t t t t t t t t t t t t t t t t t t t t t t t t t t t * T /.qX",
"oX+X#Xz.p < t t t t t t 5 5 y.OX;X~.@.: e t t t t t t t t t t t t t t t t t t t t t t t t t t t t t t t t t t t * T /.qX",
"#X*X;Xb.p < t t t t t t 5 5 p.$X2X X&.* 0 t t t t t t t r 5 , < 7 t t t t t t t t t t t t t t t t t t t t t t t * T _.eX",
".XoX@Xz.p < t t t t t t 7 5 t.oX*XQ.@.> e t t t t t t t t p a a p t t t t t t t t t t t t t t t t t t t t t t t * T ^.0X",
"0.q.w. .t 9 t t t t t t 0 0 { 0.t.<.T 7 t t t t t t t 3 J r.B.B.2.d 5 t t t t t t t t t t t t t t t t t t t t t 4 F 4.M.",
"< < < 7 t t t t t t t t t t 7 < , 1 0 t t t t t t t t * ^ U.<X:XZ.F > t t t t t t t t t t t t t t t t t t t t t w u z B ",
"7 7 7 0 t t t t t t t t t t e 7 7 9 r t t t t t t t t * ^ P.;X=XV.F , t t t t t t t t t t t t t t t t t t t t t w u b A ",
"t t t t t t t t t t t t t t t t t t t t t t t t t t t : ~ L.=X$XB.F , t t t t t t t t t t t t t t t t t t t t t w u Z I ",
"t t t t t t t t t t t t t t t t t t t t t t t t t t t : ~ L.=X$XB.F , t t t t t t t t t t t t t t t t t t t t t w u Z I ",
"t t t t t t t t t t t t t t t t t t t t t t t t t t t * ^ P.;X=XV.F , t t t t t t t t e 7 7 7 e t t t t t t t t w u Z I ",
"t t t t t t t t t t t t t t t t t t t t t t t t t t t * ^ U.<X>XZ.F > t t t t t t t t 9 < , < 0 t t t t t t t t w u Z I ",
"t t t t t t t t t t t t t t t t t t t t t t t t t t t 3 J r.B.B.2.d 5 t t t t t t e 9 ) 9.t.6.^ 7 e t t t t t t w u Z I ",
"t t t t t t t t t t t t t t t t t t t t t t t t t t t t t p a a p t t t t t t t t 7 < 8..X=X[.;.> 0 t t t t t t w u Z I ",
", , > 5 t t t t t t t t t t t t t t t t t t t t t t t t r 5 , , 7 t t t t t t e < $ @ 0.=X9X$X6.= 9 t t t t t t t u l N ",
"g F F d t t t t t t t t t t t t t t t t t t t t t t t t t t t t t t t t t t t p f d t 0.[.#X!.*.> 0 t t t t t t 0 a E ! ",
"B.V.Z.2.p 7 t t t t t t t t t t t t t t t t t t t t t t t t t t t t t t t t < T d.S.V.f.>.>.*.T 9 t t t t t t t < K m.).",
"$X=X:Xn.y > r t t t t t t t t t t t t t t t t t t t t t t t t t t t t t t t * } Q.3X:Xc.1 + , 9 t t t t t t t t * T `.rX",
"=X;X<Xb., X > 7 t t t t t t t t t t t t t t t t t t t t t t t t t t t t t t * { T.;X&Xx.t : 0 r t t t t t t t t & T '.tX",
"L.P.I.g. .| | J 0 t t t t t t t t t t t t t t t t t t t t t t t t t t t t t * ` U.-X#Xz.p < t t t t t t t t t t ; K D.%X",
"~ Y U w.E. XU.#., 0 t t t t t t t t t t t t t t t t t t t t t t t t t t t t * ` U.-X#Xz.p < t t t t t t t t t t 0 a ] %.",
": # O 6.#X5X+X2.> 9 t t t t t t t t t t t t t t t t t t t t t t t t t t t t * } E.,X=Xv.p < t t t t t t t t t t t t l h ",
"t 7 < 0..X;X}.>.> 0 t t t t t t t t t t t t t t t t t t t t t t t t t t t t * } E.,X=Xv.p < t t t t t t t t t t w u C I ",
"t 7 < 0..X;X}.>.> 0 t t t t t t t t t t t t t t t t t t t t t t t t t t t t 5 U w.z.k.&.y 7 t t t t t t t t t t w u Z I ",
"t 7 < 0..X;X}.>.> 0 t t t t t t t t t t t t t t t t t t t t t t t t t t t t t t e 0 e e t t t t t t t t t t t t w u Z I ",
"w 6 - w.#X1XoX1.* 7 w w w w w w w w w w w w w w w 1 * & - 9 t w w w w w w w w 0 4 < < 7 w w w w w w w w w w w w 0 t Z W ",
"u e 3 2.~.+XW.=.2 e u u u u u u u u u u u u u t u G T T U v u u u u u u u u u u u u u u u u u u u u u u u u u u t i m P ",
"Z m b [ 3.7.:.' b m Z C Z Z C Z C Z Z Z C Z Z z n a.(.|.F.$.k m Z Z C Z Z Z C Z Z Z Z Z C Z Z C C Z Z Z Z Z C Z Z m c x ",
"I W W S M j N D Q I I I I I I I I I I I I I I V D G.wXyX8X5.h P I I I I I I I I I I I I I I I I I I I I I I I I W P x 8 "
};
