/* XPM */
static char *result[] = {
/* columns rows colors chars-per-pixel */
"64 64 203 2 ",
"   c black",
".  c #121219",
"X  c #2C0000",
"o  c #161B2C",
"O  c #181C2F",
"+  c #02003C",
"@  c #0E0633",
"#  c #110D3A",
"$  c #171C32",
"%  c #181C32",
"&  c #161A3C",
"*  c #161836",
"=  c #00262F",
"-  c #1B223C",
";  c #003738",
":  c #0F004A",
">  c #050044",
",  c #12014D",
"<  c #110C45",
"1  c #151644",
"2  c #171A42",
"3  c #191D42",
"4  c #15154D",
"5  c #16194C",
"6  c #0C0053",
"7  c #150C51",
"8  c #1A055B",
"9  c #171854",
"0  c #181954",
"q  c #1A1D5A",
"w  c #161653",
"e  c #1E2543",
"r  c #003B40",
"t  c #1D2454",
"y  c #1C2359",
"u  c #232D5F",
"i  c #27345B",
"p  c #210E6B",
"a  c #251673",
"s  c #1F2560",
"d  c #202662",
"f  c #222D65",
"g  c #242C6B",
"h  c #222468",
"j  c #223066",
"k  c #24316C",
"l  c #293A6C",
"z  c #273271",
"x  c #2B3576",
"c  c #2C3978",
"v  c #2A2C76",
"b  c #511F7A",
"n  c #4F1A7B",
"m  c #721268",
"M  c #4A257E",
"N  c #6F3972",
"B  c #00555C",
"V  c #004646",
"C  c #264848",
"Z  c #2B5252",
"A  c #305D61",
"S  c #2C4975",
"D  c #33427C",
"F  c #314576",
"G  c #35577B",
"H  c #3A6B6D",
"J  c #346266",
"K  c #3F7078",
"L  c #445859",
"P  c #795D59",
"I  c #A30029",
"U  c #9F263E",
"Y  c #860153",
"T  c #892E5D",
"R  c #984C65",
"E  c #965467",
"W  c #82597C",
"Q  c #8D6A7E",
"!  c #141384",
"~  c #260082",
"^  c #291A84",
"/  c #0E2E89",
"(  c #292485",
")  c #2D2C85",
"_  c #242584",
"`  c #2B3687",
"'  c #323986",
"]  c #382883",
"[  c #4B2F80",
"{  c #413D86",
"}  c #334484",
"|  c #354980",
" . c #35448B",
".. c #364C8C",
"X. c #394D8D",
"o. c #38468C",
"O. c #325484",
"+. c #38578E",
"@. c #3B4D94",
"#. c #2B5996",
"$. c #3E5296",
"%. c #3D5C92",
"&. c #3F559A",
"*. c #365A94",
"=. c #3F618F",
"-. c #2C6298",
";. c #396392",
":. c #3D649B",
">. c #396795",
",. c #357E8B",
"<. c #5F5C8E",
"1. c #40569C",
"2. c #425A9D",
"3. c #447B80",
"4. c #416396",
"5. c #446B96",
"6. c #41659E",
"7. c #4B7D9D",
"8. c #46739A",
"9. c #717A9D",
"0. c #6B6D8B",
"q. c #445CA1",
"w. c #4463A4",
"e. c #456AA4",
"r. c #4663A9",
"t. c #4966AD",
"y. c #476AAA",
"u. c #486BAB",
"i. c #4474A4",
"p. c #4673AA",
"a. c #4873AB",
"s. c #467DAA",
"d. c #4A7BAD",
"f. c #477AA5",
"g. c #4A7CB1",
"h. c #437EB3",
"j. c #557EA7",
"k. c #667DA2",
"l. c #3F8D93",
"z. c #3E81B6",
"x. c #4D888C",
"c. c #4B839D",
"v. c #548E96",
"b. c #4D949B",
"n. c #4C979A",
"m. c #569A9D",
"M. c #55979C",
"N. c #4780AC",
"B. c #4A84AD",
"V. c #4D87A6",
"C. c #538DA5",
"Z. c #588EA4",
"A. c #5491A4",
"S. c #5494AC",
"D. c #5A9AAC",
"F. c #589CA6",
"G. c #4B84B2",
"H. c #478AB5",
"J. c #4D8BB4",
"K. c #4F8EB8",
"L. c #4381B5",
"P. c #4F90B5",
"I. c #5494B4",
"U. c #559AB4",
"Y. c #5B9CB4",
"T. c #5394B8",
"R. c #559CBA",
"E. c #5999B6",
"W. c #528BB5",
"Q. c #6789A8",
"!. c #7A92A0",
"~. c #5DA4AA",
"^. c #5BA2A4",
"/. c #46A9B0",
"(. c #49ACB2",
"). c #5DA4B5",
"_. c #5CAEB6",
"`. c #5CA3B9",
"'. c #5AA7B7",
"]. c #5DB5BC",
"[. c #59B0B4",
"{. c #61ACAF",
"}. c #63ACB5",
"|. c #63AEB9",
" X c #64B1B6",
".X c #66B3B9",
"XX c #69B6BB",
"oX c #69B8BE",
"OX c #6AB1B7",
"+X c #72B6BC",
"@X c #6ABAC1",
"#X c #808A93",
"$X c #AC9E9C",
"%X c #95B6B9",
"&X c #B2B5B6",
"*X c #9DCBCF",
"=X c #BDD7DA",
"-X c #BFDDE0",
";X c #C0DDE0",
":X c #EFF2F2",
">X c #F2FCFD",
",X c #EBE4E3",
"<X c None",
/* pixels */
"<X<X<X<X<X<X<X<X<X<X<X<X<X<X<X<X<X<X<X<X<X<X<X<X<X<X<X<X<X<X<X<X<X<X<X<X<X<X<X<X<X<X<X<X<X<X<X<X<X<X<X<X<X<X<X<X<X<X<X<X<X<X<X<X",
"<X<X<X<X<X<X<X<X<X<X<X<X<X<X<X<X<X<X<X<X<X<X<X<X<X<X<X<X<X<X<X<X<X<X<X<X<X<X<X<X<X<X<X<X<X<X<X<X<X<X<X<X<X<X<X<X<X<X<X<X<X<X<X<X",
"<X<X<X<X<X<X<X<X<X<X<X<X<X<X<X<X<X<X<X<X<X<X<X<X<X<X<X<X<X<X<X<X<X<X<X<X<X<X<X<X<X<X<X<X<X<X<X<X<X<X<X<X<X<X<X<X<X<X<X<X<X<X<X<X",
"<X<X<X<X<X<X<X<X<X<X<X<X<X<X<X<X<X<X<X<X<X<X<X<X<X<X<X<X<X<X<X<X<X<X<X<X<X<X<X<X<X<X<X<X<X<X<X<X<X<X<X<X<X<X<X<X<X<X<X<X<X<X<X<X",
"<X<X<X<X<X<X<X<X<X<X<X<X<X<X<X<X<X<X<X<X<X<X<X<X<X<X<X<X<X<X<X<X<X<X<X<X<X<X<X<X<X<X<X<X<X<X<X<X<X<X<X<X<X<X<X<X<X<X<X<X<X<X<X<X",
"<X<X<X<X<X<X<X<X<X<X<X<X<X<X<X<X<X<X<X<X<X<X<X<X<X<X<X<X<X<X<X<X<X<X<X<X<X<X<X<X<X<X<X<X<X<X<X<X<X<X<X<X<X<X<X<X<X<X<X<X<X<X<X<X",
"<X<X<X<X<X<X<X<X<X<X<X<X<X<X<X<X<X<X<X<X<X<X<X<X<X<X<X<X<X<X<X<X<X<X<X<X<X<X<X<X<X<X<X<X<X<X<X<X<X<X<X<X<X<X<X<X<X<X<X<X<X<X<X<X",
"<X<X<X<X<X<X<X<X<X<X<X<X<X<X<X<X<X<X<X<X<X<X<X<X<X<X<X<X<X<X<X<X<X<X<X<X<X<X<X<X<X<X<X<X<X<X<X<X<X<X<X<X<X<X<X<X<X<X<X<X<X<X<X<X",
"<X<X<X<X<X<X<X<X<X<X<X<X<X<X<X<X<X<X<X<X<X<X<X<X<X<X<X<X<X<X<X<X<X<X<X<X<X<X<X<X<X<X<X<X<X<X<X<X<X<X<X<X<X<X<X<X<X<X<X<X<X<X<X<X",
"<X<X<X<X<X<X<X<X<X<X<X<X<X<X<X<X<X<X<X<X<X<X<X<X<X<X<X<X<X<X<X<X<X<X<X<X<X<X<X<X<X<X<X<X<X<X<X<X<X<X<X<X<X<X<X<X<X<X<X<X<X<X<X<X",
"<X<X<X<X<X<X<X<X<X<X<X<X<X<X<X<X<X<X<X<X<X<X<X<X<X<X<X<X<X<X<X<X<X<X<X<X<X<X<X<X<X<X<X<X<X<X<X<X<X<X<X<X<X<X<X<X<X<X<X<X<X<X<X<X",
"<X<X<X<X<X<X<X<X<X<X<X<X<X<X<X<X<X<X<X<X<X<X<X<X<X<X<X<X<X<X<X<X<X<X<X<X<X<X<X<X<X<X<X<X<X<X<X<X<X<X<X<X<X<X<X<X<X<X<X<X<X<X<X<X",
"<X<X<X<X<X<X<X<X<X<X<X<X<X<X<X<X<X<X<X<X<X<X<X<X<X<X<X<X<X<X<X<X<X<X<X<X<X<X<X<X<X<X<X<X<X<X<X<X<X<X<X<X<X<X<X<X<X<X<X<X<X<X<X<X",
"<X<X<X<X<X<X<X<X<X<X<X<X<X<X<X<X<X<X<X<X<X<X<X<X<X<X<X<X<X<X<X<X<X<X<X<X<X<X<X<X<X<X<X<X<X<X<X<X<X<X<X<X<X<X<X<X<X<X<X<X<X<X<X<X",
"<X<X<X<X<X<X<X<X<X<X<X<X<X<X<X<X<X<X<X<X<X<X<X<X<X<X<X<X<X<X<X<X<X<X<X<X<X<X<X<X<X<X<X<X<X<X<X<X<X<X<X<X<X<X<X<X<X<X<X<X<X<X<X<X",
"<X<X<X<X<X<X<X<X<X<X<X<X<X<X<X<X<X<X<X<X<X<X<X<X<X<X<X<X<X<X<X<X<X<X<X<X<X<X<X<X<X<X<X<X<X<X<X<X<X<X<X<X<X<X<X<X<X<X<X<X<X<X<X<X",
"<X<X<X<X<X<X<X<X<X<X<X<X<X<X<X<X<X<X<X<X<X<X<X<X<X<X<X<X<X<X<X<X<X<X<X<X<X<X<X<X<X<X<X<X<X<X<X<X<X<X<X<X<X<X<X<X<X<X<X<X<X<X<X<X",
"<X<X<X<X<X<X<X<X<X<X<X<X<X<X<X<X<X<X<X<X<X<X<X<X<X<X<X<X<X<X<X<X<X<X<X<X<X<X<X<X<X<X<X<X<X<X<X<X<X<X<X<X<X<X<X<X<X<X<X<X<X<X<X<X",
"<X<X<X<X<X<X<X<X<X<X<X<X<X<X<X<X<X<X<X<X<X<X<X<X<X<X<X<X<X<X<X<X<X<X<X<X<X<X<X<X<X<X<X<X<X<X<X<X<X<X<X<X<X<X<X<X<X<X<X<X<X<X<X<X",
"<X<X<X<X<X<X<X<X<X<X<X<X<X<X<X<X<X<X<X<X<X<X<X<X<X<X<X<X<X<X<X<X<X<X<X<X<X<X<X<X<X<X<X<X<X<X<X<X<X<X<X<X<X<X<X<X<X<X<X<X<X<X<X<X",
"<X<X<X<X<X<X<X<X<X<X<X<X<X<X<X<X<X<X<X<X<X<X<X<X<X<X<X<X<X<X<X<X<X<X<X<X<X<X<X<X<X<X<X<X<X<X<X<X<X<X<X<X<X<X<X<X<X<X<X<X<X<X<X<X",
"<X<X<X<X<X<X<X<X<X<X<X<X<X<X<X<X<X<X<X<X<X<X<X<X<X<X<X<X<X<X<X<X<X<X<X<X<X<X<X<X<X<X<X<X<X<X<X<X<X<X<X<X<X<X<X<X<X<X<X<X<X<X<X<X",
"<X<X<X<X<X<X<X<X<X<X<X<X<X<X<X<X<X<X<X<X<X<X<X<X<X<X<X<X<X<X<X<X<X<X<X<X<X<X<X<X<X<X<X<X<X<X<X<X<X<X<X<X<X<X<X<X<X<X<X<X<X<X<X<X",
"<X<X<X<X<X<X<X<X<X<X<X<X<X<X<X<X<X<X<X<X<X<X<X<X<X<X<X<X<X<X<X<X<X<X<X<X<X<X<X<X<X<X<X<X<X<X<X<X<X<X<X<X<X<X<X<X<X<X<X<X<X<X<X<X",
"<X<X<X<X<X<X<X<X<X<X<X<X<X<X<X<X<X<X<Xw 7 , : : : : : : : : : : : : : : : : : <X<X<X<X<X<X<X<X<X<X<X<X<X<X<X<X<X<X<X<X<X<X<X<X<X",
"<X<X<X<X<X<X<X<X<X<X<X<X<X<X<X<X<X<X<Xs g g f j j f f j j j j j j j f f g k j f <X<X<X<X<X<X<X<X<X<X<X<X<X<X<X<X<X<X<X<X<X<X<X<X",
"<X<X<X<X<X<X<X<X<X<X<X<X<X<X<X<X<X<Xg c X.%.;.>.>.;.;.;.;.*.;.;.;.;.;.;.;.>.>.O.l <X<X<X<X<X<X<X<X<X<X<X<X<X<X<X<X<X<X<X<X<X<X<X",
"<X<X<X<X<X<X<X<X<X<X<X<X<X<X<X<X> q x o.2.i.s.N.B.N.N.s.s.s.s.N.s.s.s.s.s.G.N.>.S , <X<X<X<X<X<X<X<X<X<X<X<X<X<X<X<X<X<X<X<X<X<X",
"<X<X<X<X<X<X<X<X<X<X<X<X<X<X<X<Xu x @.2.u.G.K.T.J.P.K.T.T.T.T.T.T.T.T.T.T.T.T.G.4.h 8 <X<X<X<X<X<X<X<X<X<X<X<X<X<X<X<X<X<X<X<X<X",
"<X<X<X<X<X<X<X<X<X<X<X<X<X<Xy g x o.6.a.G.G.G.J.J.J.I.`.'.`.`.`.`.`.`.`.`.@X`.I.5.) a h <X<X<X<X<X<X<X<X<X<X<X<X<X<X<X<X<X<X<X<X",
"<X<X<X<X<X<X<X<X<X<X<X<X<X4 q c o.q.a.B.J.J.G.J.G.J.U.}..X.X X X X X X X X.X XY.a.1.' k 0 <X<X<X<X<X<X<X<X<X<X<X<X<X<X<X<X<X<X<X",
"<X<X<X<X<X<X<X<X<X<X<X<X<X, q  .q.u.g.J.P.I.I.I.I.I.'.'. X.X.XXX.XXX.XXX.XXXXX|.E.d.%.c , <X<X<X<X<X<X<X<X<X<X<X<X<X<X<X<X<X<X<X",
"<X<X<X<X<X<X<X<X<X<X<X<X<X: q O.e.G.G.G.J.U.).}._.).'./.(.].@XoXXX X X.X.XoXoXoX|.Y.7.F > <X<X<X<X<X<X<X<X<X<X<X<X<X<X<X<X<X<X<X",
"<X<X<X<X<X<X<X<X<X<X<X<X<X: q O.f.K.K.J.I.). XXX X.XXX+X+X X X_.|. X X|.|.|.}.OXXX XM.G 6 <X<X<X<X<X<X<X<X<X<X<X<X<X<X<X<X<X<X<X",
"<X<X<X<X<X<X<X<X<X<X<X<X<X+ 7 O.f.P.E.U.`.}..X.X[.XX*X;X=X%Xv.x.~. XoX X}.F.x.M.{..XF.2.a p <X<X<X<X<X<X<X<X<X<X<X<X<X<X<X<X<X<X",
"<X<X<X<X<X<X<X<X<X<X<X<X<X+ , | i.H.R.`. X}. X_.(.+X=X>X:X&XL B b.XX@X@X~.K Z H ~..XD.e.' v d 9 <X<X<X<X<X<X<X<X<X<X<X<X<X<X<X<X",
"<X<X<X<X<X<X<X<X<X<X<X<X<X8 g +.i.H.).|..X.X.X[.(.+X=X:X,X$XX = b..X@XoX~.J   C M.XX`.a.&. .g 7 <X<X<X<X<X<X<X<X<X<X<X<X<X<X<X<X",
"<X<X<X<X<X<X<X<X<X<X<X<Xf x | :.s.P.`.}..XXXXXXX].XX%X&X$XP   r b..X@X@X~.J   C M.XX@XG.e.*.j , <X<X<X<X<X<X<X<X<X<X<X<X<X<X<X<X",
"<X<X<X<X<X<X<X<X<X<X<X0 k  .&.u.d.P.U.|.OXXXOX.XoXOXv.L X     A M. X@X@X~.H   Z M.XX].T.s.*.j : <X<X<X<X<X<X<X<X<X<X<X<X<X<X<X<X",
"<X<X<X<X<X<X<X<X<X<X<X9 x @.2.p.d.H.`.|.|.{.D.D.).F.,.B ; V J x.~..XoXoX{.x.H K v.Y.I.T.B.>.j : <X<X<X<X<X<X<X<X<X<X<X<X<X<X<X<X",
"<X<X<X<X<X<X<X<X<X<X<X9 z o.&.u.d.J.R. X_.C.4.4.4.8.c.n.n.m.^.~.|.XXoXoX X{.^.v.8.:.i.J.B.>.j : <X<X<X<X<X<X<X<X<X<X<X<X<X<X<X<X",
"<X<X<X<X<X<X<X<X<X<X<X0 z o.&.p.d.J.`..X}.V.@.a ~  .V.).oXXX X_.|.|.|. X|.XXXXD.5. .6.B.B.>.j : <X<X<X<X<X<X<X<X<X<X<X<X<X<X<X<X",
"<X<X<X<X<X<X<X<X<X<X<X0 z  .&.u.g.P.`..X}.D.7.%.) ^ ;.S.U.U.S.S.C.M.Z.A.C.S.S.C.7.7.V.P.B.>.j : <X<X<X<X<X<X<X<X<X<X<X<X<X<X<X<X",
"<X<X<X<X<X<X<X<X<X<X<X0 z o.&.u.d.P.`. X.X|.{.C.*.^ ` -.-.-.-.-.%.2.;.%.%...X.8.D.}.`.T.B.>.j : <X<X<X<X<X<X<X<X<X<X<X<X<X<X<X<X",
"<X<X<X<X<X<X<X<X<X<X<X0 z  .1.e.p.J.U.).OXoXoX{.c.$.' [ b b b M ] ) ( ( ` ` o.7.~.|.|.T.i.*.s : <X<X<X<X<X<X<X<X<X<X<X<X<X<X<X<X",
"<X<X<X<X<X<X<X<X<X<X4 0 x @.q.y.e.a.B.U.`. XoX|.).Z.0.T Y Y Y m b _ ! ~ o.5.C.Y.`.`.I.g.:...f , 1 <X<X<X<X<X<X<X<X<X<X<X<X<X<X<X",
"<X<X<X<X<X<X<X<X<X% 1 w k X.2.q.2.q.p.G.I.).|..X].OX#XE I I U T N ` / ( %.C.}.|.E.J.d.e.$.D s 5 2 <X<X<X<X<X<X<X<X<X<X<X<X<X<X<X",
"<X<X<X<X<X<X<X<X<X* & 5 f D X.1.1.2.w.p.G.U.).|.].oX#XQ R R Q N <.#.#.#.e.D.|.'.P.a.y.q.$.' s 9 3 o <X<X<X<X<X<X<X<X<X<X<X<X<X<X",
"<X<X<X<X<X<X<X<X<X$ $ & t f x ..1.w.w.w.a.V.I.R.`.U.Q.Q.9.9.9.k.j.s.s.d.N.I.U.I.d.e.w.y.&. .g 4 2 <X<X<X<X<X<X<X<X<X<X<X<X<X<X<X",
"<X<X<X<X<X<X<X<X<X$ o <X& 1 0 x X.1.2.1.w.d.G.J.G.G.G.H.H.H.H.J.J.J.J.W.J.J.J.d.e.&.1.&.$.D s 4 2 <X<X<X<X<X<X<X<X<X<X<X<X<X<X<X",
"<X<X<X<X<X<X<X<X<X$ o <Xo @ 1 u F 1.1.1.q.u.g.g.a.g.L.L.z.z.L.L.g.G.G.g.g.g.d.u.r.q.&.@.D l y 2 & <X<X<X<X<X<X<X<X<X<X<X<X<X<X<X",
"<X<X<X<X<X<X<X<X<X$ o o $ * & 3 - l | 2.t.t.u.t.t.y.y.e.y.y.e.t.y.y.y.y.u.y.y.e.t.q.@.} s y 3 $ $ $ <X<X<X<X<X<X<X<X<X<X<X<X<X<X",
"<X<X<X<X<X<X<X<X<X<X<X% O <X<X<X<X<XF 1.1.2.1.1.$.$.$.$.$.$.1.1.$.1.1.1.$.$.1.1.2.$.D s < # <X<X<X<X<X<X<X<X<X<X<X<X<X<X<X<X<X<X",
"<X<X<X<X<X<X<X<X<X<X<X<Xo $ o . <X. i F D D c D D D D D D c D D D c D c D D D D | D l t # * o <X<X<X<X<X<X<X<X<X<X<X<X<X<X<X<X<X",
"<X<X<X<X<X<X<X<X<X<X<X<X% % O o O - - e e e e e e e e e e e e e e e e e e e e e e e - - $ $ $ <X<X<X<X<X<X<X<X<X<X<X<X<X<X<X<X<X",
"<X<X<X<X<X<X<X<X<X<X<X<X<X<X<X<X<X<X<X<X<X<X<X<X<X<X<X<X<X<X<X<X<X<X<X<X<X<X<X<X<X<X<X<X<X<X<X<X<X<X<X<X<X<X<X<X<X<X<X<X<X<X<X<X",
"<X<X<X<X<X<X<X<X<X<X<X<X<X<X<X<X<X<X<X<X<X<X<X<X<X<X<X<X<X<X<X<X<X<X<X<X<X<X<X<X<X<X<X<X<X<X<X<X<X<X<X<X<X<X<X<X<X<X<X<X<X<X<X<X",
"<X<X<X<X<X<X<X<X<X<X<X<X<X<X<X<X<X<X<X<X<X<X<X<X<X<X<X<X<X<X<X<X<X<X<X<X<X<X<X<X<X<X<X<X<X<X<X<X<X<X<X<X<X<X<X<X<X<X<X<X<X<X<X<X",
"<X<X<X<X<X<X<X<X<X<X<X<X<X<X<X<X<X<X<X<X<X<X<X<X<X<X<X<X<X<X<X<X<X<X<X<X<X<X<X<X<X<X<X<X<X<X<X<X<X<X<X<X<X<X<X<X<X<X<X<X<X<X<X<X",
"<X<X<X<X<X<X<X<X<X<X<X<X<X<X<X<X<X<X<X<X<X<X<X<X<X<X<X<X<X<X<X<X<X<X<X<X<X<X<X<X<X<X<X<X<X<X<X<X<X<X<X<X<X<X<X<X<X<X<X<X<X<X<X<X",
"<X<X<X<X<X<X<X<X<X<X<X<X<X<X<X<X<X<X<X<X<X<X<X<X<X<X<X<X<X<X<X<X<X<X<X<X<X<X<X<X<X<X<X<X<X<X<X<X<X<X<X<X<X<X<X<X<X<X<X<X<X<X<X<X",
"<X<X<X<X<X<X<X<X<X<X<X<X<X<X<X<X<X<X<X<X<X<X<X<X<X<X<X<X<X<X<X<X<X<X<X<X<X<X<X<X<X<X<X<X<X<X<X<X<X<X<X<X<X<X<X<X<X<X<X<X<X<X<X<X",
"<X<X<X<X<X<X<X<X<X<X<X<X<X<X<X<X<X<X<X<X<X<X<X<X<X<X<X<X<X<X<X<X<X<X<X<X<X<X<X<X<X<X<X<X<X<X<X<X<X<X<X<X<X<X<X<X<X<X<X<X<X<X<X<X",
"<X<X<X<X<X<X<X<X<X<X<X<X<X<X<X<X<X<X<X<X<X<X<X<X<X<X<X<X<X<X<X<X<X<X<X<X<X<X<X<X<X<X<X<X<X<X<X<X<X<X<X<X<X<X<X<X<X<X<X<X<X<X<X<X"
};
