/* XPM */
static char *result[] = {
/* columns rows colors chars-per-pixel */
"60 60 5 1 ",
"  c #00D9D8",
". c #FFA400",
"X c #FFED00",
"o c #C35131",
"O c white",
/* pixels */
"      ................................................      ",
"      ................................................      ",
"      ................................................      ",
"      ................................................      ",
"      ................................................      ",
"      ................................................      ",
"............................................................",
"............................................................",
"............................................................",
"............................................................",
"............................................................",
"............................................................",
"............................................................",
"............................................................",
"......................XXXXXXXXXXXXXXXX......................",
"......................XXXXXXXXXXXXXXXX......................",
"......................XXXXXXXXXXXXXXXX......................",
"......................XXXXXXXXXXXXXXXX......................",
"......................XXXXXXXXXXXXXXXX......................",
"......................XXXXXXXXXXXXXXXX......................",
"......................XXXXXXXXXXXXXXXX......................",
"......................XXXXXXXXXXXXXXXX......................",
"..............XXXXXXXX................oooooooo..............",
"..............XXXXXXXX................oooooooo..............",
"..............XXXXXXXX................oooooooo..............",
"..............XXXXXXXX................oooooooo..............",
"..............XXXXXXXX................oooooooo..............",
"..............XXXXXXXX................oooooooo..............",
"..............XXXXXXXX................oooooooo..............",
"..............XXXXXXXX................oooooooo..............",
"..............XXXXXXXX................oooooooo..............",
"..............XXXXXXXX................oooooooo..............",
"..............XXXXXXXX................oooooooo..............",
"..............XXXXXXXX................oooooooo..............",
"..............XXXXXXXX................oooooooo..............",
"..............XXXXXXXX................oooooooo..............",
"..............XXXXXXXX................oooooooo..............",
"..............XXXXXXXX................oooooooo..............",
"......................oooooooooooooooo......................",
"......................oooooooooooooooo......................",
"......................oooooooooooooooo......................",
"......................oooooooooooooooo......................",
"......................oooooooooooooooo......................",
"......................oooooooooooooooo......................",
"......................oooooooooooooooo......................",
"......................oooooooooooooooo......................",
"............................................................",
"............................................................",
"............................................................",
"............................................................",
"............................................................",
"............................................................",
"............................................................",
"............................................................",
"      ................................................      ",
"      ................................................      ",
"      ................................................      ",
"      ................................................      ",
"      ................................................      ",
"      ................................................      "
};
