/* XPM */
static char *result[] = {
/* columns rows colors chars-per-pixel */
"60 60 221 2 ",
"   c black",
".  c #5C4D3B",
"X  c #6C5B45",
"o  c #76654C",
"O  c #8D0000",
"+  c #9C0000",
"@  c #960000",
"#  c #A40000",
"$  c #AA0100",
"%  c #AC0B01",
"&  c #A40F08",
"*  c #B40000",
"=  c #BC0100",
"-  c #BC0C01",
";  c #B10F02",
":  c #A5160B",
">  c #AA1B0E",
",  c #AA150A",
"<  c #BB1301",
"1  c #BD1B03",
"2  c #BB1C0C",
"3  c #B51909",
"4  c #AA1D10",
"5  c #A91A12",
"6  c #B91F10",
"7  c #BC240D",
"8  c #B4250D",
"9  c #AC2112",
"0  c #AC2D1C",
"q  c #A52011",
"w  c #B32211",
"e  c #BC2511",
"r  c #BD2B13",
"t  c #BB2E1A",
"y  c #AE341E",
"u  c #AE3217",
"i  c #BD341C",
"p  c #B93B1E",
"a  c #A72D2A",
"s  c #A82F2B",
"d  c #AE3623",
"f  c #AF3C25",
"g  c #AB3B2C",
"h  c #BD3C24",
"j  c #B73A26",
"k  c #A93C31",
"l  c #C00000",
"z  c #CD0000",
"x  c #C30D00",
"c  c #D30100",
"v  c #DC0000",
"b  c #D90903",
"n  c #C51907",
"m  c #DC150A",
"M  c #DD1D10",
"N  c #E20000",
"B  c #C7210B",
"V  c #C52513",
"C  c #C22B14",
"Z  c #CA2B17",
"A  c #DD2314",
"S  c #DD2E1B",
"D  c #D32917",
"F  c #CB351E",
"G  c #C2321D",
"H  c #DD321E",
"J  c #D6331F",
"K  c #CF3B24",
"L  c #DD3521",
"P  c #D43B24",
"I  c #DD3C25",
"U  c #DE3F28",
"Y  c #D53721",
"T  c #E13B25",
"R  c #E03521",
"E  c #B14B2E",
"W  c #BD4A2C",
"Q  c #BB4428",
"!  c #AD513B",
"~  c #B55C3C",
"^  c #B85536",
"/  c #AD4932",
"(  c #BC663F",
")  c #C4472A",
"_  c #DE4129",
"`  c #DE482E",
"'  c #DA4F32",
"]  c #C15B3C",
"[  c #CA5B39",
"{  c #C35636",
"}  c #DC5234",
"|  c #C24F37",
" . c #E1432A",
".. c #E15939",
"X. c #C6623D",
"o. c #AD5E44",
"O. c #B35A41",
"+. c #897557",
"@. c #8C7659",
"#. c #AC6348",
"$. c #B96846",
"%. c #BB744A",
"&. c #BF794D",
"*. c #B46C51",
"=. c #B87857",
"-. c #AE7B5B",
";. c #C15A40",
":. c #C26541",
">. c #C26B44",
",. c #CA6642",
"<. c #D56944",
"1. c #C37349",
"2. c #C7774C",
"3. c #C47E51",
"4. c #C57C5B",
"5. c #C37354",
"6. c #E26B46",
"7. c #E3754C",
"8. c #E37B51",
"9. c #E46A57",
"0. c #E87F65",
"q. c #BF8556",
"w. c #9A8462",
"e. c #B28262",
"r. c #B88A67",
"t. c #AB926D",
"y. c #BB926D",
"u. c #BD9C74",
"i. c #B59B74",
"p. c #A48D69",
"a. c #BDA47A",
"s. c #BDA67C",
"d. c #C48455",
"f. c #C6805E",
"g. c #C48C5B",
"h. c #CB8A59",
"j. c #CD8153",
"k. c #DA8A5B",
"l. c #C5915E",
"z. c #E58659",
"x. c #E68759",
"c. c #C88763",
"v. c #C69561",
"b. c #C79B65",
"n. c #C99D66",
"m. c #C89868",
"M. c #D2956E",
"N. c #D5986B",
"B. c #C29A73",
"V. c #DA9C73",
"C. c #D59B73",
"Z. c #D28D67",
"A. c #E69563",
"S. c #E79A66",
"D. c #EC9171",
"F. c #CBA36B",
"G. c #CCA86F",
"H. c #D7A26B",
"J. c #C5A97F",
"K. c #C7A574",
"L. c #D8A777",
"P. c #D4B275",
"I. c #E9A36D",
"U. c #E1A176",
"Y. c #EAAA71",
"T. c #E4A579",
"R. c #E8A776",
"E. c #F1AA7E",
"W. c #EAB77A",
"Q. c #C3AC81",
"!. c #C9AE82",
"~. c #C9B386",
"^. c #D2B385",
"/. c #D7B788",
"(. c #D4B98A",
"). c #DCBD8D",
"_. c #D9B687",
"`. c #E1AD80",
"'. c #E9BB89",
"]. c #F4B98A",
"[. c #F1AD83",
"{. c #DEC788",
"}. c #DFC290",
"|. c #E5C584",
" X c #ECC584",
".X c #E3CD8A",
"XX c #EAC58B",
"oX c #F1CE8A",
"OX c #F8C18F",
"+X c #E5D08B",
"@X c #F2D48E",
"#X c #E4C391",
"$X c #ECCA96",
"%X c #ECCC98",
"&X c #E8C794",
"*X c #F5C391",
"=X c #FDCA96",
"-X c #FCCD99",
";X c #F6C996",
":X c #ECD991",
">X c #F5DD95",
",X c #F5D39C",
"<X c #FCD59E",
"1X c #F4D992",
"2X c #EEE69A",
"3X c #EFE89C",
"4X c #F6E59A",
"5X c #F6EA9E",
"6X c #F8E89C",
"7X c #FCD7A0",
"8X c #FFDBA3",
"9X c #FFE0A7",
"0X c #F5EFA1",
"qX c #FFE3A8",
"wX c #F5F4A4",
"eX c #FAF4A4",
"rX c #FCFEAC",
"tX c #F9F8A7",
"yX c #FFFFB3",
"uX c #FFFFBA",
"iX c None",
/* pixels */
"iXiXiXiXiXiXiXiXiXiXiXiXiXiXiXiXiXiXiXiXiXiXiXiXiXiXiXiXiXiXiXiXiXiXiXiXiXiXiXiXiXiXiXiXiXiXiXiXiXiXiXiXiXiXiXiXiXiXiXiX",
"iXiXiXiXiXiXiXiXiXiXiXiXiXiXiXiXiXiXiXiXiXiXiXiXiXiXiXiXiXiXiXiXiXiXiXiXiXiXiXiXiXiXiXiXiXiXiXiXiXiXiXiXiXiXiXiXiXiXiXiX",
"iXiXiXiXiXiXiXiXiXiXiXiXiXiXiXiXiXiXiXiXiXiXiXiXiXiXiXiXiXiXiXiXiXiXiXiXiXiXiXiXiXiXiXiXiXiXiXiXiXiXiXiXiXiXiXiXiXiXiXiX",
"iXiXiXiXiXiXiXiXiXiXiXiXiXiXiXiXiXiXiXiXiXiX: : 4 q # # # # + # + # # # $ $ iXiXiXiXiXiXiXiXiXiXiXiXiXiXiXiXiXiXiXiXiXiX",
"iXiXiXiXiXiXiXiXiXiXiXiXiXiXiXiXiXiXiXiXiXiX4 V B 2 G { :.:.>.:.>.>.:.] ) y iXiXiXiXiXiXiXiXiXiXiXiXiXiXiXiXiXiXiXiXiXiX",
"iXiXiXiXiXiXiXiXiXiXiXiXiXiXiXiXiXiX+ iX: t K L m c <.N.|..X|.|.|.|.W.H.2.E y $ iX# iXiXiXiXiXiXiXiXiXiXiXiXiXiXiXiXiXiX",
"iXiXiXiXiXiXiXiXiXiXiXiXiXiXiXiXiX# # # : t K T v v 8. X0XtXwXwXtXtX3X{.b.%.E % $ $ 4 iXiXiXiXiXiXiXiXiXiXiXiXiXiXiXiXiX",
"iXiXiXiXiXiXiXiXiXiXiXiXiXiXiXiX%.d.k.[ C D I T N N x.@XyXuXyXyXyXrXrX2X{.F.d.^ G Z 6 , iXiXiXiXiXiXiXiXiXiXiXiXiXiXiXiX",
"iXiXiXiXiXiXiXiXiXiXiXiXiXiXO f G..XoXx.J v L  .v v x.1XyXyXyXrXrXrXrXwX3X+XP.g.:.) 1 * > iXiXiXiXiXiXiXiXiXiXiXiXiXiXiX",
"iXiXiXiXiXiXiXiXiXiXiXiXiXiX# 1.+XtX6XI.I v H U v v 8.oXtXyXrXrXrXrXrXrXrX3X{.n.1.^ < = 2 > iXiXiXiXiXiXiXiXiXiXiXiXiXiX",
"iXiXiXiXiXiXiXiXiXiXiXiXiX$.3. XeXyXeXY.I v H _ M M 6.Y.@X6XtXrXrXrXrXyXyXeX|.Z.X.) 1 x V 6 > iXiXiXiXiXiXiXiXiXiXiXiXiX",
"iXiXiXiXiXiXiXiXiXiXiXO # v.{.eXyXrX4XI.I v H _ L L } 6.x. X5XyXyXyXyXyXyX0XW.<.B G 7 7 C w w 4 : iXiXiXiXiXiXiXiXiXiXiX",
"iXiXiXiXiXiXiXiXiXiXiX# >. XeXyXyXrX4XS.I v L U _ _ H v v x.:XtXrXeXtXrXtX>XI._ c n r r r r B 7 > iXiXiXiXiXiXiXiXiXiXiX",
"iXiXiXiXiXiXiXiXiXiX%.v. X6XrXyXuXyX4XI.L v L _ _ _ H v v 6.Y.oXoX X XoXoXW.x.L c n e 7 r C n x * , iXiXiXiXiXiXiXiXiXiX",
"iXiXiXiXiXiXiXiX+ $ v..XwXrXrXrXyXrX4XI.L v H _ _ _ U H L ..6.8.8.8.8.8.8.6.} _ J C 8 r r r 1 = * , > 4 iXiXiXiXiXiXiXiX",
"iXiXiXiXiXiXiXiX+ * Y.0XyXyXrXtXtXwX@XA.U v L _ _ _ U _ U H b v v v v v v v S _ _ F C r 7 t ) ) ) F 3 $ iXiXiXiXiXiXiXiX",
"iXiXiXiXiXiXiXiX@ $ Y.0XuXuXyXtX>XW.S.7.U A I U _ U _ _ _ L A v v v v v v M H _ _ Y F Z 7 Q X.3.1.) $ # iXiXiXiXiXiXiXiX",
"iXiXiXiXiXiXiXiX+ $ G.3XyXyXyXeX'.7.M R _ U U _ U _ U U _ U U U U _ _ _ U U _ U U _ U Z x W 3.l.g.X.$ # iXiXiXiXiXiXiXiX",
"iXiXiXiXiXiXiXiX$ = k.XX4X6X6XoXA.A v v _ _ _ U L H H H H H S H H U _ _ _ U U _  . ._ D - W d.b.b.3.^ E iXiXiXiXiXiXiXiX",
"iXiXiXiXiXiXq * = z } x.I.Y.I.A.7.L v H _ _ _ I A v v v v v v v m L _ _ U _ _ U  . ._ D x W &.b.b.v.q.$.E $ iXiXiXiXiXiX",
"iXiXiXiXiX& : Z P  . ._ I L I I U U _ _ _ _ _ _ _ ` ` ` _ ` ` _ _ _ U U _ _ _ _  .U U Z x Q &.b.F.G.b.d.{ $ $ iXiXiXiXiX",
"iXiXiXiXiX+ # ' A.Y.A...v v v v A U ` _ _ A v U 8.S.Y.Y.Y.Y.Y.I.z...v M I  . ._ I I K B x W 2.b.G.F.b.h.{ $ # iXiXiXiXiX",
"iXiXiXiXiXiX+ ,. X4XoXz.b v H L L _ _  ._ v v L S.1X0X5X4X4X0X4XW...v v T  . . .P F G 1 = W d.b.G.F.b.3.) # iXiXiXiXiXiX",
"iXiXiXiXiX# d H.4XrX6XA.m v L _ _ _ U L _ I L z. XtXyXyXrXrXyXrX@XS.` J _ I I _ Y C 7 < = W 1.l.n.F.b.d.] 0 , iXiXiXiXiX",
"iXiXiXiX~ g.G.:XrXyX6XA.m v T  . . .T M  .8.Y.oX0XrXyXyXyXyXyXyXtX1XW.k.' z D F F t 7 1 1 h { 1.d.b.F.b.d.%.~ d iXiXiXiX",
"iXiXiX# $.P.4XrXyXrX>XA.m v T  . . .R N  .I.>XrXrXyXyXyXyXyXyXrXrXyX6XW.] = l t C r r r r r r h :.g.b.F.F.l.$.E $ iXiXiX",
"iXiXiX+ <.@XrXuXrX6X'.z.A c J Y J Y D c _ H.@XwXwX4X2X4X2X4X2X4X0XwX2XP.^ * * e 7 r r r r 7 = = W 1.l.b.n.l.1.) $ iXiXiX",
"iXiXiX# 2.:XrXyX6XY.x.6.L b x l l l l l x >.n.P.P.F.F.F.F.G.F.F.G.P.F.2.8 $ = e r r r t r 7 - - p { >.1.1.X.{ G $ iXiXiX",
"iXiXiX# >.+XrXeXW...N T I F 3 # $ % $ $ % > 0 y y d d d d y y y d d 0 9 % % 8 r r r r r r r r r r i i i G i t 7 : iXiXiX",
"iXiXiX# ] P.:X Xk.c z c P | O.o.#.o.o.o.o.! k a a s s s s s a s s s k ! o.~ j 3 < 7 r r r C 7 7 < = = = = = < 2 4 iXiXiX",
"iXiXiX# ) 2.Z.h.] = * = j $.r.y.y.r.r.r.e.e.e.-.-.e.-.-.e.-.q.-.-.r.r.y.y.q.! * * < t C t 7 1 = = = = = 1 7 e 2 4 iXiXiX",
"iXiXiX4 2 - = = ; 4 # # d =.a.Q.Q.J.J.Q.Q.Q.!.Q.J.!.Q.!.!.Q.Q.Q.J.J.Q.Q.Q.u.*.y $ 7 r r e r t i i i i i C e e e 5 iXiXiX",
"iXiXiX9 - = * = * > % $ d =.K.Q.Q.s.!.(.}.#X}.}.}.}.}.}.}.}.}.}.(.Q.J.Q.J.i.r.*.O.g 2 = = t { X.%.>.$.{ i - = 2 4 iXiXiX",
"iXiXiX4 2 2 2 2 7 e < = h =.u.Q.a.i.!.&X7X7X,X,X,X,X7X,X,X7X7X,X).Q.i.i.a.a.K.u.e.! $ * * i >.g.v.v.l.1.Q = = 2 4 iXiXiX",
"iXiXiX5 e e r r r r 7 = h 5.B.Q.Q.Q.).%X8XqX8X8X8X8X8X8X8X9X9X8X%X_.Q.!.Q.!.~.Q.c.o.$ $ r ] d.b.F.G.b.g.X.p V w , iXiXiX",
"iXiXiX> B V r C r r 1 l h =.u.~.(.#X%X7X8X8X8X8X8XqX8X8X9X8X8X8X,X$X).#X&X).(.s.r./ # p %.g.l.b.F.F.b.l.d.>.{ i # iXiXiX",
"iXiXiX> V V r r C r 1 = h *.u.~.&X7X8X8X8X7X8X7X8X8X7X8X8X7X8X8X7X7X7X8X7X%X(.s.-.g # ( g.F.F.l.b.b.b.b.b.g.2.h $ iXiXiX",
"iXiXiX> > w e C C r 1 = K *.y.^.&X8X8X8X8X8X8X8X8X8X8X8X8X8X8X8X8X8X9X8X8X7X&X(.y.*.! ( q.l.l.F.b.b.b.F.G.b.3.Q $ iXiXiX",
"iXiXiXiXiX9 w V C r 7 = K ;.c.L.&X8X9XqX8X9X8X8X8X8X7X7X8X8X8X9X9X8X8X8X8X8X,X$X_.B.-.#.~ ( q.F.F.F.F.G.G.n.j.) # iXiXiX",
"iXiXiXiXiX> > V 7 r 1 - j O.4.C.'.7X9X8X8X8X8X7X8X7X8X8X8X7X8X8X8X8X8X8X8X8X8X8X%X(.i.-.f u %.l.F.b.b.n.F.v.2.Q $ iXiXiX",
"iXiXiXiXiXiX5 4 8 e n = G ] 5.V.'.8X7X}.(.).7X8X8X8X8X8X8X7X).(.#X<X8X8X8X8X8X8X<X%X(.B.*.! $.&.d.d.d.h.h.q.$.f $ iXiXiX",
"iXiXiXiXiXiXiXiXw e n l K ~ 4.V.*X8X$Xi.@.i.$X9X8X8X8X8X8X).t.@.i.%X9X8X8X8X8X8X8X<X%X/.B.-.#.E Q ^ ^ [ [ ^ E iXiXiXiXiX",
"iXiXiXiXiXiXiXiX5 > % # d O.4.V.;X8X}.+.  @.#X9XqX8X8XqX8X(.o   w.&X9X9X8X7X8X8X9X9X<X%X(.u.-.f $ $ $ $ $ $ iXiXiXiXiXiX",
"iXiXiXiXiXiXiXiXiX> # # d O.4.L.=X8X).o   o ).8XqX8X8XqX8X^..   +.#X9X8X8X8X7X8X8X9X8X,X%X_.M.$.d 5 # # # $ iXiXiXiXiXiX",
"iXiXiXiXiXiXiXiXiXiXiXiXiX5.4.T.=X8X).o   +.).8XqXqXqXqX8X(.X   @.&X9X8X8X7X8X8X8X8X8X8X8X%X[.Z.5.iXiXiXiXiXiXiXiXiXiXiX",
"iXiXiXiXiXiXiXiXiXiXiXiXiXiXc.[.=X8X&Xp.X t.$X8X8X-X-X8X8X).@.o t.$X9X9X8X7X8X7X7X8X8X9X9X7X*XV.c.iXiXiXiXiXiXiXiXiXiXiX",
"iXiXiXiXiXiXiXiXiXiXiXiXiXiX4.T.;X8X,X(.Q./.,X7X].[.[.].8X%X^.Q._.,X8X8X8X8X7X8X8X8X8X8X8X7X*XV.c.iXiXiXiXiXiXiXiXiXiXiX",
"iXiXiXiXiXiXiXiXiXiXiXiXiXiX4.T.*X7X8X7X7X8X8X-X[.9.9.[.8X8X7X7X<X8X8X8X7X8X8X8X8X7X8X8X9X<X].N.4.iXiXiXiXiXiXiXiXiXiXiX",
"iXiXiXiXiXiXiXiXiXiXiXiXiXiXf.R.=X7XqXqXqX9X9X<X[.z.D.].7X8XqXqX9X8X7X8X8X8X7X8X8X8X7X8X9X<X].U.4.iXiXiXiXiXiXiXiXiXiXiX",
"iXiXiXiXiXiXiXiXiXiXiXiXiXiXf.[.-X8XqX9X8X9X9X<X=X].].;X8X8X8X8X8X8X8X8X7X8X7X8X8X8X8X8X9X8X=XR.4.iXiXiXiXiXiXiXiXiXiXiX",
"iXiXiXiXiXiXiXiXiXiXiXiXiXiXf.T.*X<X9X8X<X8X8X8X8X8X8X8X8X8X8X8X8X8X8X8X7X8X8X8X8X8X8X8X8X,X].C.4.iXiXiXiXiXiXiXiXiXiXiX",
"iXiXiXiXiXiXiXiXiXiXiXiXiXiXf.C.`.*X<X8X8X9X8X8X9XqX9X8X8X8X8X8X8X8X8X8X8X8X8X8X8X8X8X8X7X'.L.M.iXiXiXiXiXiXiXiXiXiXiXiX",
"iXiXiXiXiXiXiXiXiXiXiXiXiXiXiXiXM.L.=X7X9XqX9X9X8X9X9X9X9X8X9X8X9X8X8X8X8X8X9X8X9X9X8X<XOXM.M.iXiXiXiXiXiXiXiXiXiXiXiXiX",
"iXiXiXiXiXiXiXiXiXiXiXiXiXiXiXiXiX4.V.XX<X8X<X<X<X<X7X<X7X<X<X<X7X7X7X<X7X7X7X7X7X8X,X'.M.4.iXiXiXiXiXiXiXiXiXiXiXiXiXiX",
"iXiXiXiXiXiXiXiXiXiXiXiXiXiXiXiXiXiXM.`.*X=X;XOX*X*X*X*X*X*XOXOX*X*X*X*X*X*X*X*X;X=X'.L.Z.iXiXiXiXiXiXiXiXiXiXiXiXiXiXiX",
"iXiXiXiXiXiXiXiXiXiXiXiXiXiXiXiXiXiXiXM.T.E.T.U.U.U.U.U.U.U.U.T.U.U.U.U.U.U.T.V.T.[.V.M.iXiXiXiXiXiXiXiXiXiXiXiXiXiXiXiX",
"iXiXiXiXiXiXiXiXiXiXiXiXiXiXiXiXiXiXiXf.f.f.f.f.f.f.f.f.f.f.f.f.4.c.4.4.c.4.c.4.f.f.f.iXiXiXiXiXiXiXiXiXiXiXiXiXiXiXiXiX",
"iXiXiXiXiXiXiXiXiXiXiXiXiXiXiXiXiXiXiXiXiXiXiXiXiXiXiXiXiXiXiXiXiXiXiXiXiXiXiXiXiXiXiXiXiXiXiXiXiXiXiXiXiXiXiXiXiXiXiXiX",
"iXiXiXiXiXiXiXiXiXiXiXiXiXiXiXiXiXiXiXiXiXiXiXiXiXiXiXiXiXiXiXiXiXiXiXiXiXiXiXiXiXiXiXiXiXiXiXiXiXiXiXiXiXiXiXiXiXiXiXiX",
"iXiXiXiXiXiXiXiXiXiXiXiXiXiXiXiXiXiXiXiXiXiXiXiXiXiXiXiXiXiXiXiXiXiXiXiXiXiXiXiXiXiXiXiXiXiXiXiXiXiXiXiXiXiXiXiXiXiXiXiX"
};
