/* XPM */
static char *result[] = {
/* columns rows colors chars-per-pixel */
"64 64 209 2 ",
"   c black",
".  c #0D0800",
"X  c #001500",
"o  c #101019",
"O  c #330000",
"+  c #0C2507",
"@  c #151829",
"#  c #121321",
"$  c #01003B",
"%  c #0E0437",
"&  c #100B3C",
"*  c #181D36",
"=  c #122728",
"-  c #1B223C",
";  c #204433",
":  c #030042",
">  c #010049",
",  c #0F024A",
"<  c #0F084A",
"1  c #0F0447",
"2  c #11004B",
"3  c #130E4B",
"4  c #171A45",
"5  c #00005D",
"6  c #140053",
"7  c #151351",
"8  c #161954",
"9  c #1B1759",
"0  c #1B2A45",
"q  c #1D2454",
"w  c #232F52",
"e  c #000267",
"r  c #0D007B",
"t  c #160579",
"y  c #1F2761",
"u  c #1F2E6B",
"i  c #063A73",
"p  c #212B64",
"a  c #242C6B",
"s  c #222466",
"d  c #243566",
"f  c #283B66",
"g  c #25336C",
"h  c #2D3C6D",
"j  c #263869",
"k  c #293475",
"l  c #2C3A74",
"z  c #2E3D7C",
"x  c #2E367A",
"c  c #482B7E",
"v  c #7F3D6D",
"b  c #67387D",
"n  c #73276C",
"m  c #254350",
"M  c #005C62",
"N  c #1E5D62",
"B  c #2E4C6E",
"V  c #34586F",
"C  c #2E4271",
"Z  c #2D497E",
"A  c #32457E",
"S  c #304170",
"D  c #32537C",
"F  c #0C6466",
"G  c #3D6B78",
"H  c #3E7576",
"J  c #6A5C50",
"K  c #6F6E6C",
"L  c #A30431",
"P  c #A42A3B",
"I  c #960A47",
"U  c #8E315B",
"Y  c #942D54",
"T  c #9C4255",
"R  c #8E5C79",
"E  c #8E627C",
"W  c #270281",
"Q  c #291C83",
"!  c #241E84",
"~  c #162D87",
"^  c #292885",
"/  c #2E3387",
"(  c #2F3F81",
")  c #273F89",
"_  c #333689",
"`  c #382683",
"'  c #523281",
"]  c #643F80",
"[  c #1C4790",
"{  c #26448C",
"}  c #2C438A",
"|  c #324382",
" . c #364A83",
".. c #34438A",
"X. c #38478D",
"o. c #364B8C",
"O. c #3A4C8F",
"+. c #375888",
"@. c #374B90",
"#. c #3B4F91",
"$. c #3D5394",
"%. c #3F5299",
"&. c #3A5A95",
"*. c #3A6489",
"=. c #3C6598",
"-. c #247B82",
";. c #3C6DA0",
":. c #366BA0",
">. c #41569C",
",. c #415A9D",
"<. c #554A87",
"1. c #416C89",
"2. c #49628D",
"3. c #457787",
"4. c #436697",
"5. c #43689A",
"6. c #4A7B9C",
"7. c #467797",
"8. c #516A9A",
"9. c #626C80",
"0. c #776A89",
"q. c #445DA2",
"w. c #475EA9",
"e. c #4462A3",
"r. c #456BA4",
"t. c #4662A9",
"y. c #476AA9",
"u. c #486EAA",
"i. c #4862AA",
"p. c #4475A3",
"a. c #4674AA",
"s. c #4973AD",
"d. c #467DAC",
"f. c #497BAC",
"g. c #4879A7",
"h. c #4975B0",
"j. c #427AB3",
"k. c #4B7AB1",
"l. c #4577B1",
"z. c #886783",
"x. c #897F89",
"c. c #3F8AB7",
"v. c #3D88A3",
"b. c #498386",
"n. c #4B868B",
"m. c #4A8095",
"M. c #4D869B",
"N. c #50879F",
"B. c #53959B",
"V. c #7A889C",
"C. c #4E83A2",
"Z. c #4B83AE",
"A. c #4284A1",
"S. c #528BA3",
"D. c #5487A9",
"F. c #5595A4",
"G. c #599BA4",
"H. c #5A9BAB",
"J. c #5596AA",
"K. c #4B85B2",
"L. c #4389B6",
"P. c #4D8AB4",
"I. c #4486B4",
"U. c #518FB3",
"Y. c #4F91B6",
"T. c #5293B4",
"R. c #579BB6",
"E. c #5394B9",
"W. c #589DBB",
"Q. c #5B9EB1",
"!. c #6284A9",
"~. c #6D97A8",
"^. c #5DA4AE",
"/. c #5DA5AA",
"(. c #5DA4B6",
"). c #5BADB5",
"_. c #5DA6B9",
"`. c #58AAB8",
"'. c #55B1B7",
"]. c #5DB6BB",
"[. c #5AB1B8",
"{. c #49AAB2",
"}. c #60A9AF",
"|. c #60A7AF",
" X c #74A8AE",
".X c #62ABB4",
"XX c #63ADBA",
"oX c #67A1B3",
"OX c #65B1B7",
"+X c #65B3B9",
"@X c #68B6BC",
"#X c #69B9BE",
"$X c #75B8BE",
"%X c #6BBCC1",
"&X c #8F9D9F",
"*X c #928785",
"=X c #BBB2AD",
"-X c #8DBEC4",
";X c #B3BEC4",
":X c #9AC6CA",
">X c #8AC3C7",
",X c #AAD0D4",
"<X c #D0CECD",
"1X c #D6DEDF",
"2X c #E4DEDD",
"3X c #D2E8EA",
"4X c #FDFDFD",
"5X c #ECF7F9",
"6X c None",
/* pixels */
"6X6X6X6X6X6X6X6X6X6X6X6X6X6X6X6X6X6X6X6X6X6X6X6X6X6X6X6X6X6X6X6X6X6X6X6X6X6X6X6X6X6X6X6X6X6X6X6X6X6X6X6X6X6X6X6X6X6X6X6X6X6X6X6X",
"6X6X6X6X6X6X6X6X6X6X6X6X6X6X6X6X6X6X6X6X6X6X6X6X6X6X6X6X6X6X6X6X6X6X6X6X6X6X6X6X6X6X6X6X6X6X6X6X6X6X6X6X6X6X6X6X6X6X6X6X6X6X6X6X",
"6X6X6X6X6X6X6X6X6X6X6X6X6X6X6X6X6X6X6X6X6X6X6X6X6X6X6X6X6X6X6X6X6X6X6X6X6X6X6X6X6X6X6X6X6X6X6X6X6X6X6X6X6X6X6X6X6X6X6X6X6X6X6X6X",
"6X6X6X6X6X6X6X6X6X6X6X6X6X6X6X6X6X6X6X6X6X6X6X6X6X6X6X6X6X6X6X6X6X6X6X6X6X6X6X6X6X6X6X6X6X6X6X6X6X6X6X6X6X6X6X6X6X6X6X6X6X6X6X6X",
"6X6X6X6X6X6X6X6X6X6X6X6X6X6X6X6X6X6X6X6X6X6X6X6X6X6X6X6X6X6X6X6X6X6X6X6X6X6X6X6X6X6X6X6X6X6X6X6X6X6X6X6X6X6X6X6X6X6X6X6X6X6X6X6X",
"6X6X6X6X6X6X6X6X6X6X6X6X6X6X6X6X6X6X6X6X6X6X6X6X6X6X6X6X6X6X6X6X6X6X6X6X6X6X6X6X6X6X6X6X6X6X6X6X6X6X6X6X6X6X6X6X6X6X6X6X6X6X6X6X",
"6X6X6X6X6X6X6X6X6X6X6X6X6X6X6X6X6X6X6X6X6X6X6X6X6X6X6X6X6X6X6X6X6X6X6X6X6X6X6X6X6X6X6X6X6X6X6X6X6X6X6X6X6X6X6X6X6X6X6X6X6X6X6X6X",
"6X6X6X6X6X6X6X6X6X6X6X6X6X6X6X6X6X6X6X6X6X6X6X6X6X6X6X6X6X6X6X6X6X6X6X6X6X6X6X6X6X6X6X6X6X6X6X6X6X6X6X6X6X6X6X6X6X6X6X6X6X6X6X6X",
"6X6X6X6X6X6X6X6X6X6X6X6X6X6X6X6X6X6X6X6X6X6X6X6X6X6X6X6X6X6X6X6X6X6X6X6X6X6X6X6X6X6X6X6X6X6X6X6X6X6X6X6X6X6X6X6X6X6X6X6X6X6X6X6X",
"6X6X6X6X6X6X6X6X6X6X6X6X6X6X6X6X6X6X6X6X6X6X6X6X6X6X6X6X6X6X6X6X6X6X6X6X6X6X6X6X6X6X6X6X6X6X6X6X6X6X6X6X6X6X6X6X6X6X6X6X6X6X6X6X",
"6X6X6X6X6X6X6X6X6X6X6X6X6X6X6X6X6X6X6X6X6X6X6X6X6X6X6X6X6X6X6X6X6X6X6X6X6X6X6X6X6X6X6X6X6X6X6X6X6X6X6X6X6X6X6X6X6X6X6X6X6X6X6X6X",
"6X6X6X6X6X6X6X6X6X6X6X6X6X6X6X6X6X6X6X6X6X6X6X6X6X6X6X6X6X6X6X6X6X6X6X6X6X6X6X6X6X6X6X6X6X6X6X6X6X6X6X6X6X6X6X6X6X6X6X6X6X6X6X6X",
"6X6X6X6X6X6X6X6X6X6X6X6X6X6X6X6X6X6X6X6X6X6X6X6X6X6X6X6X6X6X6X6X6X6X6X6X6X6X6X6X6X6X6X6X6X6X6X6X6X6X6X6X6X6X6X6X6X6X6X6X6X6X6X6X",
"6X6X6X6X6X6X6X6X6X6X6X6X6X6X6X6X6X6X6X6X6X6X6X6X6X6X6X6X6X6X6X6X6X6X6X6X6X6X6X6X6X6X6X6X6X6X6X6X6X6X6X6X6X6X6X6X6X6X6X6X6X6X6X6X",
"6X6X6X6X6X6X6X6X6X6X6X6X6X6X6X6X6X6X6X6X6X6X6X6X6X6X6X6X6X6X6X6X6X6X6X6X6X6X6X6X6X6X6X6X6X6X6X6X6X6X6X6X6X6X6X6X6X6X6X6X6X6X6X6X",
"6X6X6X6X6X6X6X6X6X6X6X6X6X6X6X6X6X6X6X6X6X6X6X6X6X6X6X6X6X6X6X6X6X6X6X6X6X6X6X6X6X6X6X6X6X6X6X6X6X6X6X6X6X6X6X6X6X6X6X6X6X6X6X6X",
"6X6X6X6X6X6X6X6X6X6X6X6X6X6X6X6X6X6X6X6X6X6X6X6X6X6X6X6X6X6X6X6X6X6X6X6X6X6X6X6X6X6X6X6X6X6X6X6X6X6X6X6X6X6X6X6X6X6X6X6X6X6X6X6X",
"6X6X6X6X6X6X6X6X6X6X6X6X6X6X6X6X6X6X6X6X6X6X6X6X6X6X6X6X6X6X6X6X6X6X6X6X6X6X6X6X6X6X6X6X6X6X6X6X6X6X6X6X6X6X6X6X6X6X6X6X6X6X6X6X",
"6X6X6X6X6X6X6X6X6X6X6X6X6X6X6X6X6X6X6X6X6X6X6X6X6X6X6X6X6X6X6X6X6X6X6X6X6X6X6X6X6X6X6X6X6X6X6X6X6X6X6X6X6X6X6X6X6X6X6X6X6X6X6X6X",
"6X6X6X6X6X6X6X6X6X6X6X6X6X6X6X6X6X6X6X6X6X6X6X6X6X6X6X6X6X6X6X6X6X6X6X6X6X6X6X6X6X6X6X6X6X6X6X6X6X6X6X6X6X6X6X6X6X6X6X6X6X6X6X6X",
"6X6X6X6X6X6X6X6X6X6X6X6X6X6X6X6X6X6X6X6X6X6X6X6X6X6X6X6X6X6X6X6X6X6X6X6X6X6X6X6X6X6X6X6X6X6X6X6X6X6X6X6X6X6X6X6X6X6X6X6X6X6X6X6X",
"6X6X6X6X6X6X6X6X6X6X6X6X6X6X6X6X6X6X6X6X6X6X6X6X6X6X6X6X6X6X6X6X6X6X6X6X6X6X6X6X6X6X6X6X6X6X6X6X6X6X6X6X6X6X6X6X6X6X6X6X6X6X6X6X",
"6X6X6X6X6X6X6X6X6X6X6X6X6X6X6X6X6X6X6X6X6X6X6X6X6X6X6X6X6X6X6X6X6X6X6X6X6X6X6X6X6X6X6X6X6X6X6X6X6X6X6X6X6X6X6X6X6X6X6X6X6X6X6X6X",
"6X6X6X6X6X6X6X6X6X6X6X6X6X6X6X6X6X6X6X6X6X6X6X6X6X6X6X6X6X6X6X6X6X6X6X6X6X6X6X6X6X6X6X6X6X6X6X6X6X6X6X6X6X6X6X6X6X6X6X6X6X6X6X6X",
"6X6X6X6X6X6X6X6X6X6X6X6X6X6X6X6X6X6X6X6X6X6X6X6X6X6X6X6X6X6X6X6X6X6X6X6X6X6X6X6X6X6X6X6X6X6X6X6X6X6X6X6X6X6X6X6X6X6X6X6X6X6X6X6X",
"6X6X6X6X6X6X6X6X6X6X6X6X6X6X6X6X6X6X6X6X6X6X6X6X6X6X6X6X6X6X6X6X6X6X6X6X6X6X6X6X6X6X6X6X6X6X6X6X6X6X6X6X6X6X6X6X6X6X6X6X6X6X6X6X",
"6X6X6X6X6X6X6X6X6X6X6X6X6X6X6X6X6X6X6X6X6X6X6X6X6X6X6X6X6X6X6X6X6X6X6X6X6X6X6X6X6X6X6X6X6X6X6X6X6X6X6X6X6X6X6X6X6X6X6X6X6X6X6X6X",
"6X6X6X6X6X6X6X6X6X6X6X6X6X6X6X6X6X6X6X6X6X6X6X6X6X6X6X6X6X6X6X6X6X6X6X6X6X6X6X6X6X6X6X6X6X6X6X6X6X6X6X6X6X6X6X6X6X6X6X6X6X6X6X6X",
"6X6X6X6X6X6X6X6X6X6X6X6X6X6X6X6X6X6X6X6X6X6X6X6X6X6X6X6X6X6X6X6X6X6X6X6X6X6X6X6X6X6X6X6X6X6X6X6X6X6X6X6X6X6X6X6X6X6X6X6X6X6X6X6X",
"6X6X6X6X6X6X6X6X6X6X6X6X6X6X6X6X6X6X6X6X6X6X6X6X6X6X6X6X6X6X6X6X6X6X6X6X6X6X6X6X6X6X6X6X6X6X6X6X6X6X6X6X6X6X6X6X6X6X6X6X6X6X6X6X",
"6X6X6X6X6X6X6X6X6X6X6X6X6X6X6X6X6X6X6X6X6X6X6X6X6X6X6X6X6X6X6X6X6X6X6X6X6X6X6X6X6X6X6X6X6X6X6X6X6X6X6X6X6X6X6X6X6X6X6X6X6X6X6X6X",
"6X6X6X6X6X6X6X6X6X6X6X6X6X6X6X6X6X6X6X6X6X6X6X6X6X6X6X6X6X6X6X6X6X6X6X6X6X6X6X6X6X6X6X6X6X6X6X6X6X6X6X6X6X6X6X6X6X6X6X6X6X6X6X6X",
"6X6X6X6X6X6X6X6X6X6X6X6X6X6X6X6X6X6X6X6X6X6X, 2 , , : > > > > > > > > > > > > > > > 6X6X6X6X6X6X6X6X6X6X6X6X6X6X6X6X6X6X6X6X6X6X",
"6X6X6X6X6X6X6X6X6X6X6X6X6X6X6X6X6X6X6X6X6Xp u k a d d d d d d d d d d d d d d d l d d 6X6X6X6X6X6X6X6X6X6X6X6X6X6X6X6X6X6X6X6X6X",
"6X6X6X6X6X6X6X6X6X6X6X6X6X6X6X6X6X6X6X6Xp D *.=.=.*.=.m.m.m.m.m.m.m.m.m.m.m.m.m.M.3.G d 6X6X6X6X6X6X6X6X6X6X6X6X6X6X6X6X6X6X6X6X",
"6X6X6X6X6X6X6X6X6X6X6X6X6X6X6X6X8 8 , : d *.A.I.d.d.J.^.}.}.^.).^.|.(.|.^.}.^..XXXH.n.C $ : > > 6X6X6X6X6X6X6X6X6X6X6X6X6X6X6X6X",
"6X6X6X6X6X6X6X6X6X6X6X6X6X6X6X6Xa k k g +.6.Y.E.Y.E._.+X#X@X@X@X@X@X@X@X#X@X@X#X%X@XG.1.C D D B 6X6X6X6X6X6X6X6X6X6X6X6X6X6X6X6X",
"6X6X6X6X6X6X6X6X6X6X6X6X6X6X< a x O.&.=.;.Z.I.E.W.(.XX+X+X[.{.'.@X%X%X@X@X@X@X@X@X@X(.H.F.H.G.3.V : 6X6X6X6X6X6X6X6X6X6X6X6X6X6X",
"6X6X6X6X6X6X6X6X6X6X6X6X6X< 9 k X.,.a.Z.K.K.K.T.(.+X+X+XOX).).).].@X+X+XOXXX+X+XOXOXOXXX+X@XXXF.*.6 $ 6X6X6X6X6X6X6X6X6X6X6X6X6X",
"6X6X6X6X6X6X6X6X6X6X6X6X6Xp l #.e.u.K.P.E.Y.T.(.XX@X+X+X$X:X,X:X XB.G..X+X+X+XOXOXOX^././.OX%XXXS.Z u 6X6X6X6X6X6X6X6X6X6X6X6X6X",
"6X6X6X6X6X6X6X6X6X6X6X8 a z o.r.a.Z.K.P.E.R.(.XX+X#X[.'.>X3X5X1X&XN -.^.@X@XXX+X@X.XB.G H B.$X+XR.;.+.d $ 6X6X6X6X6X6X6X6X6X6X6X",
"6X6X6X6X6X6X6X6X6X6X6X8 k O.,.u.Z.P.P.P.P._.OX@XOXXX{.{.-X3X4X2X*X  M /.@X@XXX+X%X.Xb.= = b..X+X_.P.=.A 6 6X6X6X6X6X6X6X6X6X6X6X",
"6X6X6X6X6X6X6X6X6X6X6X3 k o.>.s.K.U.P.K.T.(.+X.XJ.S.A.v.~.;X<X=XJ   F /.%X#X+X#X%XOXb.+   V S.T.E.P.f.&.k a 6X6X6X6X6X6X6X6X6X6X",
"6X6X6X6X6X6X6X6X6X6X6X< a ..>.u.f.U.P.K.T.(.OX^.6.o...&.2.9.K J O X H ^.%X#X#X#X%XOXn.;   9 o.5.Z.P.k.5.O.x s 7 6X6X6X6X6X6X6X6X",
"6X6X6X6X6X6X6X6X6X6Xy p z O.,.u.Z.P.P.K.T._.+X^.6.o._ _ t >       w *./.XX.X|..XOX|.b.m $ s o.5.Z.P.K.y.>...a 7 6X6X6X6X6X6X6X6X",
"6X6X6X6X6X6X6X6X6Xq z | o.$.>.r.Z.P.Y.K.T.(.+X.XH.N.4._ r e 5 5 e M +.7.C.C.6.C.S.6.+.s a 1.S.U.Y.P.f.t.>...a 3 6X6X6X6X6X6X6X6X",
"6X6X6X6X6X6X6X6X7 s | $.q.>.>.r.Z.P.P.K.T.(.+X@X@X.XS.&.Q ^ } } ) / ..@.o.o.o.X.o.o._ Q >.S.OXXXR.P.a.y.#.( p 7 6X6X6X6X6X6X6X6X",
"6X6X6X6X6X6X6X6X7 a @.,.t.q.,.r.a.Z.K.Z.T.R.(.XX#X@X^.C.4.<.b b ] ] ' ` ! ! ^ Q W ^ o.4.N.H.XX.XY.f.u.e.%...p 7 6X6X6X6X6X6X6X6X",
"6X6X6X6X6X6X6X6X7 a @.,.t.q.q.,.5.y.f.P.U.T.T._.+X#X+X(.!.0.U I I Y n ' ~ ^ ^ ^ t _ 7.J.(.(.W.U.f.r.q.e.,.o.a 7 6X6X6X6X6X6X6X6X",
"6X6X6X6X6X6X6X6X7 s | $.5.q.,.,.>.>.u.Z.P.K.K.T.|.XX+X].~.x.T L P Y v <.[ { X...` O.C..XXX(.P.d.r.>.>.q.$.| y 7 6X6X6X6X6X6X6X6X",
"6X6X6X6X6X6X6X6X6Xy l | $.q.q.q.q.q.e.a.f.a.a.Z.T.`.`.`.oX&Xz.R z.z.0.8.:.:.5.5.r.r.D.)._.T.a.e.q.>.>.#.| l p 6X6X6X6X6X6X6X6X6X",
"6X6X6X6X6X6X6X6X6X6Xq a ( %.q.i.t.t.e.5.e.,.e.p.P.E.W.E.T.U.!.!.!.k.D.Z.I.K.Z.Z.Z.Z.P.T.U.f.r.q.e.q.$.( p y 6X6X6X6X6X6X6X6X6X6X",
"6X6X6X6X6X6X6X6X6X6X6X2 y A $.,.,.,.>.,.>.>.>.r.g.K.K.K.K.I.L.L.K.L.I.P.P.P.P.P.P.P.K.K.k.r.,.>.>.$.| s 1 6X6X6X6X6X6X6X6X6X6X6X",
"6X6X6X6X6X6X6X6X6X6X6X& q j A  .A  .#.,.w.w.q.i.u.s.h.s.h.l.j.j.j.j.k.k.k.k.k.k.f.k.k.h.s.i.w.%.#.| d q % 6X6X6X6X6X6X6X6X6X6X6X",
"6X6X6X6X6X6X6X6X6X6X6X6X* - 0 - 6Xw D ,.i.w.q.,.q.e.q.q.q.q.e.q.e.e.e.e.e.e.q.e.q.q.q.e.e.t.q.$.z q 8 4 6X6X6X6X6X6X6X6X6X6X6X6X",
"6X6X6X6X6X6X6X6X6X6X6X6X6X6X6X6X6X6Xh O.>.$.$.$.#.O.O.#.@.O.O.#.O.O.#.o.O.O.O.O.#.#.O.#.#.$.$. .d 3 % 6X6X6X6X6X6X6X6X6X6X6X6X6X",
"6X6X6X6X6X6X6X6X6X6X6X6X6X6X# o . @ w h S S h S h h h h h h h h h h h h h h h h h h h h h h S f q 4 6X6X6X6X6X6X6X6X6X6X6X6X6X6X",
"6X6X6X6X6X6X6X6X6X6X6X6X6X6X6X- 6X6X6X6X6X6X6X6X6X6X6X6X6X6X6X6X6X6X6X6X6X6X6X6X6X6X6X6X6X6X6X6X@ 6X6X6X6X6X6X6X6X6X6X6X6X6X6X6X",
"6X6X6X6X6X6X6X6X6X6X6X6X6X6X6X6X6X6X6X6X6X6X6X6X6X6X6X6X6X6X6X6X6X6X6X6X6X6X6X6X6X6X6X6X6X6X6X6X6X6X6X6X6X6X6X6X6X6X6X6X6X6X6X6X",
"6X6X6X6X6X6X6X6X6X6X6X6X6X6X6X6X6X6X6X6X6X6X6X6X6X6X6X6X6X6X6X6X6X6X6X6X6X6X6X6X6X6X6X6X6X6X6X6X6X6X6X6X6X6X6X6X6X6X6X6X6X6X6X6X",
"6X6X6X6X6X6X6X6X6X6X6X6X6X6X6X6X6X6X6X6X6X6X6X6X6X6X6X6X6X6X6X6X6X6X6X6X6X6X6X6X6X6X6X6X6X6X6X6X6X6X6X6X6X6X6X6X6X6X6X6X6X6X6X6X",
"6X6X6X6X6X6X6X6X6X6X6X6X6X6X6X6X6X6X6X6X6X6X6X6X6X6X6X6X6X6X6X6X6X6X6X6X6X6X6X6X6X6X6X6X6X6X6X6X6X6X6X6X6X6X6X6X6X6X6X6X6X6X6X6X",
"6X6X6X6X6X6X6X6X6X6X6X6X6X6X6X6X6X6X6X6X6X6X6X6X6X6X6X6X6X6X6X6X6X6X6X6X6X6X6X6X6X6X6X6X6X6X6X6X6X6X6X6X6X6X6X6X6X6X6X6X6X6X6X6X",
"6X6X6X6X6X6X6X6X6X6X6X6X6X6X6X6X6X6X6X6X6X6X6X6X6X6X6X6X6X6X6X6X6X6X6X6X6X6X6X6X6X6X6X6X6X6X6X6X6X6X6X6X6X6X6X6X6X6X6X6X6X6X6X6X"
};
