/* XPM */
static char *result[] = {
/* columns rows colors chars-per-pixel */
"64 64 210 2 ",
"   c black",
".  c #000A0B",
"X  c #220000",
"o  c #000025",
"O  c #181C2F",
"+  c #171B2E",
"@  c #01003C",
"#  c #171C32",
"$  c #181C32",
"%  c #00272F",
"&  c #1D393C",
"*  c #3C3E3F",
"=  c #5F362E",
"-  c #030044",
";  c #010049",
":  c #0F004A",
">  c #0F084A",
",  c #080042",
"<  c #13014E",
"1  c #151646",
"2  c #130051",
"3  c #170856",
"4  c #171852",
"5  c #181B55",
"6  c #171754",
"7  c #1B255A",
"8  c #221B64",
"9  c #3D1D7F",
"0  c #291F74",
"q  c #1F2862",
"w  c #212D64",
"e  c #242C69",
"r  c #243566",
"t  c #25326E",
"y  c #273C6D",
"u  c #27396A",
"i  c #293375",
"p  c #2E3C7B",
"a  c #2B3677",
"s  c #252176",
"d  c #77005F",
"f  c #5D1474",
"g  c #740465",
"h  c #721C6A",
"j  c #4C317E",
"k  c #792767",
"l  c #00454A",
"z  c #004145",
"x  c #00585E",
"c  c #25474A",
"v  c #294D50",
"b  c #2A4376",
"n  c #2C4579",
"m  c #2E4B7E",
"M  c #31477E",
"N  c #30527E",
"B  c #385E7D",
"V  c #335572",
"C  c #006F75",
"Z  c #1B6167",
"A  c #3A686C",
"S  c #3F7276",
"D  c #3B6C70",
"F  c #7C4C76",
"G  c #42787C",
"H  c #9D0028",
"J  c #9E0033",
"K  c #951C49",
"L  c #9B2F4C",
"P  c #A03E50",
"I  c #97475F",
"U  c #984F63",
"Y  c #8B7A78",
"T  c #1E0182",
"R  c #1A1A85",
"E  c #271783",
"W  c #270282",
"Q  c #133389",
"!  c #2A2483",
"~  c #2C2884",
"^  c #2F3487",
"/  c #2F3888",
"(  c #343587",
")  c #3B3685",
"_  c #303788",
"`  c #323B89",
"'  c #3B3886",
"]  c #364589",
"[  c #384A8E",
"{  c #38488C",
"}  c #2F5181",
"|  c #335484",
" . c #365B8A",
".. c #354D90",
"X. c #285292",
"o. c #395293",
"O. c #3D5C94",
"+. c #254690",
"@. c #39638D",
"#. c #3E6A84",
"$. c #396193",
"%. c #3D6C9B",
"&. c #386698",
"*. c #34739D",
"=. c #3D709D",
"-. c #287D83",
";. c #3E74A6",
":. c #51518B",
">. c #40579B",
",. c #425B9E",
"<. c #645281",
"1. c #45778A",
"2. c #517E82",
"3. c #416595",
"4. c #436A95",
"5. c #45729B",
"6. c #49779D",
"7. c #477899",
"8. c #537497",
"9. c #7C7393",
"0. c #6A739A",
"q. c #405EA0",
"w. c #4264A1",
"e. c #456EA9",
"r. c #496FAB",
"t. c #4274A2",
"y. c #457BA4",
"u. c #4570A9",
"i. c #4972AB",
"p. c #467DAB",
"a. c #497DAD",
"s. c #5075A2",
"d. c #497DB1",
"f. c #837288",
"g. c #816C8C",
"h. c #3D85B5",
"j. c #3A9FB0",
"k. c #4B8B8F",
"l. c #4B8296",
"z. c #4C849A",
"x. c #4F8B9A",
"c. c #518E93",
"v. c #499399",
"b. c #529499",
"n. c #54969B",
"m. c #4E84A1",
"M. c #4980AD",
"N. c #4E88A5",
"B. c #528BA4",
"V. c #548AAD",
"C. c #599DA3",
"Z. c #5593A9",
"A. c #5897A9",
"S. c #569CAD",
"D. c #5A9DAC",
"F. c #5696A2",
"G. c #4B86B1",
"H. c #4D8BB3",
"J. c #4383B3",
"K. c #528AB1",
"L. c #5084B3",
"P. c #4E94B6",
"I. c #4E99B8",
"U. c #5394B5",
"Y. c #599DB4",
"T. c #5395B9",
"R. c #569ABA",
"E. c #599EBB",
"W. c #5598B7",
"Q. c #619DB3",
"!. c #6E93A5",
"~. c #5CA4AB",
"^. c #55A0A6",
"/. c #4AA7B3",
"(. c #5DA3B4",
"). c #5BAAB5",
"_. c #5DA4B9",
"`. c #5DA9BA",
"'. c #55A7B6",
"]. c #5DB3BB",
"[. c #57B1B5",
"{. c #60A9AF",
"}. c #60A5AC",
"|. c #60A7B1",
" X c #62ACB4",
".X c #62ACBA",
"XX c #6FA7B0",
"oX c #65B0B6",
"OX c #66B3B9",
"+X c #68B6BC",
"@X c #69B9BE",
"#X c #68B1B6",
"$X c #73B4BA",
"%X c #6ABAC1",
"&X c #7DBDC0",
"*X c #8D8D93",
"=X c #A08E8C",
"-X c #81A8AA",
";X c #B5B1B0",
":X c #A1B5B8",
">X c #8BBEC3",
",X c #8CC1C6",
"<X c #B4D0D1",
"1X c #ACD4D6",
"2X c #DCD3D2",
"3X c #D4E6E9",
"4X c #C4E0E2",
"5X c #F6F9F9",
"6X c #E0E3E3",
"7X c None",
/* pixels */
"7X7X7X7X7X7X7X7X7X7X7X7X7X7X7X7X7X7X7X7X7X7X7X7X7X7X7X7X7X7X7X7X7X7X7X7X7X7X7X7X7X7X7X7X7X7X7X7X7X7X7X7X7X7X7X7X7X7X7X7X7X7X7X7X",
"7X7X7X7X7X7X7X7X7X7X7X7X7X7X7X7X7X7X7X7X7X7X7X7X7X7X7X7X7X7X7X7X7X7X7X7X7X7X7X7X7X7X7X7X7X7X7X7X7X7X7X7X7X7X7X7X7X7X7X7X7X7X7X7X",
"7X7X7X7X7X7X7X7X7X7X7X7X7X7X7X7X7X7X7X7X7X7X7X7X7X7X7X7X7X7X7X7X7X7X7X7X7X7X7X7X7X7X7X7X7X7X7X7X7X7X7X7X7X7X7X7X7X7X7X7X7X7X7X7X",
"7X7X7X7X7X7X7X7X7X7X7X7X7X7X7X7X7X7X7X7X7X7X7X7X7X7X7X7X7X7X7X7X7X7X7X7X7X7X7X7X7X7X7X7X7X7X7X7X7X7X7X7X7X7X7X7X7X7X7X7X7X7X7X7X",
"7X7X7X7X7X7X7X7X7X7X7X7X7X7X7X7X7X7X7X7X7X7X7X7X7X7X7X7X7X7X7X7X7X7X7X7X7X7X7X7X7X7X7X7X7X7X7X7X7X7X7X7X7X7X7X7X7X7X7X7X7X7X7X7X",
"7X7X7X7X7X7X7X7X7X7X7X7X7X7X7X7X7X7X7X7X7X7X7X7X7X7X7X7X7X7X7X7X7X7X7X7X7X7X7X7X7X7X7X7X7X7X7X7X7X7X7X7X7X7X7X7X7X7X7X7X7X7X7X7X",
"7X7X7X7X7X7X7X7X7X7X7X7X7X7X7X7X7X7X7X7X7X7X7X7X7X7X7X7X7X7X7X7X7X7X7X7X7X7X7X7X7X7X7X7X7X7X7X7X7X7X7X7X7X7X7X7X7X7X7X7X7X7X7X7X",
"7X7X7X7X7X7X7X7X7X7X7X7X7X7X7X7X7X7X7X7X7X7X7X7X7X7X7X7X7X7X7X7X7X7X7X7X7X7X7X7X7X7X7X7X7X7X7X7X7X7X7X7X7X7X7X7X7X7X7X7X7X7X7X7X",
"7X7X7X7X7X7X7X7X7X7X7X7X7X7X7X7X7X7X7X7X7X7X7X7X7X7X7X7X7X7X7X7X7X7X7X7X7X7X7X7X7X7X7X7X7X7X7X7X7X7X7X7X7X7X7X7X7X7X7X7X7X7X7X7X",
"7X7X7X7X7X7X7X7X7X7X7X7X7X7X7X7X7X7X7X7X7X7X7X7X7X7X7X7X7X7X7X7X7X7X7X7X7X7X7X7X7X7X7X7X7X7X7X7X7X7X7X7X7X7X7X7X7X7X7X7X7X7X7X7X",
"7X7X7X7X7X7X7X7X7X7X7X7X7X7X7X7X7X7X7X7X7X7X7X7X7X7X7X7X7X7X7X7X7X7X7X7X7X7X7X7X7X7X7X7X7X7X7X7X7X7X7X7X7X7X7X7X7X7X7X7X7X7X7X7X",
"7X7X7X7X7X7X7X7X7X7X7X7X7X7X7X7X7X7X7X7X7X7X7X7X< 2 2 2 < 2 < 2 < 2 < < 2 2 2 2 7X7X7X7X7X7X7X7X7X7X7X7X7X7X7X7X7X7X7X7X7X7X7X7X",
"7X7X7X7X7X7X7X7X7X7X7X7X7X7X7X7X7X7X7X7X7X7X7X7Xy n m n b b b b b n b b n m n y 7X7X7X7X7X7X7X7X7X7X7X7X7X7X7X7X7X7X7X7X7X7X7X7X",
"7X7X7X7X7X7X7X7X7X7X7X7X7X7X7X7X7X7X7X7X7X7X: b @.5.t.%.%.%.%.%.%.%.%.%.%.;.=. .t @ 7X7X7X7X7X7X7X7X7X7X7X7X7X7X7X7X7X7X7X7X7X7X",
"7X7X7X7X7X7X7X7X7X7X7X7X7X7X7X7X7X7X7X7X7X, 3 | t.G.H.H.G.G.G.G.M.G.G.M.G.H.G.5.m 2 @ 7X7X7X7X7X7X7X7X7X7X7X7X7X7X7X7X7X7X7X7X7X",
"7X7X7X7X7X7X7X7X7X7X7X7X7X7X7X7X7X7X7X7X7X8 i &.a.T.R.R.R.I.I.I.E.E.E.E.R.E.E.U.N.#.V 7X7X7X7X7X7X7X7X7X7X7X7X7X7X7X7X7X7X7X7X7X",
"7X7X7X7X7X7X7X7X7X7X7X7X7X7X7X7X7X7X7X5 e a ] w.p.H.R._.`./.j./.'.%X.X.X_..X|..X.X~.1.r o 7X7X7X7X7X7X7X7X7X7X7X7X7X7X7X7X7X7X7X",
"7X7X7X7X7X7X7X7X7X7X7X7X7X7X7X7X7X7X7X6 i { q.r.M.H.(.).+X$X&X$X.X X#XOX#XOXOX+X@X XF.B 2 7X7X7X7X7X7X7X7X7X7X7X7X7X7X7X7X7X7X7X",
"7X7X7X7X7X7X7X7X7X7X7X7X7X7X7X7X7X7X7X: i O.r.L.U.Y.'.[.$X1X4X<X-Xk.v. X+X+X+X{.C.c.c.x.1.B 7X7X7X7X7X7X7X7X7X7X7X7X7X7X7X7X7X7X",
"7X7X7X7X7X7X7X7X7X7X7X7X7X7X7X7X7X7X7X, t &.a.U.(.oX'./.,X3X5X6X*Xz C ~.@X@XOXF.D v 1.~.D.1.r ; 7X7X7X7X7X7X7X7X7X7X7X7X7X7X7X7X",
"7X7X7X7X7X7X7X7X7X7X7X7X7X7X7X7X7X7Xq r | t.G.E..X#X[./.>X3X5X2XY   x ~.%X%XOXb.c   S  XOXB.y ; 7X7X7X7X7X7X7X7X7X7X7X7X7X7X7X7X",
"7X7X7X7X7X7X7X7X7X7X7X7X7X7X7X7X7Xr N $.y.p.G.W..X+XOX].XX:X;X=X=   Z ~.%X%XOXb.&   D {.OXB.y ; 7X7X7X7X7X7X7X7X7X7X7X7X7X7X7X7X",
"7X7X7X7X7X7X7X7X7X7X7X7X7X7X7X7X: w $.y.H.H.G.T.|..X@X@X}.2.* X   . G ~.@X%X+Xn.v   G ~. Xx.r ; 7X7X7X7X7X7X7X7X7X7X7X7X7X7X7X7X",
"7X7X7X7X7X7X7X7X7X7X7X7X7X7X7X7X: t %.G.T.T.U.Y..XOXOX@X~.-.z % l A c.{.@X@X#XC.G A k. X).x.r ; 7X7X7X7X7X7X7X7X7X7X7X7X7X7X7X7X",
"7X7X7X7X7X7X7X7X7X7X7X7X7X7X7X7X: e $.M.T._._. XoXoX+XOX).^.v.v.b.n.~. X+XOXOX|.C.F.~.+X).l.r ; 7X7X7X7X7X7X7X7X7X7X7X7X7X7X7X7X",
"7X7X7X7X7X7X7X7X7X7X7X7X7X7X7X7X: r $.y.U._.#XOXOXoXoXoXoXoX+X+XOX@XOXoXOXOXOXOXOX+X+X+X{.7.u ; 7X7X7X7X7X7X7X7X7X7X7X7X7X7X7X7X",
"7X7X7X7X7X7X7X7X7X7X7X7X7X7X7X7X: r $.p.T._.#X+XOX+X+XOX+X+X+X%X%X+X+XOX.XOXOXOX+X+X%X@X{.l.r - 7X7X7X7X7X7X7X7X7X7X7X7X7X7X7X7X",
"7X7X7X7X7X7X7X7X7X7X7X7X7X7X7X7X: q $.p.T._.#X+XOX+X+X+X+X+XoXoXOXOXoXoXOXoXoXoX#XOX@X%X Xl.r - 7X7X7X7X7X7X7X7X7X7X7X7X7X7X7X7X",
"7X7X7X7X7X7X7X7X7X7X7X7X7X7X7X7X: q @.p.P._..XOX).|.Y.|.|..XOXOXOXOX#XOXOXOX#XoXOX#XoX XA.1.r ; 7X7X7X7X7X7X7X7X7X7X7X7X7X7X7X7X",
"7X7X7X7X7X7X7X7X7X7X7X7X7X7X7X7X: r $.p.W.`.OX|.B.6.5.s.B.|.OX+X+X+XOX@XOX+X+X+X@XOX(.N.4.| w 2 7X7X7X7X7X7X7X7X7X7X7X7X7X7X7X7X",
"7X7X7X7X7X7X7X7X7X7X7X7X7X7X7X7X: q $.y.T..XOXD.5.` E ~ 3.Z.OX+XOXOXOXOXOXOXOXOX@X#XZ.,.~ s q 5 7X7X7X7X7X7X7X7X7X7X7X7X7X7X7X7X",
"7X7X7X7X7X7X7X7X7X7X7X7X7X7X7X7X: t &.M.R.`.OX(.m.3.` 0 ` 6.A.(.(.^.S.D.D.A.Y.~.D.A.B.6. .M q 3 7X7X7X7X7X7X7X7X7X7X7X7X7X7X7X7X",
"7X7X7X7X7X7X7X7X7X7X7X7X7X7X7X7X: t &.J.R..XOX#X|.A.7.` E ..*.*.*.*.=.5.4.5.5.4.3.4.m.D.A.1.r ; 7X7X7X7X7X7X7X7X7X7X7X7X7X7X7X7X",
"7X7X7X7X7X7X7X7X7X7X7X7X7X7X7X7X: w  .y.T.(..X@X@X XZ.&./ ( ' ' ) ( ( ` ` / _ ( ! [ N..X Xz.r ; 7X7X7X7X7X7X7X7X7X7X7X7X7X7X7X7X",
"7X7X7X7X7X7X7X7X7X7X7X7X7X7X7X7X7Xw N @.y.K.(..X@X+X).F.8.<.h g g g f 9 R T 0 ] 3.z.W..X(.m.t ; 7X7X7X7X7X7X7X7X7X7X7X7X7X7X7X7X",
"7X7X7X7X7X7X7X7X7X7X7X7X7X7X7X7X7X7Xq r | y.K.E.oX#X+X[.!.f.L H J K k j Q R ~ 3.A..X.XE.K.4.t : 7X7X7X7X7X7X7X7X7X7X7X7X7X7X7X7X",
"7X7X7X7X7X7X7X7X7X7X7X7X7X7X7X7X7X7X7X, t &.d.T._..X].].XXf.U L P I F :.X.+...y.Q.#X_.K.=.| q < 7X7X7X7X7X7X7X7X7X7X7X7X7X7X7X7X",
"7X7X7X7X7X7X7X7X7X7X7X7X7X7X7X7X7X7X7X: i o.e.G.U.(._.`.Q.!.9.g.g.9.0.s.;.;.t.a.V.V.N.t.} b 7X7X7X7X7X7X7X7X7X7X7X7X7X7X7X7X7X7X",
"7X7X7X7X7X7X7X7X7X7X7X7X7X7X7X7X7X7X7X6 i [ q.i.G.H.P.H.H.H.K.K.K.K.K.H.H.H.H.d.i.w.[ p 7 7X7X7X7X7X7X7X7X7X7X7X7X7X7X7X7X7X7X7X",
"7X7X7X7X7X7X7X7X7X7X7X7X7X7X7X7X7X7X7X5 e a { q.u.d.d.d.d.d.J.h.h.J.J.G.G.K.G.i.q.` 0 3 @ 7X7X7X7X7X7X7X7X7X7X7X7X7X7X7X7X7X7X7X",
"7X7X7X7X7X7X7X7X7X7X7X7X7X7X7X7X7X7X7X7X7Xe a o.w.e.i.e.e.e.e.e.u.e.e.r.r.i.r.w.o.i 8 7X7X7X7X7X7X7X7X7X7X7X7X7X7X7X7X7X7X7X7X7X",
"7X7X7X7X7X7X7X7X7X7X7X7X7X7X7X7X7X7X7X7X7X> 4 a [ ,.q.>.>.>.>.>.O.>.>.>.>.,.>.[ p 5 > 7X7X7X7X7X7X7X7X7X7X7X7X7X7X7X7X7X7X7X7X7X",
"7X7X7X7X7X7X7X7X7X7X7X7X7X7X7X7X7X7X7X7X7X7X> e p ] [ ] ] { ] ] ] ] ] ] { { { p e > 7X7X7X7X7X7X7X7X7X7X7X7X7X7X7X7X7X7X7X7X7X7X",
"7X7X7X7X7X7X7X7X7X7X7X7X7X7X7X7X7X7X7X7X7X7X7X7Xe i a u e e t t t t t i t a t t 7X7X7X7X7X7X7X7X7X7X7X7X7X7X7X7X7X7X7X7X7X7X7X7X",
"7X7X7X7X7X7X7X7X7X7X7X7X7X7X7X7X7X7X7X7X7X7X7X7X5 5 4 4 6 6 6 6 6 6 6 6 4 4 6 4 7X7X7X7X7X7X7X7X7X7X7X7X7X7X7X7X7X7X7X7X7X7X7X7X",
"7X7X7X7X7X7X7X7X7X7X7X7X7X7X7X7X7X7X7X7X7X7X7X7X1 1 1 1 1 1 1 1 1 1 1 4 1 1 1 4 7X7X7X7X7X7X7X7X7X7X7X7X7X7X7X7X7X7X7X7X7X7X7X7X",
"7X7X7X7X7X7X7X7X7X7X7X7X7X7X7X7X7X7X7X7X# O 7X7X$ 1 $ $ $ $ # $ # $ $ $ # $ $ $ 7X7X$ # 7X7X7X7X7X7X7X7X7X7X7X7X7X7X7X7X7X7X7X7X",
"7X7X7X7X7X7X7X7X7X7X7X7X7X7X7X7X7X7X7X7X# # $ + 7X7X7X7X7X7X7X7X7X7X7X7X7X7X7X7X# $ # O 7X7X7X7X7X7X7X7X7X7X7X7X7X7X7X7X7X7X7X7X",
"7X7X7X7X7X7X7X7X7X7X7X7X7X7X7X7X7X7X7X7X# # O O 7X7X7X7X7X7X7X7X7X7X7X7X7X7X7X7XO O # # 7X7X7X7X7X7X7X7X7X7X7X7X7X7X7X7X7X7X7X7X",
"7X7X7X7X7X7X7X7X7X7X7X7X7X7X7X7X7XO $ $ $ $ $ $ $ $ $ $ $ $ $ $ $ $ $ $ $ $ $ $ $ $ $ # $ $ # 7X7X7X7X7X7X7X7X7X7X7X7X7X7X7X7X7X",
"7X7X7X7X7X7X7X7X7X7X7X7X7X7X7X7X7X# # # 7X# $ $ $ $ $ $ $ $ $ $ $ $ $ $ $ $ $ $ $ $ O 7X# # # 7X7X7X7X7X7X7X7X7X7X7X7X7X7X7X7X7X",
"7X7X7X7X7X7X7X7X7X7X7X7X7X7X7X7X7X# # $ $ $ $ $ $ $ $ $ $ $ $ $ $ $ $ $ $ $ $ $ $ $ $ $ $ # # 7X7X7X7X7X7X7X7X7X7X7X7X7X7X7X7X7X",
"7X7X7X7X7X7X7X7X7X7X7X7X7X7X7X7X7X# # $ $ $ $ $ $ $ $ $ $ $ $ $ $ $ $ $ $ $ $ $ $ $ $ $ $ # # 7X7X7X7X7X7X7X7X7X7X7X7X7X7X7X7X7X",
"7X7X7X7X7X7X7X7X7X7X7X7X7X7X7X7X7XO # # 7X# $ $ $ $ $ $ $ $ $ $ $ $ $ $ $ $ $ $ $ $ # 7X# # O 7X7X7X7X7X7X7X7X7X7X7X7X7X7X7X7X7X",
"7X7X7X7X7X7X7X7X7X7X7X7X7X7X7X7X7X# $ $ $ $ $ $ $ $ $ $ $ $ $ $ $ $ $ $ # $ $ $ $ $ # $ $ $ # 7X7X7X7X7X7X7X7X7X7X7X7X7X7X7X7X7X",
"7X7X7X7X7X7X7X7X7X7X7X7X7X7X7X7X7X7X7X7X# # # $ # # # + # + # # # # # # + O # # # O # # 7X7X7X7X7X7X7X7X7X7X7X7X7X7X7X7X7X7X7X7X",
"7X7X7X7X7X7X7X7X7X7X7X7X7X7X7X7X7X7X7X7X# # $ $ $ $ $ $ $ $ $ $ $ $ $ $ $ $ $ $ $ $ # # 7X7X7X7X7X7X7X7X7X7X7X7X7X7X7X7X7X7X7X7X",
"7X7X7X7X7X7X7X7X7X7X7X7X7X7X7X7X7X7X7X7X# $ 7X7X7X7X7X7X7X7X7X7X7X7X7X7X7X7X7X7X7X7X$ # 7X7X7X7X7X7X7X7X7X7X7X7X7X7X7X7X7X7X7X7X",
"7X7X7X7X7X7X7X7X7X7X7X7X7X7X7X7X7X7X7X7X7X7X7X7X7X7X7X7X7X7X7X7X7X7X7X7X7X7X7X7X7X7X7X7X7X7X7X7X7X7X7X7X7X7X7X7X7X7X7X7X7X7X7X7X",
"7X7X7X7X7X7X7X7X7X7X7X7X7X7X7X7X7X7X7X7X7X7X7X7X7X7X7X7X7X7X7X7X7X7X7X7X7X7X7X7X7X7X7X7X7X7X7X7X7X7X7X7X7X7X7X7X7X7X7X7X7X7X7X7X",
"7X7X7X7X7X7X7X7X7X7X7X7X7X7X7X7X7X7X7X7X7X7X7X7X7X7X7X7X7X7X7X7X7X7X7X7X7X7X7X7X7X7X7X7X7X7X7X7X7X7X7X7X7X7X7X7X7X7X7X7X7X7X7X7X",
"7X7X7X7X7X7X7X7X7X7X7X7X7X7X7X7X7X7X7X7X7X7X7X7X7X7X7X7X7X7X7X7X7X7X7X7X7X7X7X7X7X7X7X7X7X7X7X7X7X7X7X7X7X7X7X7X7X7X7X7X7X7X7X7X",
"7X7X7X7X7X7X7X7X7X7X7X7X7X7X7X7X7X7X7X7X7X7X7X7X7X7X7X7X7X7X7X7X7X7X7X7X7X7X7X7X7X7X7X7X7X7X7X7X7X7X7X7X7X7X7X7X7X7X7X7X7X7X7X7X",
"7X7X7X7X7X7X7X7X7X7X7X7X7X7X7X7X7X7X7X7X7X7X7X7X7X7X7X7X7X7X7X7X7X7X7X7X7X7X7X7X7X7X7X7X7X7X7X7X7X7X7X7X7X7X7X7X7X7X7X7X7X7X7X7X"
};
