/* XPM */
static char *result[] = {
/* columns rows colors chars-per-pixel */
"64 64 202 2 ",
"   c black",
".  c #00090A",
"X  c #000013",
"o  c #220000",
"O  c #00002C",
"+  c #13152F",
"@  c #0A0639",
"#  c #110F38",
"$  c #171C30",
"%  c #181C31",
"&  c #181C3A",
"*  c #15173A",
"=  c #00272F",
"-  c #162E31",
";  c #3C3E3F",
":  c #5F362E",
">  c #040045",
",  c #02004A",
"<  c #0E0049",
"1  c #11004B",
"2  c #100B45",
"3  c #171A43",
"4  c #15154D",
"5  c #161848",
"6  c #060051",
"7  c #0C0051",
"8  c #140253",
"9  c #16015A",
"0  c #191656",
"q  c #1A1F55",
"w  c #191658",
"e  c #181A55",
"r  c #1B2044",
"t  c #1C2254",
"y  c #1E245C",
"u  c #1E285E",
"i  c #1E2660",
"p  c #212661",
"a  c #212A64",
"s  c #232B6A",
"d  c #243567",
"f  c #24326C",
"g  c #27386C",
"h  c #282478",
"j  c #2B3A76",
"k  c #303C7D",
"l  c #511F7A",
"z  c #4F1A7B",
"x  c #721268",
"c  c #4A257E",
"v  c #6F3972",
"b  c #00454A",
"n  c #004044",
"m  c #00585E",
"M  c #2C466F",
"N  c #30536B",
"B  c #2A4176",
"V  c #2D4A78",
"C  c #304E71",
"Z  c #34557A",
"A  c #345776",
"S  c #006F75",
"D  c #1B6167",
"F  c #38676A",
"G  c #3A6679",
"H  c #3F7378",
"J  c #447A7E",
"K  c #A30029",
"L  c #9F263E",
"P  c #860153",
"I  c #892E5D",
"U  c #984C65",
"Y  c #965467",
"T  c #82597C",
"R  c #8D6A7E",
"E  c #8B7A78",
"W  c #141284",
"Q  c #260282",
"!  c #291A84",
"~  c #0D2E89",
"^  c #292485",
"/  c #2D2C86",
"(  c #242584",
")  c #293789",
"_  c #313E82",
"`  c #382883",
"'  c #4B2F80",
"]  c #413D86",
"[  c #324285",
"{  c #35438B",
"}  c #374C8D",
"|  c #374C89",
" . c #325385",
".. c #34568C",
"X. c #355B8C",
"o. c #385886",
"O. c #3C4D93",
"+. c #2B5B96",
"@. c #3D5195",
"#. c #345F95",
"$. c #3D5D92",
"%. c #3F5399",
"&. c #365B97",
"*. c #3C6687",
"=. c #2B7F83",
"-. c #2B6297",
";. c #3A6292",
":. c #3E6B98",
">. c #3B669A",
",. c #3D7FB2",
"<. c #5F5C8E",
"1. c #41569C",
"2. c #406F82",
"3. c #45768B",
"4. c #426C95",
"5. c #41619F",
"6. c #426B97",
"7. c #497C95",
"8. c #49749D",
"9. c #4B7C9E",
"0. c #457596",
"q. c #717A9D",
"w. c #6B6D8B",
"e. c #4466A4",
"r. c #456CA6",
"t. c #486AA9",
"y. c #4275A4",
"u. c #4774AB",
"i. c #4977AD",
"p. c #457CAA",
"a. c #4A7FAB",
"s. c #4479A7",
"d. c #417FB1",
"f. c #497CB0",
"g. c #557EA7",
"h. c #667DA2",
"j. c #49858B",
"k. c #528082",
"l. c #4C8396",
"z. c #4E8C90",
"x. c #518E94",
"c. c #528E9C",
"v. c #499299",
"b. c #54989C",
"n. c #4982AB",
"m. c #4E8FA8",
"M. c #4A84A2",
"N. c #5086A5",
"B. c #538DA5",
"V. c #5387AB",
"C. c #4E93AB",
"Z. c #5594A3",
"A. c #5593AB",
"S. c #5A9BAC",
"D. c #5899A5",
"F. c #4C84B2",
"G. c #478AB5",
"H. c #4D8CB4",
"J. c #508AB3",
"K. c #479BB6",
"L. c #5393B5",
"P. c #589BB5",
"I. c #5294B9",
"U. c #559BBA",
"Y. c #5798B6",
"T. c #6789A8",
"R. c #7A92A0",
"E. c #5CA3AB",
"W. c #5AA4A9",
"Q. c #48A8B2",
"!. c #5EA4B3",
"~. c #5CA3BA",
"^. c #5CAABA",
"/. c #54A5B6",
"(. c #5DB3BB",
"). c #60A8AE",
"_. c #60A6B4",
"`. c #62ADB4",
"'. c #63ADB9",
"]. c #68AFB6",
"[. c #64B1B7",
"{. c #66B3BA",
"}. c #69B6BC",
"|. c #69B9BE",
" X c #75B5BA",
".X c #6ABAC2",
"XX c #7DBEC0",
"oX c #808A93",
"OX c #939798",
"+X c #A08E8C",
"@X c #80A5AA",
"#X c #B5B1B0",
"$X c #A1B7B8",
"%X c #8DC2C6",
"&X c #B3CDD1",
"*X c #ACD4D6",
"=X c #DCD3D2",
"-X c #C4DEE2",
";X c #D4E8E9",
":X c #E0E3E3",
">X c #F7F9F9",
",X c None",
/* pixels */
",X,X,X,X,X,X,X,X,X,X,X,X,X,X,X,X,X,X,X,X,X,X,X,X,X,X,X,X,X,X,X,X,X,X,X,X,X,X,X,X,X,X,X,X,X,X,X,X,X,X,X,X,X,X,X,X,X,X,X,X,X,X,X,X",
",X,X,X,X,X,X,X,X,X,X,X,X,X,X,X,X,X,X,X,X,X,X,X,X,X,X,X,X,X,X,X,X,X,X,X,X,X,X,X,X,X,X,X,X,X,X,X,X,X,X,X,X,X,X,X,X,X,X,X,X,X,X,X,X",
",X,X,X,X,X,X,X,X,X,X,X,X,X,X,X,X,X,X,X,X,X,X,X,X,X,X,X,X,X,X,X,X,X,X,X,X,X,X,X,X,X,X,X,X,X,X,X,X,X,X,X,X,X,X,X,X,X,X,X,X,X,X,X,X",
",X,X,X,X,X,X,X,X,X,X,X,X,X,X,X,X,X,X,X,X,X,X,X,X,X,X,X,X,X,X,X,X,X,X,X,X,X,X,X,X,X,X,X,X,X,X,X,X,X,X,X,X,X,X,X,X,X,X,X,X,X,X,X,X",
",X,X,X,X,X,X,X,X,X,X,X,X,X,X,X,X,X,X,X,X,X,X,X,X,X,X,X,X,X,X,X,X,X,X,X,X,X,X,X,X,X,X,X,X,X,X,X,X,X,X,X,X,X,X,X,X,X,X,X,X,X,X,X,X",
",X,X,X,X,X,X,X,X,X,X,X,X,X,X,X,X,X,X,X,X,X,X,X,X,X,X,X,X,X,X,X,X,X,X,X,X,X,X,X,X,X,X,X,X,X,X,X,X,X,X,X,X,X,X,X,X,X,X,X,X,X,X,X,X",
",X,X,X,X,X,X,X,X,X,X,X,X,X,X,X,X,X,X,X,X,X,X,X,X,X,X,X,X,X,X,X,X,X,X,X,X,X,X,X,X,X,X,X,X,X,X,X,X,X,X,X,X,X,X,X,X,X,X,X,X,X,X,X,X",
",X,X,X,X,X,X,X,X,X,X,X,X,X,X,X,X,X,X,X,X,X,X,X,X,X,X,X,X,X,X,X,X,X,X,X,X,X,X,X,X,X,X,X,X,X,X,X,X,X,X,X,X,X,X,X,X,X,X,X,X,X,X,X,X",
",X,X,X,X,X,X,X,X,X,X,X,X,X,X,X,X,X,X,X,X,X,X,X,X,X,X,X,X,X,X,X,X,X,X,X,X,X,X,X,X,X,X,X,X,X,X,X,X,X,X,X,X,X,X,X,X,X,X,X,X,X,X,X,X",
",X,X,X,X,X,X,X,X,X,X,X,X,X,X,X,X,X,X,X,X,X,X,X,X,X,X,X,X,X,X,X,X,X,X,X,X,X,X,X,X,X,X,X,X,X,X,X,X,X,X,X,X,X,X,X,X,X,X,X,X,X,X,X,X",
",X,X,X,X,X,X,X,X,X,X,X,X,X,X,X,X,X,X,X,X,X,X,X,X,X,X,X,X,X,X,X,X,X,X,X,X,X,X,X,X,X,X,X,X,X,X,X,X,X,X,X,X,X,X,X,X,X,X,X,X,X,X,X,X",
",X,X,X,X,X,X,X,X,X,X,X,X,X,X,X,X,X,X,X,X,X,X,X,X,X,X,X,X,X,X,X,X,X,X,X,X,X,X,X,X,X,X,X,X,X,X,X,X,X,X,X,X,X,X,X,X,X,X,X,X,X,X,X,X",
",X,X,X,X,X,X,X,X,X,X,X,X,X,X,X,X,X,X,X,X,X,X,X,X,X,X,X,X,X,X,X,X,X,X,X,X,X,X,X,X,X,X,X,X,X,X,X,X,X,X,X,X,X,X,X,X,X,X,X,X,X,X,X,X",
",X,X,X,X,X,X,X,X,X,X,X,X,X,X,X,X,X,X,X,X,X,X,X,X,X< < < < < < < < < < < ,X,X,X,X,X,X,X,X,X,X,X,X,X,X,X,X,X,X,X,X,X,X,X,X,X,X,X,X",
",X,X,X,X,X,X,X,X,X,X,X,X,X,X,X,X,X,X,X,X,X,X,X,Xw w w w w w w w w w w w w ,X,X,X,X,X,X,X,X,X,X,X,X,X,X,X,X,X,X,X,X,X,X,X,X,X,X,X",
",X,X,X,X,X,X,X,X,X,X,X,X,X,X,X,X,X,X,X,X,X,X,Xd V ..X. . . . . . . ...X.V g ,X,X,X,X,X,X,X,X,X,X,X,X,X,X,X,X,X,X,X,X,X,X,X,X,X,X",
",X,X,X,X,X,X,X,X,X,X,X,X,X,X,X,X,X,X,X,X,X,X> g ;.s.s.y.y.,.s.y.p.:.s.p.>.V 6 ,X,X,X,X,X,X,X,X,X,X,X,X,X,X,X,X,X,X,X,X,X,X,X,X,X",
",X,X,X,X,X,X,X,X,X,X,X,X,X,X,X,X,X,X,X,X,X8 y ;.n.H.I.H.H.J.H.H.I.H.I.I.n.6.B 0 ,X,X,X,X,X,X,X,X,X,X,X,X,X,X,X,X,X,X,X,X,X,X,X,X",
",X,X,X,X,X,X,X,X,X,X,X,X,X,X,X,X,X,X,X,Xy B X.p.Y.~./.K.K./.~.~.U.U.~.~.~.P.c.2.A ,X,X,X,X,X,X,X,X,X,X,X,X,X,X,X,X,X,X,X,X,X,X,X",
",X,X,X,X,X,X,X,X,X,X,X,X,X,X,X,X,X,X,X@ a o.s.L.!.[./.Q.Q.^.[.{.'.'.`.'.'.[.`.D.G 9 ,X,X,X,X,X,X,X,X,X,X,X,X,X,X,X,X,X,X,X,X,X,X",
",X,X,X,X,X,X,X,X,X,X,X,X,X,X,X,X,X,Xy d X.n.H.~.(.].XX%X%X X).!.[.{.{.{.}.}.).D.4.9 > ,X,X,X,X,X,X,X,X,X,X,X,X,X,X,X,X,X,X,X,X,X",
",X,X,X,X,X,X,X,X,X,X,X,X,X,X,X,X,Xi V ;.n.L.~.^./.}.*X;X;X$Xk.=.E.{.}.|.).b.j.F M , , ,X,X,X,X,X,X,X,X,X,X,X,X,X,X,X,X,X,X,X,X,X",
",X,X,X,X,X,X,X,X,X,X,X,X,X,X,X,X< d X.s.L.!.[.(.Q. X-X>X>X#X; b v.}..X}.).J - X 1 8 9 ,X,X,X,X,X,X,X,X,X,X,X,X,X,X,X,X,X,X,X,X,X",
",X,X,X,X,X,X,X,X,X,X,X,X,X,X,X,X< f >.f.U.^.[.(.Q. X&X:X=X+Xo = v.{..X.X).F .   N *.*.,X,X,X,X,X,X,X,X,X,X,X,X,X,X,X,X,X,X,X,X,X",
",X,X,X,X,X,X,X,X,X,X,X,X,X,X,X,X1 f #.s.I.~.[.{.{.[.@XOXE :   b b.[..X.XE.F   - j.D.l.C < ,X,X,X,X,X,X,X,X,X,X,X,X,X,X,X,X,X,X,X",
",X,X,X,X,X,X,X,X,X,X,X,X,X,X,X,X< f ;.p.U.~.[.}..X`.j.n     . F D.{..X}.E.J - N W.{.S.Z 6 ,X,X,X,X,X,X,X,X,X,X,X,X,X,X,X,X,X,X,X",
",X,X,X,X,X,X,X,X,X,X,X,X,X,X,X,X, d :.A.~.'.[.{.{.[.v.S m D H z.E.}.}.}.).x.J j.`.{.S.Z 6 ,X,X,X,X,X,X,X,X,X,X,X,X,X,X,X,X,X,X,X",
",X,X,X,X,X,X,X,X,X,X,X,X,X,X,X,X> d 7.E.{.{.[.{.{.[.`.W.W.W.E.`.`.[.[.[.[.).W.).}.`.Z.Z , ,X,X,X,X,X,X,X,X,X,X,X,X,X,X,X,X,X,X,X",
",X,X,X,X,X,X,X,X,X,X,X,X,X,X,X,X, d l.!.|.|.{.[.[.{.{.}..X}..X{.}.[.].[.}.}.|.|..X`.Z.Z 6 ,X,X,X,X,X,X,X,X,X,X,X,X,X,X,X,X,X,X,X",
",X,X,X,X,X,X,X,X,X,X,X,X,X,X,X,X> d l.!.|.|.{.|.}.}.}.{.{.}.}.{.{.[.[.[.[.{.{.|..X[.Z.A , ,X,X,X,X,X,X,X,X,X,X,X,X,X,X,X,X,X,X,X",
",X,X,X,X,X,X,X,X,X,X,X,X,X,X,X,X, d l.E.}.{.{.{.{.{.{.[.{.{.[.{.[.[.[.[.[.[.[.{.}.[.Z.Z 6 ,X,X,X,X,X,X,X,X,X,X,X,X,X,X,X,X,X,X,X",
",X,X,X,X,X,X,X,X,X,X,X,X,X,X,X,X, d l.E.{.`.S.D.S.S.!.[.{.{.{.{.[.}.{.{.{.}.{.[._.D.0.C 7 ,X,X,X,X,X,X,X,X,X,X,X,X,X,X,X,X,X,X,X",
",X,X,X,X,X,X,X,X,X,X,X,X,X,X,X,X> d l.).'.Z.6.X.;.0.A.'.|.|.}.{.}.|.}.|.}.|.}.`.N.1.V f 0 ,X,X,X,X,X,X,X,X,X,X,X,X,X,X,X,X,X,X,X",
",X,X,X,X,X,X,X,X,X,X,X,X,X,X,X,X, g l.`.'.N.} ! Q { 9.!.{.[.[.[.`.`.`.`.`.{.`.S.8.) h s q ,X,X,X,X,X,X,X,X,X,X,X,X,X,X,X,X,X,X,X",
",X,X,X,X,X,X,X,X,X,X,X,X,X,X,X,X> d l.).].P.g.$./ ! X.l.C.C.m.m.Z.B.A.A.B.B.B.N.N.9.4.j 9 ,X,X,X,X,X,X,X,X,X,X,X,X,X,X,X,X,X,X,X",
",X,X,X,X,X,X,X,X,X,X,X,X,X,X,X,X, d l.).}.}._.B.5.! ) +.-.-.+.;.$.$.$.$.$.} } 8._._.Z.Z < ,X,X,X,X,X,X,X,X,X,X,X,X,X,X,X,X,X,X,X",
",X,X,X,X,X,X,X,X,X,X,X,X,X,X,X,X, d 7.E..X.X{.!.l.1.c c l l l c ` ^ ! ! / ) } 9.E.`.c.C , ,X,X,X,X,X,X,X,X,X,X,X,X,X,X,X,X,X,X,X",
",X,X,X,X,X,X,X,X,X,X,X,X,X,X,X,X> d 4.C.^.{.{.[./.B.R.v P P P x l ! W h { 8.B.Z.B.j.J M ,X,X,X,X,X,X,X,X,X,X,X,X,X,X,X,X,X,X,X,X",
",X,X,X,X,X,X,X,X,X,X,X,X,X,X,X,X< f ;.n.U.!.{.{.{.).oXU K K I U v ) ~ ^ 1.A.].E.3.u 7 ,X,X,X,X,X,X,X,X,X,X,X,X,X,X,X,X,X,X,X,X,X",
",X,X,X,X,X,X,X,X,X,X,X,X,X,X,X,X< s ..y.F.P.^.`.(.).R.E U U U v <.-.+.&.8.A._.D.o., O ,X,X,X,X,X,X,X,X,X,X,X,X,X,X,X,X,X,X,X,X,X",
",X,X,X,X,X,X,X,X,X,X,X,X,X,X,X,X8 s } 5.i.H.L.P.U.P.A.h.q.q.q.h.f.p.p.p.a.F.V.r.| 8 , ,X,X,X,X,X,X,X,X,X,X,X,X,X,X,X,X,X,X,X,X,X",
",X,X,X,X,X,X,X,X,X,X,X,X,X,X,X,Xe i _ O.e.i.F.H.F.F.H.H.G.H.G.H.I.F.H.I.n.u.1.{ j t 4 ,X,X,X,X,X,X,X,X,X,X,X,X,X,X,X,X,X,X,X,X,X",
",X,X,X,X,X,X,X,X,X,X,X,X,X,X,X,X5 t s k @.e.u.f.u.i.i.,.,.,.,.d.f.a.F.f.a.5.{ h p q ,X,X,X,X,X,X,X,X,X,X,X,X,X,X,X,X,X,X,X,X,X,X",
",X,X,X,X,X,X,X,X,X,X,X,X,X,X,X,X,Xr t p B @.e.t.e.t.e.t.t.e.e.e.t.t.t.t.1.O.j y t & ,X,X,X,X,X,X,X,X,X,X,X,X,X,X,X,X,X,X,X,X,X,X",
",X,X,X,X,X,X,X,X,X,X,X,X,X,X,X,X,X,X# 2 p [ O.1.1.@.@.@.@.@.O.1.@.@.%.%.} j q @ + ,X,X,X,X,X,X,X,X,X,X,X,X,X,X,X,X,X,X,X,X,X,X,X",
",X,X,X,X,X,X,X,X,X,X,X,X,X,X,X,X,X,X+ # t f k [ _ _ _ k _ k k [ _ _ _ [ j s 5 # + ,X,X,X,X,X,X,X,X,X,X,X,X,X,X,X,X,X,X,X,X,X,X,X",
",X,X,X,X,X,X,X,X,X,X,X,X,X,X,X% % % ,X,X3 t p s a a p a p p a a i p s s p t & ,X,X,X% % ,X,X,X,X,X,X,X,X,X,X,X,X,X,X,X,X,X,X,X,X",
",X,X,X,X,X,X,X,X,X,X,X,X,X,X% % % ,X,X,X$ 3 4 4 4 4 4 4 4 4 4 4 4 4 4 4 4 * ,X,X,X% % % ,X,X,X,X,X,X,X,X,X,X,X,X,X,X,X,X,X,X,X,X",
",X,X,X,X,X,X,X,X,X,X,X,X,X,X,X% % $ ,X,X% & 3 3 3 3 3 3 3 3 3 3 3 3 3 3 3 & ,X,X,X% % $ ,X,X,X,X,X,X,X,X,X,X,X,X,X,X,X,X,X,X,X,X",
",X,X,X,X,X,X,X,X,X,X,X,X,X,X,X% $ % % % ,X,X,X,X,X,X,X,X,X,X,X,X,X,X,X,X,X,X% % % % % % ,X,X,X,X,X,X,X,X,X,X,X,X,X,X,X,X,X,X,X,X",
",X,X,X,X,X,X,X,X,X,X,X,X,X,X% % % % % $ ,X,X,X,X,X,X,X,X,X,X,X,X,X,X,X,X,X,X,X% % % % % ,X,X,X,X,X,X,X,X,X,X,X,X,X,X,X,X,X,X,X,X",
",X,X,X,X,X,X,X,X,X,X,X,X,X,X% % $ % ,X% % ,X,X,X,X,X,X,X,X,X,X,X,X,X,X,X,X% % % ,X% % % ,X,X,X,X,X,X,X,X,X,X,X,X,X,X,X,X,X,X,X,X",
",X,X,X,X,X,X,X,X,X,X,X,X,X,X,X,X,X% % % $ $ $ $ % % $ $ $ $ $ $ % % % % % % % % % % ,X,X,X,X,X,X,X,X,X,X,X,X,X,X,X,X,X,X,X,X,X,X",
",X,X,X,X,X,X,X,X,X,X,X,X,X,X,X,X,X$ $ $ % $ $ $ % % $ $ $ $ $ $ % % $ $ % % $ % % % ,X,X,X,X,X,X,X,X,X,X,X,X,X,X,X,X,X,X,X,X,X,X",
",X,X,X,X,X,X,X,X,X,X,X,X,X,X,X,X,X$ $ $ $ $ $ $ $ $ $ $ $ $ $ $ $ $ $ $ % % % % % ,X,X,X,X,X,X,X,X,X,X,X,X,X,X,X,X,X,X,X,X,X,X,X",
",X,X,X,X,X,X,X,X,X,X,X,X,X,X,X,X,X,X,X,X,X,X,X,X,X,X,X,X,X,X,X,X,X,X,X,X,X,X,X,X,X,X,X,X,X,X,X,X,X,X,X,X,X,X,X,X,X,X,X,X,X,X,X,X",
",X,X,X,X,X,X,X,X,X,X,X,X,X,X,X,X,X,X,X,X,X,X,X,X,X,X,X,X,X,X,X,X,X,X,X,X,X,X,X,X,X,X,X,X,X,X,X,X,X,X,X,X,X,X,X,X,X,X,X,X,X,X,X,X",
",X,X,X,X,X,X,X,X,X,X,X,X,X,X,X,X,X,X,X,X,X,X,X,X,X,X,X,X,X,X,X,X,X,X,X,X,X,X,X,X,X,X,X,X,X,X,X,X,X,X,X,X,X,X,X,X,X,X,X,X,X,X,X,X",
",X,X,X,X,X,X,X,X,X,X,X,X,X,X,X,X,X,X,X,X,X,X,X,X,X,X,X,X,X,X,X,X,X,X,X,X,X,X,X,X,X,X,X,X,X,X,X,X,X,X,X,X,X,X,X,X,X,X,X,X,X,X,X,X",
",X,X,X,X,X,X,X,X,X,X,X,X,X,X,X,X,X,X,X,X,X,X,X,X,X,X,X,X,X,X,X,X,X,X,X,X,X,X,X,X,X,X,X,X,X,X,X,X,X,X,X,X,X,X,X,X,X,X,X,X,X,X,X,X",
",X,X,X,X,X,X,X,X,X,X,X,X,X,X,X,X,X,X,X,X,X,X,X,X,X,X,X,X,X,X,X,X,X,X,X,X,X,X,X,X,X,X,X,X,X,X,X,X,X,X,X,X,X,X,X,X,X,X,X,X,X,X,X,X",
",X,X,X,X,X,X,X,X,X,X,X,X,X,X,X,X,X,X,X,X,X,X,X,X,X,X,X,X,X,X,X,X,X,X,X,X,X,X,X,X,X,X,X,X,X,X,X,X,X,X,X,X,X,X,X,X,X,X,X,X,X,X,X,X",
",X,X,X,X,X,X,X,X,X,X,X,X,X,X,X,X,X,X,X,X,X,X,X,X,X,X,X,X,X,X,X,X,X,X,X,X,X,X,X,X,X,X,X,X,X,X,X,X,X,X,X,X,X,X,X,X,X,X,X,X,X,X,X,X",
",X,X,X,X,X,X,X,X,X,X,X,X,X,X,X,X,X,X,X,X,X,X,X,X,X,X,X,X,X,X,X,X,X,X,X,X,X,X,X,X,X,X,X,X,X,X,X,X,X,X,X,X,X,X,X,X,X,X,X,X,X,X,X,X"
};
