/* XPM */
static char *result[] = {
/* columns rows colors chars-per-pixel */
"64 64 208 2 ",
"   c #010000",
".  c #000A0B",
"X  c #11121A",
"o  c #220000",
"O  c #16192E",
"+  c #090437",
"@  c #171C33",
"#  c #161A3B",
"$  c #1A1F3A",
"%  c #1B223C",
"&  c #0F3A3B",
"*  c #3C3F3F",
"=  c #5F362E",
"-  c #06004E",
";  c #0E004D",
":  c #090045",
">  c #13004F",
",  c #120F44",
"<  c #16184C",
"1  c #141347",
"2  c #140151",
"3  c #180957",
"4  c #171854",
"5  c #181955",
"6  c #191657",
"7  c #1E2543",
"8  c #1C214A",
"9  c #1D2458",
"0  c #222C5D",
"q  c #27345B",
"w  c #241B6C",
"e  c #232D64",
"r  c #232B69",
"t  c #222665",
"y  c #25336D",
"u  c #263B6E",
"i  c #273666",
"p  c #273271",
"a  c #293374",
"s  c #2B3A73",
"d  c #2C357B",
"f  c #2A3E79",
"g  c #4F197A",
"h  c #68176E",
"j  c #49257E",
"k  c #50207B",
"l  c #7E3168",
"z  c #04464A",
"x  c #00585E",
"c  c #26484A",
"v  c #294D50",
"b  c #2B4477",
"n  c #2C447A",
"m  c #2D4B7B",
"M  c #294573",
"N  c #33417C",
"B  c #324679",
"V  c #335478",
"C  c #006F75",
"Z  c #1C707D",
"A  c #1B6167",
"S  c #3A6A6D",
"D  c #366367",
"F  c #3F7479",
"G  c #447B7E",
"H  c #A20021",
"J  c #A4142F",
"K  c #87004E",
"L  c #840458",
"P  c #811F5F",
"I  c #9B304B",
"U  c #915A72",
"Y  c #994D65",
"T  c #8B7A78",
"R  c #1A0282",
"E  c #291783",
"W  c #270182",
"Q  c #182486",
"!  c #153B8B",
"~  c #2A2685",
"^  c #2F3488",
"/  c #313988",
"(  c #332884",
")  c #422680",
"_  c #4A3A83",
"`  c #344587",
"'  c #354882",
"]  c #36458B",
"[  c #374A8B",
"{  c #394E8D",
"}  c #3A538F",
"|  c #355B8C",
" . c #3A4B91",
".. c #374993",
"X. c #2D5B97",
"o. c #3D5296",
"O. c #3D5D93",
"+. c #3F559A",
"@. c #385E97",
"#. c #28448D",
"$. c #3C6586",
"%. c #2C6297",
"&. c #3C6596",
"*. c #3D6C9C",
"=. c #3C6898",
"-. c #3F719E",
";. c #3F6FA2",
":. c #40559B",
">. c #42599D",
",. c #515D92",
"<. c #755D82",
"1. c #517F83",
"2. c #436A96",
"3. c #436A9B",
"4. c #416594",
"5. c #43739C",
"6. c #4B7C9C",
"7. c #47789A",
"8. c #457C80",
"9. c #6E7C9F",
"0. c #727A9D",
"q. c #445BA1",
"w. c #4463A4",
"e. c #466CA6",
"r. c #4662A9",
"t. c #4966AD",
"y. c #476AAA",
"u. c #486BAB",
"i. c #457AA6",
"p. c #4673AA",
"a. c #4876AD",
"s. c #457CAB",
"d. c #497CAE",
"f. c #4B7AA4",
"g. c #497AB0",
"h. c #457BB2",
"j. c #687EA2",
"k. c #887A84",
"l. c #3E81B6",
"z. c #4B898E",
"x. c #4C819E",
"c. c #498A9B",
"v. c #528F9F",
"b. c #588A98",
"n. c #4A969C",
"m. c #53929B",
"M. c #559C9E",
"N. c #4B84AE",
"B. c #4D85A8",
"V. c #548EA5",
"C. c #5189A9",
"Z. c #5491A3",
"A. c #599DA5",
"S. c #5493AB",
"D. c #5A9AAC",
"F. c #569CA7",
"G. c #4C84B2",
"H. c #4C8AB3",
"J. c #4586B5",
"K. c #518AB1",
"L. c #4F90B5",
"P. c #5394B5",
"I. c #569AB5",
"U. c #5A9EB4",
"Y. c #569BB9",
"T. c #589EBB",
"R. c #5494B7",
"E. c #668BAA",
"W. c #5CA3AB",
"Q. c #5BA1A5",
"!. c #4DABB3",
"~. c #45AAB2",
"^. c #5DA4B5",
"/. c #5EA9B7",
"(. c #5CA3BB",
"). c #5EAABB",
"_. c #55ADB4",
"`. c #5EB4BC",
"'. c #5CB1B6",
"]. c #65A8AD",
"[. c #63ADB5",
"{. c #62ADB9",
"}. c #67A9B3",
"|. c #65B0B6",
" X c #66B3B9",
".X c #69B6BB",
"XX c #6AB9BE",
"oX c #65B9BD",
"OX c #76B6BB",
"+X c #64AFC0",
"@X c #6ABAC1",
"#X c #64B0C0",
"$X c #7CBBC0",
"%X c #8A8E97",
"&X c #A08E8C",
"*X c #80A5AA",
"=X c #B5B1B1",
"-X c #A1B8B9",
";X c #8BBFC4",
":X c #8CC1C6",
">X c #B3CDD1",
",X c #ABD2D6",
"<X c #DCD3D2",
"1X c #C4DEE1",
"2X c #D4E7E9",
"3X c #F6F9F9",
"4X c #E0E3E3",
"5X c None",
/* pixels */
"5X5X5X5X5X5X5X5X5X5X5X5X5X5X5X5X5X5X5X5X5X5X5X5X5X5X5X5X5X5X5X5X5X5X5X5X5X5X5X5X5X5X5X5X5X5X5X5X5X5X5X5X5X5X5X5X5X5X5X5X5X5X5X5X",
"5X5X5X5X5X5X5X5X5X5X5X5X5X5X5X5X5X5X5X5X5X5X5X5X5X5X5X5X5X5X5X5X5X5X5X5X5X5X5X5X5X5X5X5X5X5X5X5X5X5X5X5X5X5X5X5X5X5X5X5X5X5X5X5X",
"5X5X5X5X5X5X5X5X5X5X5X5X5X5X5X5X5X5X5X5X5X5X5X5X5X5X5X5X5X5X5X5X5X5X5X5X5X5X5X5X5X5X5X5X5X5X5X5X5X5X5X5X5X5X5X5X5X5X5X5X5X5X5X5X",
"5X5X5X5X5X5X5X5X5X5X5X5X5X5X5X5X5X5X5X5X5X5X5X5X5X5X5X5X5X5X5X5X5X5X5X5X5X5X5X5X5X5X5X5X5X5X5X5X5X5X5X5X5X5X5X5X5X5X5X5X5X5X5X5X",
"5X5X5X5X5X5X5X5X5X5X5X5X5X5X5X5X5X5X5X5X5X5X5X5X5X5X5X5X5X5X5X5X5X5X5X5X5X5X5X5X5X5X5X5X5X5X5X5X5X5X5X5X5X5X5X5X5X5X5X5X5X5X5X5X",
"5X5X5X5X5X5X5X5X5X5X5X5X5X5X5X5X5X5X5X5X5X5X5X5X5X5X5X5X5X5X5X5X5X5X5X5X5X5X5X5X5X5X5X5X5X5X5X5X5X5X5X5X5X5X5X5X5X5X5X5X5X5X5X5X",
"5X5X5X5X5X5X5X5X5X5X5X5X5X5X5X5X5X5X5X5X5X5X5X5X5X5X5X5X5X5X5X5X5X5X5X5X5X5X5X5X5X5X5X5X5X5X5X5X5X5X5X5X5X5X5X5X5X5X5X5X5X5X5X5X",
"5X5X5X5X5X5X5X5X5X5X5X5X5X5X5X5X5X5X5X5X5X5X5X5X5X5X5X5X5X5X5X5X5X5X5X5X5X5X5X5X5X5X5X5X5X5X5X5X5X5X5X5X5X5X5X5X5X5X5X5X5X5X5X5X",
"5X5X5X5X5X5X5X5X5X5X5X5X5X5X5X5X5X5X5X5X5X5X5X5X5X5X5X5X5X5X5X5X5X5X5X5X5X5X5X5X5X5X5X5X5X5X5X5X5X5X5X5X5X5X5X5X5X5X5X5X5X5X5X5X",
"5X5X5X5X5X5X5X5X5X5X5X5X5X5X5X5X5X5X5X5X5X5X5X5X5X5X5X5X5X5X5X5X5X5X5X5X5X5X5X5X5X5X5X5X5X5X5X5X5X5X5X5X5X5X5X5X5X5X5X5X5X5X5X5X",
"5X5X5X5X5X5X5X5X5X5X5X5X5X5X5X5X5X5X5X5X5X5X5X5X5X5X5X5X5X5X5X5X5X5X5X5X5X5X5X5X5X5X5X5X5X5X5X5X5X5X5X5X5X5X5X5X5X5X5X5X5X5X5X5X",
"5X5X5X5X5X5X5X5X5X5X5X5X5X5X5X5X5X5X5X5X5X5X5X5X5X5X5X5X5X5X5X5X5X5X5X5X5X5X5X5X5X5X5X5X5X5X5X5X5X5X5X5X5X5X5X5X5X5X5X5X5X5X5X5X",
"5X5X5X5X5X5X5X5X5X5X5X5X5X5X5X5X5X5X5X5X5X5X5X5X5X5X5X5X5X5X5X5X5X5X5X5X5X5X5X5X5X5X5X5X5X5X5X5X5X5X5X5X5X5X5X5X5X5X5X5X5X5X5X5X",
"5X5X5X5X5X5X5X5X5X5X5X5X5X5X5X5X5X5X5X5X5X5X5X5X5X5X5X5X5X5X5X5X5X5X5X5X5X5X5X5X5X5X5X5X5X5X5X5X5X5X5X5X5X5X5X5X5X5X5X5X5X5X5X5X",
"5X5X5X5X5X5X5X5X5X5X5X5X5X5X5X5X5X5X5X5X5X5X5X5X5X5X5X5X5X5X5X5X5X5X5X5X5X5X5X5X5X5X5X5X5X5X5X5X5X5X5X5X5X5X5X5X5X5X5X5X5X5X5X5X",
"5X5X5X5X5X5X5X5X5X5X5X5X5X5X5X5X5X5X5X5X5X5X5X5X5X5X5X5X5X5X5X5X5X5X5X5X5X5X5X5X5X5X5X5X5X5X5X5X5X5X5X5X5X5X5X5X5X5X5X5X5X5X5X5X",
"5X5X5X5X5X5X5X5X5X5X5X5X5X5X5X5X5X5X5X5X5X5X5X5X5X5X5X5X5X5X5X5X5X5X5X5X5X5X5X5X5X5X5X5X5X5X5X5X5X5X5X5X5X5X5X5X5X5X5X5X5X5X5X5X",
"5X5X5X5X5X5X5X5X5X5X5X5X5X5X5X5X5X5X5X5X5X5X5X5X5X5X5X5X5X5X5X5X5X5X5X5X5X5X5X5X5X5X5X5X5X5X5X5X5X5X5X5X5X5X5X5X5X5X5X5X5X5X5X5X",
"5X5X5X5X5X5X5X5X5X5X5X5X5X5X5X5X5X5X5X5X5X5X5X5X5X5X5X5X5X5X5X5X5X5X5X5X5X5X5X5X5X5X5X5X5X5X5X5X5X5X5X5X5X5X5X5X5X5X5X5X5X5X5X5X",
"5X5X5X5X5X5X5X5X5X5X5X5X5X5X5X5X5X5X5X5X5X5X5X5X5X5X5X5X5X5X5X5X5X5X5X5X5X5X5X5X5X5X5X5X5X5X5X5X5X5X5X5X5X5X5X5X5X5X5X5X5X5X5X5X",
"5X5X5X5X5X5X5X5X5X5X5X5X5X5X5X5X5X5X5X5X5X5X5X5X5X5X5X5X5X5X5X5X5X5X5X5X5X5X5X5X5X5X5X5X5X5X5X5X5X5X5X5X5X5X5X5X5X5X5X5X5X5X5X5X",
"5X5X5X5X5X5X5X5X5X5X5X5X5X5X5X5X5X5X5X5X5X5X5X5X5X5X5X5X5X5X5X5X5X5X5X5X5X5X5X5X5X5X5X5X5X5X5X5X5X5X5X5X5X5X5X5X5X5X5X5X5X5X5X5X",
"5X5X5X5X5X5X5X5X5X5X5X5X5X5X5X5X5X5X5X5X5X5X5X5X5X5X5X5X5X5X5X5X5X5X5X5X5X5X5X5X5X5X5X5X5X5X5X5X5X5X5X5X5X5X5X5X5X5X5X5X5X5X5X5X",
"5X5X5X5X5X5X5X5X5X5X5X5X5X5X5X5X5X5X5X5X5X5X5X5X5X5X5X5X5X5X5X5X5X5X5X5X5X5X5X5X5X5X5X5X5X5X5X5X5X5X5X5X5X5X5X5X5X5X5X5X5X5X5X5X",
"5X5X5X5X5X5X5X5X5X5X5X5X5X5X5X5X5X5X5X5X5X5X5X5X5X5X5X5X5X5X5X5X5X5X5X5X5X5X5X5X5X5X5X5X5X5X5X5X5X5X5X5X5X5X5X5X5X5X5X5X5X5X5X5X",
"5X5X5X5X5X5X5X5X5X5X5X5X5X5X5X5X5X5X5X5X5X5X5X5X5X5X5X5X5X5X5X5X5X5X5X5X5X5X5X5X5X5X5X5X5X5X5X5X5X5X5X5X5X5X5X5X5X5X5X5X5X5X5X5X",
"5X5X5X5X5X5X5X5X5X5X5X5X5X5X5X5X5X5X5X5X5X5X5X5X5X5X5X5X5X5X5X5X5X5X5X5X5X5X5X5X5X5X5X5X5X5X5X5X5X5X5X5X5X5X5X5X5X5X5X5X5X5X5X5X",
"5X5X5X5X5X5X5X5X5X5X5X5X5X5X5X5X5X5X5X5X5X5X5X5X> 2 2 2 2 ; ; - - - - - - - - - - - ; > 2 5X5X5X5X5X5X5X5X5X5X5X5X5X5X5X5X5X5X5X",
"5X5X5X5X5X5X5X5X5X5X5X5X5X5X5X5X5X5X5X5X5X5X5X5Xu n ` b b m V V V V V V V V V V V V V m u y 5X5X5X5X5X5X5X5X5X5X5X5X5X5X5X5X5X5X",
"5X5X5X5X5X5X5X5X5X5X5X5X5X5X5X5X5X5X5X5X: + + y | *.;.*.-.x.v.Z.v.m.V.m.v.v.V.m.Z.v.B.i.| n 2 5X5X5X5X5X5X5X5X5X5X5X5X5X5X5X5X5X",
"5X5X5X5X5X5X5X5X5X5X5X5X5X5X5X5X5X5X5X6 3 ; 2 m 5.H.J.G.H.U.[.[.[.[.[.[.[.[.[.[.[.[.(.L.i.| 9 : 5X5X5X5X5X5X5X5X5X5X5X5X5X5X5X5X",
"5X5X5X5X5X5X5X5X5X5X5X5X5X5X5X5X5X5Xu m | $.$.x.S.T.T.Y.(._.'.oXoXXXXXXXXXXX.XXX@X@X X(.P.s.| u i 5X5X5X5X5X5X5X5X5X5X5X5X5X5X5X",
"5X5X5X5X5X5X5X5X5X5X5X5X5X5X5X5X5X2 n =.N.C.A.W.^.{.{.{./.!.~.!.oX@X.X.X|. X X.XXXXXXX X(.P.i.| M ; 5X5X5X5X5X5X5X5X5X5X5X5X5X5X",
"5X5X5X5X5X5X5X5X5X5X5X5X5X5X5X5X2 u =.N.R.{. X.X X X{. X XOX@XOX[.[.|.|.|. X X|.[.}.|.|.[.(.R.i.| 6 2 5X5X5X5X5X5X5X5X5X5X5X5X5X",
"5X5X5X5X5X5X5X5X5X5X5X5X5X5X5Xu m *.N.I.).+XXX.X X X'.'.$X,X1X>X*Xz.n./. XoX XW.m.z.M.[. X+X(.K.e.d w t 5X5X5X5X5X5X5X5X5X5X5X5X",
"5X5X5X5X5X5X5X5X5X5X5X5X5X5X> b =.N.Y.).{. X X|. X X_.!.:X2X3X<X%Xz C W.XXXX|.A.S v G ].XX X{.U.f...d r 5 5X5X5X5X5X5X5X5X5X5X5X",
"5X5X5X5X5X5X5X5X5X5X5X5X5X3 r O.d.R.(. X.X.X|.|.[. X_.!.;X2X3X<XT   x W.@X@X Xm.c   D A.XXXX X^.C.q...d 4 5X5X5X5X5X5X5X5X5X5X5X",
"5X5X5X5X5X5X5X5X5X5X5X5Xr a ] w.d.L.(.)..X|.|.|..X.XoX`.OX-X=X&X=   A A.@X@X Xm.&   D ].XXXXXX{.R.a.@.f 2 5X5X5X5X5X5X5X5X5X5X5X",
"5X5X5X5X5X5X5X5X5X5X5X5 y ' :.e.g.H.(./..X|.|. X X XoXXXW.z.* o   . G W.XX@X.Xm.v   S W.@XXXXX{.Y.N.=.b > 5X5X5X5X5X5X5X5X5X5X5X",
"5X5X5X5X5X5X5X5X5X5X5X4 d  .>.p.G.H.U.[.|..X X[.D.D.D.U.v.Z z & z S z.[.XX@X.XQ.G S z.[. X}.D.S.R.K.e.M > 5X5X5X5X5X5X5X5X5X5X5X",
"5X5X5X5X5X5X5X5X5X5X5X4 a ] >.y.s.H.I.[. X.X XW.6.4.>.w.6.c.n.M.Q.Q.]. XXXXXXX|.W.A.]..X{.V.2.*.J.H.-.b > 5X5X5X5X5X5X5X5X5X5X5X",
"5X5X5X5X5X5X5X5X5X5X5X4 p ] >.y.a.L.(./. X.X XD.5./ w W o.V.{..X.X X|.|.[.[.[.[.|. X X XW.6.[ o.N.H.7.b > 5X5X5X5X5X5X5X5X5X5X5X",
"5X5X5X5X5X5X5X5X5X5X5X4 p ] :.e.g.L.(.[..X.X X[.Z.7.{ E ^ 5.S.!.I.S.S.S.V.V.Z.Z.S.S.S.V.C.6.6.f.H.H.5.n > 5X5X5X5X5X5X5X5X5X5X5X",
"5X5X5X5X5X5X5X5X5X5X5X4 p ] :.y.g.L.(.|..X X X[.[.D.B.[ E #.X.%.%.%.X.O.O.4.O.O.} } [ ] 4.V.].).I.H.-.b > 5X5X5X5X5X5X5X5X5X5X5X",
"5X5X5X5X5X5X5X5X5X5X5X5 p [ >.y.p.H.Y./.[.|. X X.X.XD.7.{ _ ) g k j j ( ~ ~ ~ / [ } [ ] 2.S.[.{.Y.d.=.b > 5X5X5X5X5X5X5X5X5X5X5X",
"5X5X5X5X5X5X5X5X5X5X5X4 a  .>.r.y.p.B.P.^.{.|..X.X.X/.F.b.<.P K K h h g Q w E o.6.Z.Z.V.Z.U.(.Y.K.e.o.u 3 5X5X5X5X5X5X5X5X5X5X5X",
"5X5X5X5X5X5X5X5X5X5X5X5 a { >.q.>.3.p.G.P.^. X X|. X X{.}.k.I H J I P ,.Q Q ~ 3.D. X.X X{.U.L.N.y.>.] y 4 5X5X5X5X5X5X5X5X5X5X5X",
"5X5X5X5X5X5X5X5X5X5X5X< e N ..o.:.q.w.p.N.I.).[.).).).{.}.%XU Y Y Y <.,.X.X.X.d.U.{. X X).P.d.y.w.:.] p 5 5X5X5X5X5X5X5X5X5X5X5X",
"5X5X5X5X5X5X5X5X5X5X5X# 9 e s [ :.w.w.w.p.K.I.T.I.T.Y.Y.T.E.j.9.0.j.j.d.s.s.d.K.P.I.(.T.R.B.e.w.r.>. .d 5 5X5X5X5X5X5X5X5X5X5X5X",
"5X5X5X5X5X5X5X5X5X5X5X5X@ , 4 s { :.>.:.3.p.G.K.G.G.H.G.H.J.H.H.H.H.H.H.K.K.K.K.H.G.G.H.N.e.>.:.>.>.[ y 5 5X5X5X5X5X5X5X5X5X5X5X",
"5X5X5X5X5X5X5X5X5X5X5X5XO + , e N :.:.:.q.u.g.g.g.a.a.a.h.h.;.J.l.l.h.G.g.G.d.g.d.a.g.g.a.t.q.:.o.' s 0 < 5X5X5X5X5X5X5X5X5X5X5X",
"5X5X5X5X5X5X5X5X5X5X5X5XO @ $ < 7 i V :.t.t.t.t.y.t.y.y.u.t.a.w.y.y.t.u.u.u.u.u.y.y.w.y.t.t.r.:.` y 9 8 5X5X5X5X5X5X5X5X5X5X5X5X",
"5X5X5X5X5X5X5X5X5X5X5X5X5X5X5X5X5X5XB :.>.:.:.:.o.o.o.:.o. .:.:.o.o.o.o.:.:.:.:.o.o.o.o.:.>.>.' y 1 + 5X5X5X5X5X5X5X5X5X5X5X5X5X",
"5X5X5X5X5X5X5X5X5X5X5X5X5X5X5XX   X q B B N s ` N N N N N N N N N N f N N N s f N N ' f B ' B B 0 , + 5X5X5X5X5X5X5X5X5X5X5X5X5X",
"5X5X5X5X5X5X5X5X5X5X5X5X5X5X5X% @ % % 7 7 7 7 7 7 7 7 7 7 7 7 7 7 7 7 7 7 7 7 7 7 7 7 7 7 7 7 7 $ @ 5X5X5X5X5X5X5X5X5X5X5X5X5X5X",
"5X5X5X5X5X5X5X5X5X5X5X5X5X5X5X5X5X5X5X5X5X5X5X5X5X5X5X5X5X5X5X5X5X5X5X5X5X5X5X5X5X5X5X5X5X5X5X5X5X5X5X5X5X5X5X5X5X5X5X5X5X5X5X5X",
"5X5X5X5X5X5X5X5X5X5X5X5X5X5X5X5X5X5X5X5X5X5X5X5X5X5X5X5X5X5X5X5X5X5X5X5X5X5X5X5X5X5X5X5X5X5X5X5X5X5X5X5X5X5X5X5X5X5X5X5X5X5X5X5X",
"5X5X5X5X5X5X5X5X5X5X5X5X5X5X5X5X5X5X5X5X5X5X5X5X5X5X5X5X5X5X5X5X5X5X5X5X5X5X5X5X5X5X5X5X5X5X5X5X5X5X5X5X5X5X5X5X5X5X5X5X5X5X5X5X",
"5X5X5X5X5X5X5X5X5X5X5X5X5X5X5X5X5X5X5X5X5X5X5X5X5X5X5X5X5X5X5X5X5X5X5X5X5X5X5X5X5X5X5X5X5X5X5X5X5X5X5X5X5X5X5X5X5X5X5X5X5X5X5X5X",
"5X5X5X5X5X5X5X5X5X5X5X5X5X5X5X5X5X5X5X5X5X5X5X5X5X5X5X5X5X5X5X5X5X5X5X5X5X5X5X5X5X5X5X5X5X5X5X5X5X5X5X5X5X5X5X5X5X5X5X5X5X5X5X5X",
"5X5X5X5X5X5X5X5X5X5X5X5X5X5X5X5X5X5X5X5X5X5X5X5X5X5X5X5X5X5X5X5X5X5X5X5X5X5X5X5X5X5X5X5X5X5X5X5X5X5X5X5X5X5X5X5X5X5X5X5X5X5X5X5X",
"5X5X5X5X5X5X5X5X5X5X5X5X5X5X5X5X5X5X5X5X5X5X5X5X5X5X5X5X5X5X5X5X5X5X5X5X5X5X5X5X5X5X5X5X5X5X5X5X5X5X5X5X5X5X5X5X5X5X5X5X5X5X5X5X",
"5X5X5X5X5X5X5X5X5X5X5X5X5X5X5X5X5X5X5X5X5X5X5X5X5X5X5X5X5X5X5X5X5X5X5X5X5X5X5X5X5X5X5X5X5X5X5X5X5X5X5X5X5X5X5X5X5X5X5X5X5X5X5X5X",
"5X5X5X5X5X5X5X5X5X5X5X5X5X5X5X5X5X5X5X5X5X5X5X5X5X5X5X5X5X5X5X5X5X5X5X5X5X5X5X5X5X5X5X5X5X5X5X5X5X5X5X5X5X5X5X5X5X5X5X5X5X5X5X5X"
};
