/* XPM */
static char *result[] = {
/* columns rows colors chars-per-pixel */
"64 64 198 2 ",
"   c black",
".  c #000B13",
"X  c #12132F",
"o  c #161A2E",
"O  c #02003E",
"+  c #0E0436",
"@  c #171C31",
"#  c #181C32",
"$  c #181C3E",
"%  c #16183B",
"&  c #142A2C",
"*  c #1E3A3D",
"=  c #480000",
"-  c #010046",
";  c #010049",
":  c #0D004B",
">  c #0B0044",
",  c #13004E",
"<  c #141349",
"1  c #191D4B",
"2  c #161847",
"3  c #0E005A",
"4  c #150255",
"5  c #160F55",
"6  c #141251",
"7  c #191D55",
"8  c #1B1F59",
"9  c #191558",
"0  c #1F3D40",
"q  c #1C215C",
"w  c #1C2351",
"e  c #222D5F",
"r  c #1F0C62",
"t  c #22186A",
"y  c #251075",
"u  c #1E2760",
"i  c #222C64",
"p  c #242D6A",
"a  c #222565",
"s  c #28346F",
"d  c #243669",
"f  c #2A3474",
"g  c #2B3A74",
"h  c #2D397A",
"j  c #293A76",
"k  c #571777",
"l  c #64006E",
"z  c #601E74",
"x  c #6C126D",
"c  c #48297E",
"v  c #7F3D6D",
"b  c #00595F",
"n  c #315B5E",
"m  c #2A4377",
"M  c #2D427A",
"N  c #31427E",
"B  c #00666A",
"V  c #396A6A",
"C  c #337277",
"Z  c #346B71",
"A  c #43797C",
"S  c #94003B",
"D  c #A30431",
"F  c #A42A3B",
"G  c #950042",
"H  c #8C1151",
"J  c #942F53",
"K  c #9C4255",
"L  c #8E5C79",
"P  c #806A67",
"I  c #8E627C",
"U  c #170B83",
"Y  c #260081",
"T  c #261984",
"R  c #371E81",
"E  c #193089",
"W  c #2B2283",
"Q  c #2C2A86",
"!  c #2D3786",
"~  c #323F83",
"^  c #333C8C",
"/  c #303787",
"(  c #1B458F",
")  c #2D4C8E",
"_  c #2E4981",
"`  c #334286",
"'  c #35448A",
"]  c #364B8C",
"[  c #394B8F",
"{  c #354E87",
"}  c #39538F",
"|  c #325684",
" . c #3B4C92",
".. c #3C4996",
"X. c #3C5394",
"o. c #3D5B92",
"O. c #3F5499",
"+. c #3F5A9B",
"@. c #3C6688",
"#. c #3B6392",
"$. c #3D6B9B",
"%. c #3A679A",
"&. c #3F719D",
"*. c #2C7886",
"=. c #3F78AF",
"-. c #356AA0",
";. c #534584",
":. c #41549C",
">. c #425A9E",
",. c #406E88",
"<. c #447788",
"1. c #446896",
"2. c #467699",
"3. c #516A9A",
"4. c #776988",
"5. c #435FA1",
"6. c #4562A4",
"7. c #466BA4",
"8. c #466CA8",
"9. c #4471A5",
"0. c #4975A7",
"q. c #4D7EA2",
"w. c #4673AB",
"e. c #4A75AB",
"r. c #4379AC",
"t. c #4A7CAE",
"y. c #4379A4",
"u. c #4C7BB1",
"i. c #886783",
"p. c #897F89",
"a. c #38888F",
"s. c #3F89B6",
"d. c #4A8388",
"f. c #4E839E",
"g. c #4C8A9F",
"h. c #508F90",
"j. c #54959A",
"k. c #58999D",
"l. c #7A889C",
"z. c #4C82A2",
"x. c #4A84AD",
"c. c #4789A8",
"v. c #5087A3",
"b. c #528BA4",
"n. c #548CAA",
"m. c #5686AD",
"M. c #5692AA",
"N. c #5A9CAB",
"B. c #5896A9",
"V. c #4A84B1",
"C. c #4389B5",
"Z. c #4D89B3",
"A. c #4F8FB8",
"S. c #4485B3",
"D. c #5394B5",
"F. c #5698B4",
"G. c #599CB4",
"H. c #579BB9",
"J. c #599DBA",
"K. c #5594B7",
"L. c #568DB0",
"P. c #6284A9",
"I. c #6591A2",
"U. c #5DA4AB",
"Y. c #5EA9AE",
"T. c #48A9B1",
"R. c #5EA5B5",
"E. c #53ADB4",
"W. c #5CA8B6",
"Q. c #5BA3BA",
"!. c #5EAABA",
"~. c #5BB1B6",
"^. c #5FB7BE",
"/. c #60AAAE",
"(. c #70A6AE",
"). c #62ACB5",
"_. c #61ABB9",
"`. c #66A5B5",
"'. c #64B1B6",
"]. c #66B3B9",
"[. c #68B6BC",
"{. c #69B9BC",
"}. c #65BABE",
"|. c #71B2B5",
" X c #6ABAC1",
".X c #67B4C0",
"XX c #95908F",
"oX c #959090",
"OX c #89A3A5",
"+X c #84BCC1",
"@X c #8EC1C7",
"#X c #BDDCDF",
"$X c #CDC2C0",
"%X c #C6D7D9",
"&X c #DAECEE",
"*X c #E5E3E3",
"=X c #FEFFFF",
"-X c None",
/* pixels */
"-X-X-X-X-X-X-X-X-X-X-X-X-X-X-X-X-X-X-X-X-X-X-X-X-X-X-X-X-X-X-X-X-X-X-X-X-X-X-X-X-X-X-X-X-X-X-X-X-X-X-X-X-X-X-X-X-X-X-X-X-X-X-X-X",
"-X-X-X-X-X-X-X-X-X-X-X-X-X-X-X-X-X-X-X-X-X-X-X-X-X-X-X-X-X-X-X-X-X-X-X-X-X-X-X-X-X-X-X-X-X-X-X-X-X-X-X-X-X-X-X-X-X-X-X-X-X-X-X-X",
"-X-X-X-X-X-X-X-X-X-X-X-X-X-X-X-X-X-X-X-X-X-X-X-X-X-X-X-X-X-X-X-X-X-X-X-X-X-X-X-X-X-X-X-X-X-X-X-X-X-X-X-X-X-X-X-X-X-X-X-X-X-X-X-X",
"-X-X-X-X-X-X-X-X-X-X-X-X-X-X-X-X-X-X-X-X-X-X-X-X-X-X-X-X-X-X-X-X-X-X-X-X-X-X-X-X-X-X-X-X-X-X-X-X-X-X-X-X-X-X-X-X-X-X-X-X-X-X-X-X",
"-X-X-X-X-X-X-X-X-X-X-X-X-X-X-X-X-X-X-X-X-X-X-X-X-X-X-X-X-X-X-X-X-X-X-X-X-X-X-X-X-X-X-X-X-X-X-X-X-X-X-X-X-X-X-X-X-X-X-X-X-X-X-X-X",
"-X-X-X-X-X-X-X-X-X-X-X-X-X-X-X-X-X-X-X-X-X-X-X-X-X-X-X-X-X-X-X-X-X-X-X-X-X-X-X-X-X-X-X-X-X-X-X-X-X-X-X-X-X-X-X-X-X-X-X-X-X-X-X-X",
"-X-X-X-X-X-X-X-X-X-X-X-X-X-X-X-X-X-X-X-X-X-X-X-X-X-X-X-X-X-X-X-X-X-X-X-X-X-X-X-X-X-X-X-X-X-X-X-X-X-X-X-X-X-X-X-X-X-X-X-X-X-X-X-X",
"-X-X-X-X-X-X-X-X-X-X-X-X-X-X-X-X-X-X-X-X-X-X-X-X-X-X-X-X-X-X-X-X-X-X-X-X-X-X-X-X-X-X-X-X-X-X-X-X-X-X-X-X-X-X-X-X-X-X-X-X-X-X-X-X",
"-X-X-X-X-X-X-X-X-X-X-X-X-X-X-X-X-X-X-X-X-X-X-X-X-X-X-X-X-X-X-X-X-X-X-X-X-X-X-X-X-X-X-X-X-X-X-X-X-X-X-X-X-X-X-X-X-X-X-X-X-X-X-X-X",
"-X-X-X-X-X-X-X-X-X-X-X-X-X-X-X-X-X-X-X-X-X-X-X-X-X-X-X-X-X-X-X-X-X-X-X-X-X-X-X-X-X-X-X-X-X-X-X-X-X-X-X-X-X-X-X-X-X-X-X-X-X-X-X-X",
"-X-X-X-X-X-X-X-X-X-X-X-X-X-X-X-X-X-X-X-X-X-X-X-X-X-X-X-X-X-X-X-X-X-X-X-X-X-X-X-X-X-X-X-X-X-X-X-X-X-X-X-X-X-X-X-X-X-X-X-X-X-X-X-X",
"-X-X-X-X-X-X-X-X-X-X-X-X-X-X-X-X-X-X-X-X-X-X-X-X-X-X-X-X-X-X-X-X-X-X-X-X-X-X-X-X-X-X-X-X-X-X-X-X-X-X-X-X-X-X-X-X-X-X-X-X-X-X-X-X",
"-X-X-X-X-X-X-X-X-X-X-X-X-X-X-X-X-X-X-X-X-X-X-X-X-X-X-X-X-X-X-X-X-X-X-X-X-X-X-X-X-X-X-X-X-X-X-X-X-X-X-X-X-X-X-X-X-X-X-X-X-X-X-X-X",
"-X-X-X-X-X-X-X-X-X-X-X-X-X-X-X-X-X-X-X-X-X-X-X-X-X-X-X-X-X-X-X-X-X-X-X-X-X-X-X-X-X-X-X-X-X-X-X-X-X-X-X-X-X-X-X-X-X-X-X-X-X-X-X-X",
"-X-X-X-X-X-X-X-X-X-X-X-X-X-X-X-X-X-X-X-X-X-X-X-X-X-X-X-X-X-X-X-X-X-X-X-X-X-X-X-X-X-X-X-X-X-X-X-X-X-X-X-X-X-X-X-X-X-X-X-X-X-X-X-X",
"-X-X-X-X-X-X-X-X-X-X-X-X-X-X-X-X-X-X-X-X-X-X-X-X-X-X-X-X-X-X-X-X-X-X-X-X-X-X-X-X-X-X-X-X-X-X-X-X-X-X-X-X-X-X-X-X-X-X-X-X-X-X-X-X",
"-X-X-X-X-X-X-X-X-X-X-X-X-X-X-X-X-X-X-X-X-X-X-X-X-X-X-X-X-X-X-X-X-X-X-X-X-X-X-X-X-X-X-X-X-X-X-X-X-X-X-X-X-X-X-X-X-X-X-X-X-X-X-X-X",
"-X-X-X-X-X-X-X-X-X-X-X-X-X-X-X-X-X-X-X-X-X-X-X-X-X-X-X-X-X-X-X-X-X-X-X-X-X-X-X-X-X-X-X-X-X-X-X-X-X-X-X-X-X-X-X-X-X-X-X-X-X-X-X-X",
"-X-X-X-X-X-X-X-X-X-X-X-X-X-X-X-X-X-X-X-X-X-X-X-X-X-X-X-X-X-X-X-X-X-X-X-X-X-X-X-X-X-X-X-X-X-X-X-X-X-X-X-X-X-X-X-X-X-X-X-X-X-X-X-X",
"-X-X-X-X-X-X-X-X-X-X-X-X-X-X-X-X-X-X-X-X-X-X7 6 4 , , , , , 4 , , , , , 4 , , 4 4 , -X-X-X-X-X-X-X-X-X-X-X-X-X-X-X-X-X-X-X-X-X-X",
"-X-X-X-X-X-X-X-X-X-X-X-X-X-X-X-X-X-X-X-X-Xa s h m m m m m m m m m m m m m m m m M m d -X-X-X-X-X-X-X-X-X-X-X-X-X-X-X-X-X-X-X-X-X",
"-X-X-X-X-X-X-X-X-X-X-X-X-X-X-X-X-X-X-X-Xu f ` O.$.&.&.&.$.$.$.$.$.$.$.$.$.$.$.&.=.#.N d -X-X-X-X-X-X-X-X-X-X-X-X-X-X-X-X-X-X-X-X",
"-X-X-X-X-X-X-X-X-X-X-X-X-X-X-X-X-X-X-X6 p ~ O.7.t.V.Z.x.V.V.V.V.x.V.V.Z.V.x.V.V.A.x.&.m , -X-X-X-X-X-X-X-X-X-X-X-X-X-X-X-X-X-X-X",
"-X-X-X-X-X-X-X-X-X-X-X-X-X-X-X-X-X-Xa p ] +.7.u.Z.A.D.H.J.J.J.F.J.J.F.J.J.H.J.J.Q.F.c.| t r -X-X-X-X-X-X-X-X-X-X-X-X-X-X-X-X-X-X",
"-X-X-X-X-X-X-X-X-X-X-X-X-X-X-X-X-Xa f ~ :.7.t.V.V.A.F.R.).!._._.!.W._._._._._._._.!.n.>.Q t a -X-X-X-X-X-X-X-X-X-X-X-X-X-X-X-X-X",
"-X-X-X-X-X-X-X-X-X-X-X-X-X-X-X-X6 p ` :.8.u.Z.A.Z.Z.G.).[.].'.'.].].].'.).].]._.[._.F.0.:.' a 6 -X-X-X-X-X-X-X-X-X-X-X-X-X-X-X-X",
"-X-X-X-X-X-X-X-X-X-X-X-X-X-X-X-X4 p X.7.t.V.Z.D.F.G.!.].].~.~.~.].{.{.[.].].].[.{.[._.F.q.1.p - -X-X-X-X-X-X-X-X-X-X-X-X-X-X-X-X",
"-X-X-X-X-X-X-X-X-X-X-X-X-X-X-X-X, i #.y.Z.Z.Z.K.Q.).'.].).E.T.T.].}.[._.].).].].{.{.{.].N.<.i O -X-X-X-X-X-X-X-X-X-X-X-X-X-X-X-X",
"-X-X-X-X-X-X-X-X-X-X-X-X-X-X-X-X> i #.c.A.Z.Z.K._.].].'.{.+X@X+X|.U.Y.).].].].).`.U.'.{.).f.g 3 -X-X-X-X-X-X-X-X-X-X-X-X-X-X-X-X",
"-X-X-X-X-X-X-X-X-X-X-X-X-X-X-X-XO u #.x.A.S.x.D._.].~.E.+X#X&X%XOXC a.U.].[.'./.d.A j.'.).v.' y t q -X-X-X-X-X-X-X-X-X-X-X-X-X-X",
"-X-X-X-X-X-X-X-X-X-X-X-X-X-X-X-X> i #.x.A.Z.S.K.`.'.E.T.@X&X=X*XXX. B U.[. X'.k.n & A /._.L.5.^ f q 6 -X-X-X-X-X-X-X-X-X-X-X-X-X",
"-X-X-X-X-X-X-X-X-X-X-X-X-X-X-Xa a N $.x.A.D.K.Q.).].~.E.+X%X*X$XP   b N. X X].j.*   V U..X`.V.1.] 8 : -X-X-X-X-X-X-X-X-X-X-X-X-X",
"-X-X-X-X-X-X-X-X-X-X-X-X-X-Xq s ~ X.7.t.A.F._._.].[.}.}.|.OXXXP =   Z U.}. X}.j.*   V /.{.[.R.g.@.5 ; -X-X-X-X-X-X-X-X-X-X-X-X-X",
"-X-X-X-X-X-X-X-X-X-X-X-X-X< 8 !  .6.w.S.D.`.).].)._.].{.U.C .     * A U.[.{.].j.n & A N.{.{.[.N.,.4 - -X-X-X-X-X-X-X-X-X-X-X-X-X",
"-X-X-X-X-X-X-X-X-X-X-X-X-X6 q ~  .6.e.u.D.!.].).B.b.b.n.g.*.B B Z d.k.).{. X{./.h.A <.f.M.'.[./.,.4 - -X-X-X-X-X-X-X-X-X-X-X-X-X",
"-X-X-X-X-X-X-X-X-X-X-X-X-X6 8 h  .5.w.x.D.!.].U.2.[ ` } 2.b.Y.W.Y./.'.].{.{.].].'./.g.o.>.B.].U.,.4 - -X-X-X-X-X-X-X-X-X-X-X-X-X",
"-X-X-X-X-X-X-X-X-X-X-X-X-X6 8 h  .5.w.t.D.!.].U.2.] T Y ] z._.].'.!.W.W.`.`.R.).)._.b.o.#.M.!.N.,.5 - -X-X-X-X-X-X-X-X-X-X-X-X-X",
"-X-X-X-X-X-X-X-X-X-X-X-X-X6 8 h [ 5.w.V.D._.].)./.v.1.Q Q %.c.c.c.c.z.z.2.z.f.f.q.z.v.v.n.G.Q.n.o.9 ; -X-X-X-X-X-X-X-X-X-X-X-X-X",
"-X-X-X-X-X-X-X-X-X-X-X-X-X6 q h [ 5.w.V.D.Q.].[.[.).v.} T / ) ) ) ) ) ] ] ] ] ` Q [ 2.`.'.Q.A.y.| 9 : -X-X-X-X-X-X-X-X-X-X-X-X-X",
"-X-X-X-X-X-X-X-X-X-X-X-X-X6 8 h  .5.8.e.Z.B._._.{.[.U.z.1.;.z l l k k R T T T / ] 2.B.].}.Q.V.+._ 9 , -X-X-X-X-X-X-X-X-X-X-X-X-X",
"-X-X-X-X-X-X-X-X-X-X-X-X-X6 q ` :.5.6.6.0.x.F.Q.'.}.'.W.I.4.J S G H x c E U T o.f.N.].[.'.F.0.X.h q , -X-X-X-X-X-X-X-X-X-X-X-X-X",
"-X-X-X-X-X-X-X-X-X-X-X-X-X< q g  .>.>.:.6.w.V.F.R.'.}.^.(.p.K D F J L ;.( E ^ 2.N.}.[.[.`.m.>.' h q 6 -X-X-X-X-X-X-X-X-X-X-X-X-X",
"-X-X-X-X-X-X-X-X-X-X-X-X-X-Xq f N [ O.:.5.6.9.Z.F.!.!.!.`.l.i.L I i.4.3.-.%.$.q.G.!._.N.n.e.>...h q 6 -X-X-X-X-X-X-X-X-X-X-X-X-X",
"-X-X-X-X-X-X-X-X-X-X-X-X-X-X-X-Xi f ] >.5.5.5.0.C.D.H.D.n.L.P.P.P.q.m.x.V.V.V.Z.A.D.m.0.6.6.5.X.~ 8 6 -X-X-X-X-X-X-X-X-X-X-X-X-X",
"-X-X-X-X-X-X-X-X-X-X-X-X-X-X-X-X> 7 g X.>.:.:.6.w.V.V.u.S.S.C.C.S.Z.C.Z.Z.Z.Z.Z.V.x.8.5...O.O.{ j 7 < -X-X-X-X-X-X-X-X-X-X-X-X-X",
"-X-X-X-X-X-X-X-X-X-X-X-X-X-X-X-X+ 1 i g [ X.5.6.7.w.e.8.8.w.=.r.r.r.r.w.e.e.e.e.e.8.8.5.:...` j e 1 -X-X-X-X-X-X-X-X-X-X-X-X-X-X",
"-X-X-X-X-X-X-X-X-X-X-X-X-X-X-X# -X$ 1 q j [ >.5.5.5.5.5.5.5.5.5.5.5.5.5.5.5.5.5.6.5.5.5.O.` p 7 1 -X-X-X-X-X-X-X-X-X-X-X-X-X-X-X",
"-X-X-X-X-X-X-X-X-X-X-X-X-X-X# o -X-X+ + q h  .X. .[ [ [ [  .[ [ ..[ [ ]  . .[ [ [ [  .X.[ j 1 + X -X-X-X-X-X-X-X-X-X-X-X-X-X-X-X",
"-X-X-X-X-X-X-X-X-X-X-X-X-X-X# o -X-XX % w d g h h h h h g h h h h h h g h h h g h h h h g i 1 X o -X-X-X-X-X-X-X-X-X-X-X-X-X-X-X",
"-X-X-X-X-X-X-X-X-X-X-X-X@ @ # # @ @ -X-X% 1 8 q q 8 8 7 7 q 8 7 7 8 7 q 8 7 8 q 8 q q q w 1 o -X-X# @ @ -X-X-X-X-X-X-X-X-X-X-X-X",
"-X-X-X-X-X-X-X-X-X-X-X-X@ # # -X# @ -X-Xo % < < < < < < < < < < < < < < < < < < < < < < < % -X-X-X# # @ -X-X-X-X-X-X-X-X-X-X-X-X",
"-X-X-X-X-X-X-X-X-X-X-X-X# @ # # # # -X-X# $ $ $ $ $ $ $ $ $ $ $ $ $ $ $ $ % $ $ $ $ $ $ $ # # -X-X@ @ @ -X-X-X-X-X-X-X-X-X-X-X-X",
"-X-X-X-X-X-X-X-X-X-X-X-X# # # # # # # # -X-X-X-X-X-X-X-X-X-X-X-X-X-X-X-X-X-X-X-X-X-X-X-X-X-X-X# # # @ # -X-X-X-X-X-X-X-X-X-X-X-X",
"-X-X-X-X-X-X-X-X-X-X-X-X@ # # -X# # # # -X-X-X-X-X-X-X-X-X-X-X-X-X-X-X-X-X-X-X-X-X-X-X-X-X-X# # -X# # @ -X-X-X-X-X-X-X-X-X-X-X-X",
"-X-X-X-X-X-X-X-X-X-X-X-X@ @ # -X# # # # # # # # # # # # # # # # # # # # # # # # # # # # @ # # # -X# @ @ -X-X-X-X-X-X-X-X-X-X-X-X",
"-X-X-X-X-X-X-X-X-X-X-X-X-X-X# @ o # o # o # @ # # @ @ @ # @ # @ # @ @ # # o # # # o # @ @ @ @ # @ # -X-X-X-X-X-X-X-X-X-X-X-X-X-X",
"-X-X-X-X-X-X-X-X-X-X-X-X-X-X@ @ # # # # # # # # # # # # # # # # # # # # # # # # # # # # # # # # @ @ -X-X-X-X-X-X-X-X-X-X-X-X-X-X",
"-X-X-X-X-X-X-X-X-X-X-X-X-X-X-X# -X-X-X-X-X-X-X-X-X-X-X-X-X-X-X-X-X-X-X-X-X-X-X-X-X-X-X-X-X-X-X-X@ -X-X-X-X-X-X-X-X-X-X-X-X-X-X-X",
"-X-X-X-X-X-X-X-X-X-X-X-X-X-X-X-X-X-X-X-X-X-X-X-X-X-X-X-X-X-X-X-X-X-X-X-X-X-X-X-X-X-X-X-X-X-X-X-X-X-X-X-X-X-X-X-X-X-X-X-X-X-X-X-X",
"-X-X-X-X-X-X-X-X-X-X-X-X-X-X-X-X-X-X-X-X-X-X-X-X-X-X-X-X-X-X-X-X-X-X-X-X-X-X-X-X-X-X-X-X-X-X-X-X-X-X-X-X-X-X-X-X-X-X-X-X-X-X-X-X",
"-X-X-X-X-X-X-X-X-X-X-X-X-X-X-X-X-X-X-X-X-X-X-X-X-X-X-X-X-X-X-X-X-X-X-X-X-X-X-X-X-X-X-X-X-X-X-X-X-X-X-X-X-X-X-X-X-X-X-X-X-X-X-X-X",
"-X-X-X-X-X-X-X-X-X-X-X-X-X-X-X-X-X-X-X-X-X-X-X-X-X-X-X-X-X-X-X-X-X-X-X-X-X-X-X-X-X-X-X-X-X-X-X-X-X-X-X-X-X-X-X-X-X-X-X-X-X-X-X-X",
"-X-X-X-X-X-X-X-X-X-X-X-X-X-X-X-X-X-X-X-X-X-X-X-X-X-X-X-X-X-X-X-X-X-X-X-X-X-X-X-X-X-X-X-X-X-X-X-X-X-X-X-X-X-X-X-X-X-X-X-X-X-X-X-X",
"-X-X-X-X-X-X-X-X-X-X-X-X-X-X-X-X-X-X-X-X-X-X-X-X-X-X-X-X-X-X-X-X-X-X-X-X-X-X-X-X-X-X-X-X-X-X-X-X-X-X-X-X-X-X-X-X-X-X-X-X-X-X-X-X"
};
