/* XPM */
static char *result[] = {
/* columns rows colors chars-per-pixel */
"60 60 203 2 ",
"   c #280003",
".  c #2F0D27",
"X  c #390C25",
"o  c #3B172A",
"O  c #3D2C31",
"+  c #470029",
"@  c #4D002E",
"#  c #421D28",
"$  c #520033",
"%  c #550C35",
"&  c #551236",
"*  c #4D2629",
"=  c #4F292C",
"-  c #512C2E",
";  c #593722",
":  c #58372B",
">  c #442B33",
",  c #552535",
"<  c #542D33",
"1  c #54253C",
"2  c #473037",
"3  c #4B3439",
"4  c #4D3A3E",
"5  c #573636",
"6  c #573937",
"7  c #583833",
"8  c #573739",
"9  c #573C3C",
"0  c #5A3B3B",
"q  c #5D423D",
"w  c #594938",
"e  c #585236",
"r  c #5A5239",
"t  c #626A3F",
"y  c #3D3D42",
"u  c #4E0145",
"i  c #520046",
"p  c #532346",
"a  c #522C45",
"s  c #443F43",
"d  c #4D3E40",
"f  c #563147",
"g  c #543D44",
"h  c #5A3849",
"j  c #643847",
"k  c #464043",
"l  c #4C4244",
"z  c #544445",
"x  c #584646",
"c  c #594947",
"v  c #574648",
"b  c #5A4948",
"n  c #5A5246",
"m  c #5B5B47",
"M  c #5D5148",
"N  c #654946",
"B  c #644C4A",
"V  c #694F4B",
"C  c #65504E",
"Z  c #6C514D",
"A  c #665948",
"S  c #74544E",
"D  c #7A554E",
"F  c #744D50",
"G  c #665451",
"H  c #6B5552",
"J  c #6D5955",
"K  c #6D5D59",
"L  c #715754",
"P  c #7C5650",
"I  c #725A56",
"U  c #7E5951",
"Y  c #725E59",
"T  c #7B5F59",
"R  c #5D6C48",
"E  c #667847",
"W  c #6D635D",
"Q  c #76625C",
"!  c #79645E",
"~  c #7C6761",
"^  c #7D6963",
"/  c #786A64",
"(  c #7C756C",
")  c #8C453B",
"_  c #91473B",
"`  c #8A544A",
"'  c #955145",
"]  c #94564B",
"[  c #98574A",
"{  c #96594D",
"}  c #8A5355",
"|  c #845C53",
" . c #8A5E54",
".. c #9B5256",
"X. c #975D50",
"o. c #9D565A",
"O. c #9D595B",
"+. c #A1435D",
"@. c #A0595C",
"#. c #8E6056",
"$. c #916257",
"%. c #996356",
"&. c #956559",
"*. c #9A675A",
"=. c #97685C",
"-. c #9D695B",
";. c #837D52",
":. c #977356",
">. c #987359",
",. c #A2655D",
"<. c #A26B5D",
"1. c #836760",
"2. c #816B65",
"3. c #856F6A",
"4. c #996E61",
"5. c #85736B",
"6. c #87746E",
"7. c #9F7365",
"8. c #9F776D",
"9. c #837A71",
"0. c #8D7972",
"q. c #947E78",
"w. c #A16F6E",
"e. c #A27769",
"r. c #A17D74",
"t. c #61843C",
"y. c #638B3F",
"u. c #638C49",
"i. c #689B45",
"p. c #7A9A54",
"a. c #69A343",
"s. c #69A54A",
"d. c #6BAA48",
"f. c #7BA74F",
"g. c #6DB446",
"h. c #6EB845",
"j. c #6EB64A",
"k. c #6DB84A",
"l. c #70B44A",
"z. c #72C449",
"x. c #75CD4B",
"c. c #72D347",
"v. c #77D64C",
"b. c #7AD34D",
"n. c #75DA4B",
"m. c #78DA4C",
"M. c #73E14A",
"N. c #7BE24E",
"B. c #808451",
"V. c #8F9C55",
"C. c #929656",
"Z. c #919B56",
"A. c #8BAA56",
"S. c #84BA51",
"D. c #89B85B",
"F. c #95827A",
"G. c #9B857E",
"H. c #908B7F",
"J. c #A2897B",
"K. c #AA8A7A",
"L. c #81CC53",
"P. c #8CE15E",
"I. c #95CD66",
"U. c #ABF677",
"Y. c #B2FD7C",
"T. c #9A8A81",
"R. c #979386",
"E. c #A28582",
"W. c #A58B86",
"Q. c #A88E86",
"!. c #A78E89",
"~. c #A88F89",
"^. c #AB948D",
"/. c #A6988A",
"(. c #B59D8C",
"). c #AA9A90",
"_. c #B29C94",
"`. c #A6A494",
"'. c #ACA897",
"]. c #B2A196",
"[. c #B4A498",
"{. c #B6AA98",
"}. c #BBAC9B",
"|. c #BBAEA0",
" X c #BEB7A6",
".X c #BDBAA7",
"XX c #C0AF9B",
"oX c #C0B7A5",
"OX c #C4BAA5",
"+X c #C3BBAA",
"@X c #CAC2AC",
"#X c #C6C6B1",
"$X c #CAC7B3",
"%X c #CDCBB6",
"&X c #D1CFBA",
"*X c #D3D3BC",
"=X c #D6D7C0",
"-X c #D7D8C1",
";X c #DADCC4",
":X c #DDE0C7",
">X c #DEE1C9",
",X c #E1E4CB",
"<X c #E8EBD2",
/* pixels */
"v.v.v.v.v.v.v.v.v.v.v.v.v.m.v.v.v.m.h.r @ 5 Z ~ I 5..X;X;X&X[.W.^.^.^.^.^.J.=...:.S.n.v.n.v.v.v.v.v.v.v.v.v.v.v.v.v.v.v.",
"v.v.v.v.v.v.v.v.v.v.v.v.v.v.m.m.m.m.g.r @ 5 Z ~ Y 5..X;X;X&X[.E.!.^.!.~.^.8.O...:.S.n.n.m.v.n.v.v.v.v.v.v.v.v.v.v.v.v.v.",
"v.v.v.v.v.v.v.v.v.v.v.m.m.m.m.m.N.N.h.e @ 5 Z ^ I 6..X;X;X%X_.E.W.W.!.!.W.r.%...>.L.M.M.n.n.n.v.n.v.v.v.v.v.v.v.v.v.v.v.",
"v.v.v.v.v.v.v.v.v.v.v.z.g.g.h.g.h.h.i.A j N I ~ L 6..X;X;X*XoX{.|.|.|.|.|.^.8.7.e.A.l.S.S.S.S.S.x.b.v.v.v.b.v.v.v.v.v.v.",
"v.v.v.v.v.v.v.v.v.m.b.u.6 w r r r e A ! ~ ! ! ^ Y 5..X;X;X=X*X*X*X*X*X=X*X X~.!.^.e.:.:.>.>.*.*.A.b.n.v.v.v.v.v.v.v.v.v.",
"v.v.v.m.m.m.m.m.v.N.b.t.@ $ $ $ @ @ j ^ 2.^ ^ ~ L 6..X>X;X-X-X;X;X;X;X;X;X+X~.!.^.w...o.O.O.@.+.C.v.M.m.m.m.m.m.v.v.v.v.",
"v.v.m.v.v.m.v.m.v.N.x.u.$ , 5 5 7 < N ! ^ ^ ~ ~ L 5..X;X;X;X=X=X=X=X=X-X-X+X~.~.^.8.%.%.*.*.*.@.C.b.M.v.v.v.v.v.v.v.v.v.",
"v.v.m.z.a.i.a.s.s.d.i.E V H Z H Z Z I ! ^ ^ ~ ~ Y 5.].+XoX+X*X-X=X=X=X=X=X%X.X+X|.K.%.%.%.| P F ;.A.A.A.f.s.s.d.x.v.v.v.",
"v.m.v.g.w $ < 0 h g b Y 2.^ ^ ~ ^ ^ ~ ~ ~ ~ ~ ~ Q 2.T.~.W.[.&X;X*X;X*X;X*X;X-X:X*X(.] %.$.B l l F &.,.*.| g i m j.m.n.n.",
"m.N.N.h.q $ % 1 f a h Y ^ ^ ^ ^ ^ ^ ^ ~ ~ ~ ~ ~ Q 2.T.~.E._.%X;X-X*X;X*X;X*X-X:X*XK._ ] ` V k k F X.w.O.F f u M j.n.n.n.",
"x.c.v.g.r $ 5 g v z b Y ^ ^ ~ ~ ~ ~ ~ ~ ~ ~ ~ ~ Q 2.T.^.~.[.&X-X*X;X*X;X*X-X-X:X*X(.-.7.=.Z k z S $.%.%.U z p m l.b.v.b.",
"y.y.y.E b 8 z x v z b Y ^ ~ ~ ~ ~ ~ ~ ~ ~ ~ ~ ~ Q 2.J.^.!._.%X;X;X*X;X*X;X*X*X;X*X$XOX@X{./ > z B F D D V b d M B.Z.V.V.",
"$ $ $ 1 c b v c c z b Y 2.~ ~ ~ ~ ~ ~ ^ ~ ~ ~ ~ ~ 2.E.^.!.[.&X-X*X*X;X-X;X*X;X*X*X;X:X,X$X9.o z z l k z z v z c } @.O.o.",
"< , , f c c x v c z b Y 2.2.~ ~ ~ ~ ~ ~ ~ ~ ~ ~ T 1.T.^.W.[.&X>X;X;X*X-X*X;X*X*X*X;X*X,X#X( . l 4 o X o 3 v v b  .,.,.-.",
"0 5 5 0 c c c c c z b J Q ~ ~ ~ ~ ~ ~ ~ ~ ~ ~ ~ ~ ^ T.^.!._.+X*X%X*X*X*X;X*X*X;X*X;X*X,X#X9.< V K ( 9.( W c l N | O.#.#.",
"8 5 5 0 c c x x x x v B B b G Q ^ ~ ~ ~ ~ ~ ~ ~ ~ ^ T.^.^._._.[.[.+X*X:X*X;X;X*X;X*X*X:X@XJ.) ` J.#X%X#XR.z 3 c B V Z C ",
"5 5 9 9 c v c v x v v x z d b ! 1.^ ~ ^ ~ ~ ~ ~ Q 2.T.^._.^.~.W.E.}.*X;X=X=X-X-X-X;X-X;X$XK._ [ (.;X<X>X'.2 o q z l l l ",
"5 5 5 9 z v c c v x x x z z b ! 2.^ ^ ~ ~ ~ ! Q I ~ T._.^.^.^.^.!.|.=X;X=X-X;X;X;X;X>X>X$XK._ [ (.-X,X:X`.o   > 9 c c v ",
"5 5 5 9 x c v c v x v B G G H I I J T / ~ ~ 3.0.0.0.q.F.q.q.E.G.F.'.*X:X=X%XOXoX+X+X+X@X}.J.] %.K.OX@XOX'.R.R.H.W z l v ",
"5 5 7 9 x c c v x x b K ~ ~ Y N 5 5 B ~ ~ ~ q.!.^.Q.2.b b G ~ 1.Q /.&X>X=X}.e.-.7.7.7.7.7.-.%.&.-.7.-.7.{.&X*X%XH.> q c ",
"7 5 5 9 v v v c v z b Q 2.2.~ 0 * * N Q ~ ~ G.)._.^./ O 2 z K Q Z /.*X,X;X{.' _ ] ] ] ] { %.-.-.%.{ _ ] XX,X<X;XR.o 4 c ",
"5 5 5 g v v v c v z v Q 1.2.T c - < B ! ~ ! F.^._.!.~ 4 d C ! ~ I /.*X,X-X}.=.X.*.*.*.*.*.*.*.*.*.*.{ %.}.*X,X*XR.> 9 c ",
"6 5 5 0 q g g q l q q B Z H V z 9 9 C ~ ^ ^ 2.3.6.3.~ G J G J G C 9.`.'.`.J.*.%.*.*.*.*.*.*.*.-.$.| D U F.`.'.`.( 4 z x ",
"5 5 5 6 5 8 7 5 5 5 5 5 5 7 6 z v z G ! ^ ^ Z 5 = 8 Y ^ ^ ~ B z z z g d 4 | *.-.*.*.*.*.*.*.*.-.| b l x z z 4 g z x x v ",
"8 8 8 0 5 5 5 5 5 5 5 < = = 5 z z z C ^ 2.^ Z - # < I ^ 2.! b s k 4 3 > 2 D -.-.*.*.*.*.*.*.-.-. .c l z 4 3 2 3 q v v v ",
"6 5 5 5 5 5 5 5 5 5 5 5 0 0 0 c b b H Q ^ ! Z 5 - 0 I ^ 2.! V c B b c z x U *.*.*.*.*.*.*.*.-.-.| N z v v v v v v c v v ",
": : : : : : : 5 5 5 9 Z I Y I Q Y Y J B B B 0 8 7 0 I ^ ^ ! |  . .P M l x U *.-.*.*.*.*.*.*.*.-. .B z c c x x x x c v c ",
"; ; ; ; ; ; ; : 5 5 0 I 2.^ ^ ^ ^ ^ I 5 = 5 5 5 < 0 I 1.~ 1.=.<.e.#.b l z U *.*.*.*.*.*.*.*.-.-.| b l v v x v c v z c c ",
"; ; ; ; ; ; ; : 5 < 0 I ^ ~ ^ ^ 2.2.Y 0 - 5 5 5 < 0 I ^ / #.4.*.-. .c O l U -.<.-.-.*.*.*.*.*.-.| z w l z v c z c c c v ",
": ; : : : : : 6 9 5 q J ^ ^ ~ T ! ! Z 0 5 5 5 9 7 g I ^ ~ 2.=.*.-.#.Z B C U &.#.$.&.*.*.*.*.*.-. .Z b Z B c v c v c z v ",
"5 7 5 7 5 7 7 0 c g v Y ^ ^ T B q x q 9 7 5 9 c z c Y ^ / #.&.*.-.&.$.&.$.U B B Z #.-.-.*.*.*.*.=.$.&.#.S x z v v c c v ",
"5 8 5 5 5 5 5 z b v b Y 2.2.T q * - 5 5 5 5 g c x b Y / / 2.=.*.*.%.-.<.-.U l y v #.-.-.-.*.*.*.*.-.<.-.| z l c c v v c ",
"5 5 5 6 7 5 5 0 b z b Q ^ 2.! x - 5 5 5 5 7 0 c z b Y 2./ 1.=.*.*.*.*.-.-.U b k b #.-.-.-.*.*.*.-.&.-.-.U l l l c c x x ",
"5 8 5 0 9 9 9 z x x b G I Q Z q 5 5 5 5 5 5 z b x b H Y K T &.-.*.*.*.-.*.U z l b U #.| #.=.-.*.-.&.-.-.#.S S Z B c v v ",
"5 5 5 9 x v x x v v v q 0 0 0 7 9 5 5 5 5 5 z v x x b b l C $.<.*.*.*.-.*.U b z b b b b Z $.-.*.&.-.-.%.&.&.&.&.S z z c ",
"5 5 5 9 v b v v v v x 6 - < 5 5 5 5 5 5 5 5 0 v b b x z w V #.-.*.*.*.*.*.U l l z z z k B $.<.-.-.-.-.-.-.-.<.-.S l z v ",
"5 5 5 0 c b x x c v v 9 5 5 6 5 5 5 5 9 5 5 0 x b z c v l V #.-.*.*.*.-.*.U z l z z b l V $.-.-.%.-.-.=.*.*.-.&.S z z c ",
"z 0 0 z x v b x v v c 9 5 5 6 5 5 5 9 9 0 g x c x b v v l V $.<.*.*.*.*.*.#.U | U V z z B D | U U U U U #.-.-.&.S l z v ",
"c v c v x v c x c v c 0 5 5 5 5 5 5 9 x b v x x b z b v l V $.-.*.*.*.*.*.*.*.-.=.S z z c c x x v v l v U -.<.&.S z v c ",
"v b b v x v c x v b c 0 5 0 5 5 5 5 9 x b b c c v b v v l Z $.<.-.-.*.*.*.*.-.<.=.S l x x l k k l k k l U -.<.%.S z z c ",
"x c c c c c c c c c v 0 5 5 5 9 5 5 0 c c c c c x c x x z B  .%.&.*.*.*.*.*.-.-.=.S z v v b B b c b b b U %.-.&.S l c c ",
"9 9 0 g x v c z 9 0 9 5 5 5 6 g g x c c v x z 0 0 0 z c z B S L S | *.-.*.*.*.-.=.S l l B U #.#.#.#.#. .U S S S B z x v ",
"5 5 5 9 x v c 0 5 5 5 5 5 5 0 c b v c x v c 0 5 5 5 z c v x z l k S &.-.*.*.*.-.$.S z l Z &.<.-.-.-.<.-.U l l l v v v v ",
"5 5 5 0 v b c g 5 5 5 5 5 5 0 z v c v x b v g 5 < 5 z b x v z z l S *.<.-.-.*.-.%.S l l Z %.<.-.-.-.-.-.U k k l c x v v ",
"5 5 5 0 z z x 0 5 5 5 8 5 7 5 x v c c x z x 9 0 5 0 z c c x x v v Z #.&.#.%.*.-.&.S l l V | $.#.&.&.-.-.| V C Z c c x v ",
"5 5 5 5 0 0 5 0 5 8 5 5 5 5 5 x v v z 0 6 0 g x c z x x v x b x v c V V C | *.-.&.S z z c V V V U &.-.%.$.$.$.#.Z z x c ",
"5 5 9 5 5 5 5 5 5 8 5 5 5 5 0 z b c z 5 7 7 q b v v c x c x c x c z l k l U -.<.&.S l x x l k s S &.<.-.-.<.<.-.S l z v ",
"5 5 5 5 6 8 5 5 5 5 5 5 7 5 8 x c c x 5 < 5 g c v c c v v b x x v v c z v | -.<.*.S k k z x z z S %.<.-.-.-.<.-.S z z v ",
"9 5 8 5 0 5 5 5 5 5 5 9 9 9 9 x b v q 5 5 5 g c v v x z z z x x c c v x x S  .#. .D S S S b x z V |  . . . . .| Z z x x ",
"5 5 0 0 5 5 5 9 5 5 5 q x x x x b v z 5 5 5 q x b x 9 5 5 7 z b c z x x v c b v B | *.*.#.V l x b b b B b B B b b x x v ",
"& & % & 5 6 5 5 5 5 5 q b b b b v c z 9 5 5 g v b v 9 5 7 8 x c v x x c x x z k c #.<.<.%.Z l c x z l l l z z l h a f f ",
"< < < 8 8 6 5 5 5 5 9 z v v x x b v z 7 5 5 q v b v 9 5 5 8 x c c c x v x c c l b #.<.-.#.Z l c c c v c v z c c x x h v ",
"a.a.a.u.w & 0 9 z 9 z z b x x 0 z 9 9 5 5 6 9 g z 0 0 5 5 0 x v c c c v x v x z c S | | S N z x c c c c v c h n u.d.s.s.",
"m.m.m.h.r $ 7 q v b x x x b x 0 5 5 9 5 5 7 5 7 5 5 5 5 7 0 z c x v x x v v x v v x z z v c v c x v x v c c p m h.m.v.v.",
"m.m.N.g.- + @ 1 b b b b b b z 5 5 5 5 5 5 5 5 5 5 5 5 5 5 8 g c x x c c x v c v c c z l v v x v v c c c g p i b j.N.N.v.",
"v.m.N.h.t c r n x v z x x z z 9 5 7 5 9 5 5 5 9 5 5 5 5 5 0 x v v x x v c c c x v c v c c v x c v x c v M m v R k.m.m.v.",
"v.v.v.L.I.I.I.p.8 1 9 9 9 9 9 9 5 5 5 5 5 5 0 5 5 6 5 5 5 9 x c c c x x b x x x x x v v v x c c c c h g u.j.j.k.x.m.v.v.",
"v.v.c.P.U.Y.Y.D., $ 5 5 5 5 5 5 5 5 5 5 5 6 5 5 8 5 5 8 5 5 x x x v c v x x x b b x v v c c v x x v f g d.N.N.n.v.v.v.v.",
"v.v.c.P.U.U.U.D., @ 5 5 9 5 6 6 5 8 5 8 5 8 8 5 5 5 6 5 7 0 z b x c c x x x x c c x v v v x v c x x f h s.m.m.v.v.v.v.v.",
"v.n.c.P.U.Y.U.D., $ 9 7 5 5 8 7 5 5 5 5 5 6 5 6 5 5 0 5 5 0 z b x v x x c c v v v x v c c x x x b b f v s.v.m.v.v.v.v.v."
};
